<mxfile host="app.diagrams.net" modified="2020-11-10T14:34:57.265Z" agent="5.0 (Macintosh; Intel Mac OS X 10_15_4) AppleWebKit/537.36 (KHTML, like Gecko) Chrome/86.0.4240.183 Safari/537.36" etag="vW3hnZIhyd1JrzM9dTJ6" version="13.9.1" type="github">
  <diagram id="7gEvQphC6RhiV8L_cWRr" name="Page-1">
    <mxGraphModel dx="2253" dy="794" grid="1" gridSize="10" guides="1" tooltips="1" connect="1" arrows="1" fold="1" page="1" pageScale="1" pageWidth="827" pageHeight="1169" math="0" shadow="0">
      <root>
        <mxCell id="0" />
        <mxCell id="1" parent="0" />
        <mxCell id="KgD3_RwGLiOMR42IKv-A-1" value="Actor" style="shape=umlActor;verticalLabelPosition=bottom;verticalAlign=top;html=1;outlineConnect=0;" vertex="1" parent="1">
          <mxGeometry x="73" y="348" width="30" height="60" as="geometry" />
        </mxCell>
        <mxCell id="KgD3_RwGLiOMR42IKv-A-2" value="" style="shape=image;verticalLabelPosition=bottom;labelBackgroundColor=#ffffff;verticalAlign=top;aspect=fixed;imageAspect=0;image=data:image/png,iVBORw0KGgoAAAANSUhEUgAAASQAAAIICAYAAADHf5M8AAAgAElEQVR4XuydB5gV5dn3/6fvLmV36UUQVDQ2EAHBSvGzx56oiVETTdQkbzQx8U3sLa8lib13QVCsKBqlKFbsFWzY6Sx9Yeup3/W/73lm5pzdZRcFhTnPeK277M45Z54yv7n7HcrmcjnYw86AnQE7A5vADIQskDaBVbCXYGfAzoDMgAWS3Qh2BuwMbDIz0CYgUakLhfSajYKXzWYwc+ZrePPNN/DLXx6PXr16yTnmXPN9xYoVOO3U03D/+PtRWlrqDpy//+9//4tMJtNkMvjaLl26YMyY0Zg2bRoWLFgo5/Ts2ROrV6/CT3/6U1DTnDp1Ko488kiUlpZh+vTp2GOP3fHuu+/i7bffcd8zFAphp512xKGHHrrOSfeP0YzTP2bz8yazcj/AhRSuZeG//fvBXE5z87Suuf0BhrFJfgTn5OOPP8a7776DE088yb2/7r//fvTp0xejRo1s9rpTqRTefPNNvPHGG3LeIYccjPbt27c4xsK5b20y/AaclvZ8NpvF++9/gE8+/hgNjY3KBUo3zptHY1EccvAhWFuzFu+8/Q7WrFnjfmwikcDOO++MQYMGIhwOu7xw909bVTZeaDKZxNKlVYjFYgKB3/z613jiiSdw6WWX4fzzz3M/dMmSJfjmm2/l36tWrcI5//gHrrv+OpSUlCISiWD77X+CL7/8EocccgiOO/Y4LF+xQgDDAUWjUdQ3NOCbr7/G9Oem49xzz8Xy5StQX1+H7t274yc/4Wu/wogRI/DOO2/jkksuRbt2ZbjhhhtRV1eHMWPGCJReeeUVlJWV4fPPP8f//u/ZOOKII91F999IfN8JEx7AO2+/LddIaC5fvhwPP/wwPvjgQ7Rr104+66c/PUR+LpZj3rx5ePSRRzF/wQJ5OPz2t6ega9eumDPnczz00EQMGTJEIM/NyX1RUlIi83/ffffhww9noUf37jj996c7D5HVeOCBB/H111+jQ/v2OOaYY7D9DtsXy1Q2O861a2tw2WWX4fM5c7BFnz6yT7fYYgs01NfLPN56+23o2aNH3mvnzp2Hf/7zn2hsaMDW22wj99bChQtw+umnY/To0XKD+w/es59/Pgdj7xuL6jVrsO222+K4445D9+7d5LSGhgbcfPMtWLlyJf74xz+gvLwC119/HRobkzjwwAMxfPhwUHB46aWX5L7q1KlSXvfpp5/JZ3ffvgcaUO89/AEkoiXoHumGu++8Gz8/9hjZB+GQd138zHfffQ9du3bBgAHbymv94GuThGQ+kRvtf88+G6VlpbjvvrE46cQT8dRTT+GCCy/EJZdc7F4YN+XDDz2MQbsMQm1tHSY9/jiOPfZYxOIxvPjiS7jxxhsETL/61Qm45557MHnyZHz6yScCnP79+6NHz56444478Oqrr+D666/HG6+/gfr6emy33XYoa9dOYLOmuloW8pxz/oFhw4Zh7dq1MlEc8MQHH8Qbb76JxYsXY+Q++2CvvfbCSb/+NTp0yH+SZLM5TJ8+Dffec6+MY9HiRQKk8847H7NnzcLv//B7ueFuvOFGHP+r43HKKacUzU101VX/ko1KafTGG2/EsKFDZVPeeNNNWLxoEfbYcw9ceOFFeOWVl+Vpedppp2LixIkYO3Yczj77bFnzZColgLr//nGYPPkpnHHGGXj2mWdkja659tq8jVg0E+sMNJVK48EHH8SFF14o87nTTjvhm2++kb/+6YwzZF8T8ubgnB133C9w2GGHYtCgQfjqq69RXl4u5/Aeuuaaq9G5c+e8aVy5chX+9re/YsA2AzBi990xY8YM7L333th///1EAOADZ9ITkzB79keYOPFB1NTU4swzzsCpp52GBQsWyIP8nnvuRUkigV+dcALi8Zi8/6uvzsSOO+6I67+9CYvqFjjCRAiRcBR7dtsTcx/7GrPen4Wr774OlYlytIuW5V0XH/hfffWV3LeFEF0vID333PM44IADEA6FsHzFcpx4QvNAIkwWLlwkk7Fs2XIc/8tf4oknn0RZWSkOO+xwXHHF5YjHEzjhhBPw9ttvCUxO/d2p+NnPf44DDzwAs2bNxsUXXYRXHCAtWrRYztmqf3/88vhfCtQee/RRXH3N1fL0XrZsGc4//wIMHjwYHTp0wJNPPIGttt4aVVVVGDVqFF54YQZuvfU2obL/4CKfccaZAqy//vWv+PLLL8DP4hP8v08/jb5b9pXTOXl8alHULJaDUi4lzI4dOwqgc7ksTj/tdHmcPTBhAhqTjbjooovkJqLUtN9+/w+jRo3Gz3/+c5xxxp/w3nvvYb/99senn37iiuZcqwkTxmPG8zNwz733FMtUNjvO6uo1+Mtf/oKxY8eitKQEv/jlL/H8c8/h22+/xdChQ/H4pMdFYjLHG2+8ifPPOw/PPPusPMAprT/99NP429/+htNOOw07bL89/nb23+Q1Rk175513cdVVV+Kss/6K2bNniXYxcOBAVFRUyOfwgXLBBefjmGOOxfjx98t7jh49Rh48fL/hI4bj9tvvwC233Cz3lXnfl19+BbvuOhhnffi3vLFtV749usypxN//8L844qgjcegRh2L40N3QpXP+fbd69Wp88smnIpQMH75b3nusE0i1tbUyGOq199xzt9z8B+x/AELhMFa0AqSvv/5GnogU+U45+WQ8OHGiSB+/+MUvcOWVV4K6JIFE8f/kk0/BZ59+KtLPbrvthuOP/yVuuvEmF0gfzf4INbU16NWrN7baaivRoSlRHf2zn2H33Udg8OBdRcX68MMPZdJvu43w6Sq660+22w5r1q7B3XffLb8zB6Uj/u6TTz7BmWeegd2G7YYvvvxCYEgp8LXXX8eaNdV47rnnsGjRInTo0BEnnngiwmGjKQf/fkqnM2KrOPXUU/Hoo49g++13EKnmX//6l0isBJLfRtFvy364/obrcdjhh2PF8hXyAHnzrbdERed53377Dc4951ycfMopArBiPubPn4+TTvo1PvzgA1F9+/XvL9LkvLlz0a9fPzzw4ANiKjDHE088KQ/Ja6+7Dmf95S+46667UFlZKYCiNLV48RK88cbrIjWZNXnhhRdx/vnnC2iG7LorXnzxRdFmKFTcfvvtaGxsxP/8z//IPUcgUeqhOYSw4jX87ne/E02lfft2IkB07txJLkeBtCvO+vCv7vW1j7bHER2PwL//91+Y8fzzaGxswMGHHILbbrsdvXr1zFvq1aur5UHF++roo49uGUgcyLJlS8WQTHiQlLwJ//v0f3HRxRdjzz33aBVING7dftttuOfue0S0pD2IN/VBBx0k9qGXX3oJ940d6wLpxRdfAJ8WhBf1YEo7pOZ1117nAunjjz4G4UiVjhNx9dVXg5T99a9/LYMeNmwoPvjgA0yc+BD69OmDRx5+GH379hVbEPVggur2O27PAxJF0uHDR8gThlLAX886C/eNvU8+4/TTf4/nn38esVhUvj/7zLPy/ry5aCQvBgM3YcQNfMvNN8uTfO999nY3jh9InMdFCxdhyNAhMp+///3p8oCZM+czjBg+Ah9/8gl69+4F3oCXXfZP7LLLLjj55N8gkSgpinlsCbrc56eddjpemDFD1Ck+uGkmICT4UH3s8ccF5Ob46KOP8bvf/hZPPPkE/vOf/+CBCQ+gorISM2Y8D0pCdCoNHryLnG6ARKmK99UTT0xCjx49cfPNNwvwzjn3XBx91FE49LDD5AF/1lln4bLLLsWRRx4l9z3vtRtuuAE77LCDqNd0PtF0cdddd8rfmwPS4M5DsTX6YeEnC/DU+Mlyv1x/xw3Yf8z+SITjTYBEQYDvuddee65bQnrhhRfw00N+ikRJCb766ksfkC7CnnvuqUAKhbBi5YoWVTYSdsWKlbIRaZA++Te/wcSHHhKVbc6cOdh554FCYUpIf/nLn8Ur9sXnn6NTp07y5OUCTZ0yBS++9CKuuvIqzJ03F/PnLxAb0N///nf53BNOPFFEz9/97rcIhyPirZgwfgK2GTAAs2fPFpHyiy++FIMrbxrq2eXlHd3BU9W444475SlDA91NN96If/7f/+FnP/sZzjzzTIHUpZdeKpPGp8iOO+6AK664omge6m+99Rb+/a9/49jjjsPIkfvIA4RiO9feAIkiPw2eL7/8kqzLlVdcKfC/48475Mk4bepUzHhhhqjvv//977HH7rvjVyf8St6n0N5RNBPrDJTeZUry5/zjHNTU1OQNn7bLa665RubcHPSunfWXs9C+QwdRi2tra2TfL5g/XwBy4kknygPff9CGyofrH/7wB+y99164+KKLZb///g9/EKjRwUBt59prrxW7Hx0XXJtp06bjvffexZln/llsXMN2G4Y7b78DY8eNk3v6lVdeFS/ZhZ9egrp0rXjYSiOliEcSOLTXT/H3o/6GX576K2y93zbYs8fuqIiX510XbZNU83fZZVCe550nNVHZpk6dhoMPOkgulBRXCelpkZD22GMPHHiAAomesZaM2v5PX7p0KY468ihMnTZNvGHmeP/99+X311x7jdz0eqg69NlnnwmVqStfddVV4lWgl2DrrbfG3Llz0b9fP/zy+OPlJjjvvHOx/fbb4+yz/xeTJk0Sqe6II44QunOhef6AAQPEIG6McvoUybmfS4/S8N2GY87nc1BRUQnaT44//ni8/tprYv84/le/kqcLJaZiOY495lg89thjssm53kcceaSouHyo+CUkrh2/eB6fpvRmvvrqq+JdmzJlijyBL7zwAnmw8H04n7169xYvazFImi3tF5oMqHZNGD8er86ciVw2K/NDNW3I0KG47rprmxh8KbVSXaNTh3amr77+Whzut9xyi0hVhQclJT4w+OCvq63F7rvvjltvu1W0CH+4zS67DMYDDzyAnXfeCfX1DSIxmYfw00//F3/6059E25k06XG5xvfee1/UwEjPKD5Z/RGyTqxASbQE4fkRvP38W/jVGScgjTS26tAPIee+NpLbZ5/NEUFh4MCmNtkmQPr0009xwQUXorKyQrwrfNJxY5177jno1q0bLrjgAnEP3nTTTbjjjtvxzDOqw44c2XzcBGl45hlnylPTxCHxwgidP/7xjxjYjKG4ek01MukMxt0/zp1jThhF027duuLPf/6zPD2eeuppuQn2228/3HTTjfjNb34j3j/q0rU1tQId/tezR0+cd9552LmZCTAfUBhrxddSfaXhTZ/mxaGq+Td1c0lF64IIz89k0uLI4P7xe4n8MUzy6CkeU1yzTOL+YmgM7ylK6FRxGVfEhyclfMKhOTd+Op0W+wtjmLp16y6Q4UOipUPXJCM2X9pQC9+zudeZdTdrxM/k60zcECUy2hbL2pUhHo+LjkjotO/YAQ31DSKF8d5p7mBIAe9ZmlL8Aoo5d728bN9FOuBk0HjVu3fvvMmgCEo7kN/QbN6f9KRXzS/W89+cGBqXo9GInMr3NhPMvzE+yhx8AtEzJPFNzpOZ3+1hZ8DOwPefAbl/qyk4pN03o5BAUwfvVUKn6RGSe5cCTUvaxkYH0vcfun0HOwN2BoplBiyQimWl7TjtDGwGM2CBtBkskr1EOwPFMgMWSMWy0nacdgY2gxmwQNoMFsleop2BoM5AYTUCC6SgrrQdl52BTXwG6GVnNkWXLl1RUaHBkxZIm/ii2cuzMxDUGWD6CGPWGPqzg1OOxgIpqKttx2VnYBOfAZY9YeA04w1ZRNFKSJv4gtnLszMQ5BmwQAry6tqx2RnYzGbAAmkzWzB7uXYGgjwDFkhBXl07NjsDm9kM/KBAYnIra7awI4JNat3Mdoq93E1uBlhX7JFHHpZytaFQeJOolvB9u8n8IEDiRTLDnl0UWFaWtYmaq3uyya24vSA7A5voDLDe1LhxLCN9j9Q+YqlZ8Uj9AMUrHnvscSlHy4MF4Q4++GB07NhB/v3RRx9h1qxZ8jPve1Mjm4062nL8YEDSovvnS3G0G264Xoqj2cPOgJ2B7zYDrHjK6py8+ffff39ccsklP1ixwIMPPkSquLK2Fcv73HrrLVJKiAe7phCUFECqq6ulNtI//vEPHHTQgW0a6EYBUmFhMxbWZ+E1ls8855xzsO++Y6zK1qblsSfZGfBmQDWNrNT8YtXG6667ToqasTAbmyuwww4lEtN0Yn0bQrZ1rg866GAcc8zPpfhhcwdrgLO320MPPSRVQ1nBlVJUW46NAiTzwaQkS8GynxerQbKO72GHHZZXNrYtF2nPsTNQzDPAaows6E+Jg5rGwoULpcsO1TSWkmVvQAYSEkgs7M+f2Q2Ikc4E1IY+WgISAchrZUcitmMihNjbkC2wflQgGTKznxm7gbAfFzsd8KISifxuAxt6suz72RkI2gywoy1rlrM1POtWs48a65OzczJrx7M34muvvSZVWHmvsSj/SSedKDXgC4v8b4i5aQlIlNxuueVWuU42HWBzjKOOOgp/+tP//PhA4sWxnRAniDrkAQfsv1FovSEm2L6HnYFNfQZoM7r88iukgwubXLDDK+03VM9o4GYhfjadYBOGI444XAryE0wb4ygEEgWQbDYjwgfr6bMVGXstsiTtk08+KW2uflSjNmvrnnPOuZg5cyZOPvlknHTSSVZN2xg7w75n0cwAb/q5c7/FP//5T7Dh6r///W/pR8iDTRQeeeRR3Hnnndhnn32kmSPvQR79+m25weeoOQnp+ednCJDYZv3UU3/nSmbra8faKDYkthq68cabMHXqVBxyyCHS5dTf/2yDz5B9QzsDAZ4B/039+utvSEsi9gk87rhjpYkkbbXXXnud2JXGjx+PcePGSbswxvo9++wzG3xmmgMS28qzbx9b0EcibJOlH7tJAIkXUVdXK22AH330MemL9o9//F1EzPW9wA0+m/YN7QxsxjNAexFd/Ow/yLpBb775hthpvvrqK5GSpk2binnz5qOqaom06RoxYvgGH21rXjbzgTTbjB07DnvssXuzPeKau7CNIiEZMjY01OPWW2+TYMi9994bl156SZOulBt8tuwb2hkI8Azcfvsd0kySrYXo0WKbIbYIY7wP2ww9+ugjYjuiIZxSyhZbbLHBZ6OtQKLaeNhhh//4Rm0DJH5nqggnkcatfffdV/q8sxGePewM2BlY/xn429/OxjvvvCOG4sMPPwxDhw7DU09NllbXzIQ4//zzxMbE+40qGyWmDX1slkDyTwL1y4kTH5LWvLvvPkJaXJtQ8w09Wfb97AwEdQYocdx99z0YMGAbDB68Kzp1qpSh0su2cOEicf2zEzTjkxYvXiQq21577bnBp+OAAw5E3759sXMzHab9H0bP25NPTsbZZ//tx3X7NzcDDQ2NErl57733SttruibtEZwZYHty06/dSMiFeVXWfvj91pvGaxqxly5dJtHZhQdtNqlUEiUlXhvttqZstPXKuIbHHnssmH3RlgR5Bmbyfv9//2/fNn3ERrMhmU/39wSnrvvBBx9gyJAhNiapTcuzOZ3ENuXqVTGpC/6r583kASn0gySBbk6z15ZrNffSlClTcO211zYBgmkRb96LwJgy5dm2vPVGO2d9H0IbHUgbbaT2jTeZGeCm49OZNwTVBEpGKh3xfyEXUPwdS9DwPEKrLU/YTWaQm8iFcIpXrFguKVltOUysUlvO3dDnrC+M+PkWSBt6FYrs/QiXZDItdgwPMASTHqzTE40y4dOr1+NBadOo4VNkS7ZJD9cCaZNenk3/4lKpNJLJBkSiUbEhETaUlvSgJKQwoi3B5FVRUjI1sgixH6KGz6Y/k/YKrYRk98D3mgFKRw2NDchm0wKdcCiEXDqHTDaHLLLyHTlKSSGBEQNj+b1QkrKq2/dahkC92EpIgVrOH3Yw6XQGyVQjs6kc9SyEkAOkVDaDTDaLXFarhRoJyUCJapwF0Q+7XpvDp1kgbQ6rtAleI1UuxsWk00n2Ohb7dYjSUAYiGaWyaaRSGRBaVOEIH0pRjChmdDGrDUajYcfwvQkO0F7SjzIDFkg/yrQH40MZ85LOaFY5YRQWG1IW6WxWgZRMI9mYcj1wRlIikNjogVCKRAgle9gZ0BmwQLI74TvNACWkdKZRSl8IirL8P5DJ5ZDOpD0JKUlJiZJUWr54UEpioTFCiXCyUPpOSxDIF1kgBXJZN/6gRGVLN0iN51AoglBWI7Uz2QzSjBgmlNIZpCklJZMCJX6nBEU7EmHUoWN7lJa0Qyy24cusbvwZsJ+wMWbAAmljzGqRvGcymUIOtA85KhsDJEVCyiBJIKXSSDUqiGhHMt/paRMgdeiAsrKyH6xbRpEsy2Y9TAukzXr5ftyLZ0BkDmmEQjm1IQmQqMpl0JimmpYRIFE6Ml9U2wgkwohfTAaNx2M/7kDsp28yM/Dhh7OwcuVKaVRgejeGspoDYA87A+ucAUpI2VwG4XBbgUT1rdFV2crLywVIVOFscKTdbJwB9plbscICye6G7zADhIuqbGFXQkpTZUunRWUrlJAIMHrmotEYOnRoL0XGVGWzQPoO0x/Il8yaNRsrVqxA165dsNNOO8kYrYQUyKXe0IPKSVBkLpdBCEwbUZWNAZEEkn73VDaFkX5RRaOXjUBSCSkqMUr2sDOwZEkV5s+fjz59+qBHj+4WSHZLtHUGDJAcL5tjQzJASudYm8cPpCQIJcLKAImGbbUhxfOSb9t6Bfa8YM5AYZUAKyEFc503+KiSqSRyuTTgqGw0bGczWaQYc5TLIJ2iZ029bJSMGhvpbSOQNA6JX1TZ+G8bi7TBlycwb2iBFJil3LgDUbd/Gjm6/amyZVlPlZKTAokSEiEkNqVk0gFSxpWQLJA27voE5d0tkIKykht5HIQM8/pz9LIxnY01kbIhJMWGRKN2ViCkQZFePJIGRmqkNtNHbLT2Rl6ozfztLZA28wX8oS7fAEnEI+mnnEMuSy+bRmpLgKQTGGkitSktxeJxdHACI6mu2Zy2H2rFNs/PsUDaPNftB79q18sWYupHTsvTZrKat+Z42ygZsTC9AKkxlZc6YnLZaNhurg73Dz4g+4Gb5AxYIG2Sy7LpXVQqTbc/DUfqsmeeGo3aGQdIqTQhRNsRgcTMf5a6zSAWi0scEm1IhBElJAukTW99N5UrskDaVFZiE78OP5AY3E8ggRISk2spITkJtQKkZBqNjSkBmAESPWyEEm1IFkib+GL/iJdngfQjTv7m9NFaLTKLHN1sjoSEtKpsBBIlJKpqbPEstZGSrI2URSJBCamDlZA2p8X+Ea/VAulHnPzN56NzSKUZh1QIJCdCmwXaXHe/SkiFQPIHRto4pM1n5X/oK7VA+qFnfDP8PKpnmSyrRVJV07rZ9LBRZZPAyCZAotufNqScBELShuQvP2JTRzbDTfADXbIF0g800ZvzxxggMQ6JsUcs6E/YkE7i9pea2hp7ZGxINGznslnEnRK2BBLbPicSMZvLtjlvho187RZIG3mCg/D2lIgyGS3QhmxYCrARUvy9cfsnmUxrqkUyHimVEimqJJFAu/btJTDSlB+JRLTLrT3sDBTOgAWS3ROtzoACiQXaCKSQgEgkoJwatTPgvz0gpaWhJL1sQCJOIGkemynQZlW2Vqe8aE+wQCrapV/3wKVsn5O3JjFHNB6FQshmMg6IMsg5AZFZAZOWrU2zeiTz29jRNgdR2crKNAaJX/nNI/UabME2uwnNDFggFeleyK8TqkVDTctraW8knUPUdc+jrF0ZIuGIIyllVW1zAiNVgmKCrbZB8ncdSSRKUOoAiXltUujNqVGqmf8RhMJsGaBttgvLURTp8hTtsC2QinTpPSDlRLJZu7YWNTX1EkekEdkZCWKsqKgQySYSjYgxOpejKsYW2llk03S5adS2gZDfvsSfCaSEGLMTIh3V1tbKF43fBJS05Q6H5e+lpSWIxxk4GbZSU5HuSwukIl14Aqm+vgGLF1ehrrZOASASCltha3oIW2BT3erYsYMAQyQYZKS2Nj1o5JbktImERCM3JSeqd2y3HUI0FkUsGkM0Ghf48LyPPvpIJKkePXpIh1vzZcDE8wycKD3Zo7hmwAKpuNbbHS1B8sILL+K1mW9iwIBt0a1bV1RUtkckoiVmKc2oRJRDSUlCOkOw+mOOsUhiR8ohy3gk0fMk+V++U1JSCSskqlg8FhMYES78zJqataipqRHoEIDRSFSgxM8jAPUzIaofQwWsfam4NqgFUnGttztaguTOO+9BfV0S++47BiUlcbRrzxKzCVHBFBBRVFdX44MP3seiRYuwevVqyU3r1KkzOnXqJJKTC65sSACVYcNIet6YTpJKgi5+QoXBkV26dEVlZaXYowgi5rQRRsZ2xddRZayqqkL37j1QWVlhgVRk+9MCqcgW3AyXqtUDDzyIstIOGDFiOF56+SXssstAAYax6TAZlsAgOAiXefPmY84XX+L111/H1ClTsWLZSpSUlIn0E0/EEItTPWMTAEImi2226Y8DDjgAO+64A3r16ony8gqVlHKsFJDBjBkvCOgGDRqEvn37YunSpSIVrVmzBr169UKnTpXy+fYonhmwQCqetc4bKdWnCRMeREV5JUbsPgL//e9/sdtuQwVIAph4XGKH1I7jxAAgh2Qmg1dfeRl//stZiCAmNiJRyeIRAZLYhJiAm8th0KAdcfnll4vEpYZqhQulM/788ccf44knnhAgjRw5EgsXLhTVcO3atejerRsqO3WylQGKbH9aIBXZghv3Pr+PHz8B5eWV2G233TBlyhQMGzZEVDEDpHZUraIEkgZDEiwE0pOTJuH8Cy9EWUkZYpE4orEIIjRgm44iuRDCoRC6d++Cu+66U17H9zQ2KTPls2fPxuTJkzFw4ECMGjUKCxYsEK9efX09unTpIv26rIRUXBvUAqm41jvPhjRu3AR0quyMYbsNw7PPPoPhw3crUNnY2DHqxgZJ8GMmg0mPP4YLL7oIZaXtREWjlBRxjNfiLYMCib227rjjdvG6EUj8ksRcfiGHjwyQBg3EqJGjXSA1NNSjU+fO6Na1m+hQLiIAACAASURBVLUhFdn+tEAqsgU3w6XKRgmpc+euGDJkSB6QCA7WMaLKppHV+ip6vhrTGTz66KO4+OKLUVbWXtQ1YwDXrrQhARJfssUWW+C2225FNptuAiSqgbM/muVKSKNHjpGmgZSQGhobRXXr2rWrBVKR7U8LpCJbcDNcSin33z8B3bv3xC677IJnn30WI0bshvLycpV6YlEpqsbv5qAXzADpkksuQWkpgRUTe5O+xsnkpwSUyYqhWoGUcV36xoZkgPTkk09i5513xqiRY7BwwQKR0Agkqo7dulkJqdi2pwVSsa24kyJCqYdA6tVrC+mrPn36dAwduqsAwcQEUULyA4kJtY3ptEhIl156qXjYCCE/kDidNGpTJevbhxLSLWLgpipnAh0lLw7A7I8+BIFEG9LIkaOxcMFCVPokJAuk4tucFkjFt+buiMePfwB9+/bDT37yE0ydOlWA5Bm1Y47K5kVLK5CyePjhh3HZZZfJ3wtVNnWjMb4ojD59e+H2WxVIJviRf1Yg5TBr9od5KtuChQtFQmNaSReqbFZCKrrdaYFUdEvuDfiBByZiyy37Y8CAAZg2bSqGDPEkJEZla/0iT2UzQHrkkYdx6aXrAJJjReq9RQ/cefttLQKJNiQjIY0eta8YtQmkVDKFisoKdOveHWEbhlRUO9QCqaiWO3+wDz74EPr12wpbbbWVqGx0+9OorG5/lZAkG9+BglHZVEL6P0dCMvYjjewWN71k84fRq1c33HXnHS0Dabajsg0aBAKJNqSOHTtKpHd5RQW6deuOsKbV2aNIZsACqUgW2j9MU+KDQOrff2v0798f06dPw7BhQ10g0cum9YvoqteaRQRSQ6oBD018BP/8vyvRroxufxOhHRFpyqSCECRMoL3rzjsRymXl9wq3kKuyzZ71oQRGDh48GCNHjXElJLZUUiB1s4GRRbY/LZCKbMH9w5048WEBUr9+/QRIQ4eqhERJx0hIGhiphzSATDdiwoSHcPkVV6FdWXvXu8bgSALJC37MST7aPXff1QKQgI9mf4jHH38cu+66a7NA6t69u3X7F9n+tEAqsgUvBNJWWymQpk1TCanQ7d8ESNk07h83AVde8W8JCzDufgMk//sTKPfdezdymYzrZfMkJGD27A8xqQUgiQ2pmwVSsW1PC6RiW3FnvFTDHnroIRgg0cs2bNiwdUpIjNRuSGVw//3jcNWV/2kWSKqyqZuf6R9j77tHgGRSR8zfeQ5TRx5//DFR2UaPHoMF8+eLqkYbEhNrGRhpj+KaAQuk4lrvvNHShrTNNttIACMlJOa0UUIiTFgDSSO1PZXNAGns2LH497+ubhFI5kMIlPvuvUdUNlOAzQCJ58yaNQuTJk2SwMzRTi6bB6ROkstmj+KaAQuk4lrvAiBNxDbbDFgvIDWmMrjn3ntxzTXXerlsTB9xbEj+ZFgC6d57CCRGaqt9iYfJZ6OERKM2gTRq5Eg1aldUSIoKAzQtkIpvc1ogFd+auyN+8MF8IBmVLT+XLV9CYnLtHXfcgeuvvwFlpTRqa/mR5oBElW3c2HuloWRhtxEGR1JCcr1sLD/iZPuzYwlVNr7eHsU1AxZIxbXezUpIffr0ceKQhonKpukgTSO1Tbb/bbfdhhtvvFGKu7UGpLH33Ssqmx9IlKIoBRkgiYQ0apQLJDYQoITUpUvnIl6d4hy6BVIRrrs/Dok2JGblz5gxQ4zarNhIeNCGxC4g/NkcBki33HILbrrpZpGQCK9YLIFoLOzGIfF8QodpKOPuuw/sBmDqZZu/EUhGZRu8yy4YOWqUm+1PlY5A6ty5UxGuTnEP2QKpSNefUHrkkUfEy0YgPffccwIkRkr7gcSi/yZS2wDppptuwS233IZ2ZUwtYaQ2WxxFHOhoWDdfU1lZjvvHjZVSJCYo0tiYDJCYOrKrBEaOwoL5TB3pKC8u79hRaiLZCrbFtUEtkIprvd3Rsh7SY489LlHahUAyKlthLpsB0g033Izbb7tDmgJEI6yHREmKQNIea1KiNpxDRUVHTLj//jwgmb8LkGZpLtvgXXd1K0ZSZSS0OnboYEvYFuHetEAqwkU3XT7ocu/Xrz969uyJ559/HsOHDxeVTdWwqJOr5k+uzSCdy+Laa2/AnXfcjXbtS5oFkmbzZ9GpcwXG3z9OUm2NhGSAxCL/YkN68knxso0Zo6kjlNB4Lq9D8+psMlsxbVELpGJabd9YKcU8/vgTEqXNDh8EklHZPCBRJYu5r2KDx3Quh2uuvh533XWPWw1AbEgFfdWYYVtR2RETxhNInsrmAsnxsomEJIGRWsKWQOI5Hdq3R4U0HLBAKqYtaoFUTKvtGytVNhbY79Onb57Kli8h5QMpmUwhgxyu/s91uPvu+1yjtynQ5jWXFCsSKis7YPz4sa0Ciblspsi/CcxkWgqN4mzBZI/imQELpOJZa3ekVNl4UDoxQDISkvGyqcrWFEhU2f7972tx373jUFJSIqpdi0Dq1BHj77+vzUBiGyQCiSpbWWmptSEV4d60QCrCRTdDnjz5KfTpsyV69+4tXjZm+xsvG43UbIPkV9koIaWzWVx51X8kwdaEBSiQtNi/icZGKIfOncsxbuzYvMBIv8pGozZtSFTZJA5p4UK3/AkN6lZCKr7NaYFUfGvujvjpp59F795biA2JQGKjSCMhEUjMZWOApDkaG5NSe+3yK/6F++9/QIDk1dSOgSECCiR62bLo3LkS48beB2RzTY3a2ay0QaJhXYA0erQLpGgkghILpKLcmRZIRbjsxss2dep09OjRUySk559XCckPpEIJyQDpsv+7Eg9MmOgatSkhaTySgZcCqVOnCtw/VuOQTOdafjdF/sXL5gBp9JgxAiQTKU4JicGRNg6puDaoBVJxrbeMVm1IOUyb/jy6d+suQHrxxRex666D3Qz+5lQ2A6RLLrtcqkZqRUltf2TUNjFnh/Src5cKKT8SynlA8rfTZqS2kZDoZTNA4nuVlJagU2VlEa5OcQ/ZAqkI198YtWnI7tq1m5SaffXVVyUeyBRda1FlCwEXXXwZHnn4cacvmwGSsSGJPIRQKCdxSAokrY8kTSSdwElTD8lk+xsgMfaIgCPs+LOVkIprg1ogFdd6u6Ol2/+ll15Cp06dxYb08ssvtwlI2VwOF150KSZNmoySklKnIQBVtohk/IubPqeNASo7lbtAKgyMJJCostHTN2jQIAmMpIRENU0kpJISUd+MxFWky1R0w7ZAKrIlJ4ioejU0NOLNN9+UKG1+vfJKG4GEHM6/4BI8MWmySEgaRMlC/2FEoxqRLRISQiiv6AjN9m9q1PZLSAQSJaTFixcLkPh+iUQCHTq0d6UqxjVZaSn4m9UCKcBrbLL6+Z25Y7W1tVi9eg2SjWm2lxUAsLMHvWEzZ84UCYmqEqFiVDbCwYBAbEgh4NzzLsKTk55CmbTaVlUtniCQvO60EUZbl5dj7L1aD0lK2IZCCIVZ4laLtH300UdSD4lAGjlyJKqqqpzOuQRSXLx8RkIKhyNO1LaXvBvgpSvaoVkgBXzpeeMTJKtXr0ZdXZ1IL8iFkc1l0NDQAKaDsBjal19+If3ZaEOincc0itQ6RmoIT6aS9ODj/PMvwuTJ/0UioW5/wkPLj2hyLQ/Cp2N5Oe675x55Mc8zdiStGJnFRx99jMmTqbLtgn322Ueu0TQZoMpG1U1L3maRyWgrJYLSX5Uy4MtXdMOzQArwkvPGZ8H8ZctWIJlMOrAgkEICJLrf6+vrkUhQCgoJnAgBIyFRWmIYAPPJ+F58j2wujHPPvwCPPzpJJKR4LKYR2/EIYtEIwsw9o5dNUkcqRWXLZbPyWZTS+F2knWgYS6uWipRGozrtWDwUXF4yroEh/yavJ9xMQ8oAr12xDs0CKaArT4AQC6tWrRI1rbSkDKEQpZesACOTScvf6f4nJGizoTTE1xFS/LskuXZoL1ITz1m9uhrLlq/C3HnzMWfOHKxYthz1dXVIJhtFFTNF2PheJtJ6220HSHoJf0cVjO+lZU0YSEkjeBjt27d3oKfhAQixWoBeHf+fY6AlCNGsAJYBmJGwV1o3oEtYlMOyQAroshvX/sqVK8GUD6pX2vkDIJd4g/McGrl5EDj8IpCMmmb+TcmEvxcphwjL5gRYmXQG2Yy+hmAzkg1fT9io/cnYfNTlr39T1Y6f7Q8HUIM48ZOVdtwaLkX1jq1z1e7Ez42EGWoQD+jKFfewLJACvP68j5cvXy5Q8Gw4BBLvbiOCEBghhEMaJ2QglE6nREUyapYBEg1K7LNGaUVtQRoEqUXZ+D6ir4l0I3Yf+Qe9bvymIDJgMj+b6G2+lMbwHCMpHUjyA6jiCdicz6FaGRcg2UoAQdu+FkhBW9GC8SxduqyJtCKKkCO5GCM0/81fKZDUiE1jsrH9CJgcGxCL8ItEJWqfIzk5gDJGaNbRpvSkIQARFyZ+iUk+0xjBRZWk2hdFNBZ1k3V5TYQlbVOicoYgdi4LpGBuXAukYK6rOyoCSYun0VumXWUVPipd+Bs4mkhq83cFkhqz05m0GKeNKiWgSmeEXMl0WuClUg0BRXgRVgo2GqJFosrmHOlK1TCCBiKtUU1UyYmfTSmJhutYPI5wRKUjkfCkWFtI0kpikjdnJaSgbV8LpKCtaDMSkrHpuKVBCiQkvx3H/GwkJqpdqXQa7JVGcGSy+l2BREDlBEz8PRUtwoi1twkkSlLyd0eyIoT4XgSTJtgSjk51gBAEMpFoBHHan+IMuIwj6lQbECN4TKsJlCRYw9urQhDwJSyq4VkgBXi5jQ2JxmLj0fIP10hE/J35ux9I/D2BpHFAChx6uVwgGRXOsTXx9wocjRsikNTlnxGgEUIKK31PgsmV1BwpiECitEQg0TMnqlkImsQbj4l3TRJ5rVE7kDvXAimQy6qDIpCWLVOVrRBIhTYk83ejrpnv6n1TNYyHAMmJCSKkzO+MFMRYJoFQJoc07UIEU0YlLAUS/5ZxY5NoN6LixRpIpsBblDFNsagbHsDPkGhwqnBU55xyJwFeuqIdmgVSwJd+2bLlrlfLbztaF5AoknjF9QkjjVtSt3tGpBq/B878nHFUO7EbCXRySNGelE45QFL1TtW9tHQwocmbnjkCyYQJRGIaKW6itQuBZCWk4G5aC6Tgrq2MjEZtkSqcmKDCtAujtvlVNr7Ob2+ihGSApK5+zy7keuEMZMTAnUM2rWpehuqeAyo5N0VVTmGVzqYkLIBAohHbGN5jCcYZsXtuiahs0mjSUdkYWqBBnDYOKYhb1wIpiKvqG1NV1VInFUTVtsKjOSDp7zwPltiDJDhSQwH8KpsfTlTnNDxAPXACICe6mn8TsKU0tknjmpjkq0GaRkKSGCVHZSOQEgQSPW+0g8VjEutkjdrB3bQWSMFdWxmZBySmajTtcdY2IKlEZGKODJD8kdxU0WjQpos/l8mqiibeN3rpTJAlJSR/sKWqfzzE1e+kk/htSPGoRnv7gUQJKWYlpEDuXAukQC6rN6gNByQ1Zpt62MZuZH7n2pGMhOTEKdEYLmEDIj0VAoleNr1WSmQmmpyVA1hBwOS8mdikqFMxQFQ262UL5M61QArksrYEJKOyOY3ZnHgkqkmFbv98lU1tSAY+BISqYJo+4o/mNt42qmdGheN3OZ+Sk09l0xw4AyST6R9GJEo7kdZDMrYvYwfjdwuk4G5aC6Tgrm0zKtv3BxKBQygUAslAyfzeAMn/e9qV/EAy0pZKSPlAKinRigEWSAHfoAXDs0AK+HovWVLVpIljYSnYwmRXLxZJJyeT8SSkloBkjNtGKvIM4SpBMT5JJKWkZ0PyA0mCIR1PIGslJQgkKdLm2ZBMnJKVkIK7aS2Qgru2MrLFi5dICoaJ1ubvmgOSP5p7XUAiRJpT2UwxOLUlecXY/BJSKpV2jdpGtdPrYVKtliYR9TEWEbVM3f5aM0mDO/l3x+1vbUiB3LkWSIFcVtN7jV42lZDyI7HzB21sSE2jtZtKSMbuU6iyGSB5AHLc/k5aiUhHBFJai6z5gyzV0wfJ8mdqSCzOGt0KpGhEE4FN7W61IZWABm57BG8GLJCCt6Z5IzIq24aUkFSNU+AYo7abv+a4/GkE90tHosoxDMAJmJQ0EtqjCCOnXxtVNYYmmAqTAqSoFnZjYKSAVVJI+HtbMTKIW9cCKYir6huTH0iaOOvVQjKnqcrk5bu1ZkPi64yEY4AkOW8Cm5yAJp1JuUm5xsvWBEjZjKaO8EsCIlmCJIS4U/JWgBTTkiQEUDSWQDgSF3WuuZiqgC9lUQzPAingy+wHkgGN36Vvhm8SVwvLjxQatf1SUeHP3wVI0mabkdqUgOIKnxiN2omE86XR2QRSJMr6SBZIQd6yFkhBXl0ABBKNwSZPrCUJybQc8tdGMsZvv5fNHxjp/iwF2Sgh0RunqlgmS5VNDdx+CUlikZwYpnQ2w/ZwLpDYbJIHu+AaozbVNwKU9qWwX2VrJg0m4EtZFMOzQAr4Mi9atNhJyVAPVmtAYsE0TdXQcwslJFNyxJQlkb8TPgZIAiEt2GY8bqyB5Oa5OT+LDakASIUSElU2Y2gXCY5tlqIKq2jEGrWDuHUtkIK4qr4xtQVIPN2obK0BKT/bXyOtFUhOUq3AyCnQ5oYAZLWnm9iZFE6FQJJecI4Nif3djIRkjPGSVmKBFPDdyg5Y/vj9wA+3+AboB5LfhmSW3SS3msRWAokqkpGmVEJyiqo5xmz+zmTv82dm7WsdbVXHFEgaEKnSEb80wZZ2puaB5Bm1WcrW2JDEmO2UJrFACv7+tUAK+Bq3BUhuNr00buRX80BiJr858oDkdMGl9MPgRykzQkA53WpNlLYCSXPcmkhIUcYamRZJarhOOHFIFkgB36S+4VkgBXytWwMSh58fGNk2IGkckilL4sQjpTNItgAkni8gahFIaswW939M2xwxOJLqG+1ZYnQXTxtravP31oYUxK1rgRTEVXXGRIFm8eLFvh5nGvVMCciobNKOyEnNUDCpV6s5lY0SklHx3IJrrJMU0oL9kjzL4Ecp8O9JSMbL1iKQeE0RSkgGSDEpzKZA0p5sCTFq09MWEVjZzrXB3LgWSMFcV3dUCxcu0nZCTl+2QiCZE90C+9FYM0DSIv9+c6NKPFrkP5fTv6m65pSudfLZjGREta1QZTP1uU3qiKmHxGhsMWon4ojENM+NEhFhFAnHRVpiOIDtyxa8zWuBFLw1zRuRAikmUpIatZtGavMFbmJrhBHb6vo356uBuimQtEUSa2y3EUjSAknVvMLkWs1lY5sjTRMxQIrGNQRB00YUSARsPG6BFMSta4EUxFX1jak5IPHPhcX+jXRCo/b6AMl42TS51os98leQpKomElKrQNLkWj+QGCwZioTAUrZGQuK1UkqyR/BmwAIpeGvajITkV9lazmXTttrrByRp+Mgv0IZk1DVjS1JAuUByvGwtSkhOPp0FUsA35TqGZ4EU8LUvtCGpV83rKGKkJaOyGSAZ7xtVvHWpbJo+QiBBs/ndciP+nx0JqcDtX1jC1iT4WiAFfFNaIBXvAhsg+TvXmpQQo7aZbP/vIiF5QPIkJE91a15CMmkkfrUxFMp5nWtjGhhJo7aobFIBwKpsxbCLrYQU8FU2NiR154fFCE0JiTAwEkrTErY0Inv1hkwr7UIvm0RwuxKSAomtslkLSZtDao6b23XEsSH5i7sZKNGobeKhmEjLIv/Sfy2m1SJ5PWEa3KMR8bgxFskewZsBC6TgrWmLXjYFkpag9QPJX75WpST9aouXzQMSm0PSsO3YkaR9tjaOdJNrC4r8E3AukEI5hNkMkjltvmx/U9pWVEr+nUCiUTtmgRTErWuBFMRVbeJlU6O2sR8VetiMhGRSSDwg6RsV2pC81kd+CckHJOnB5hT1dxJs/RUjjYTk9/aFwhDvHr1sLQJJorYtkIK8ZS2QAry6jNResGCBE0ioLakL45AIF3OTa4Ci2mzY2tocmiLieNOcfDZTWsT1suU0oVbVNtqOCCRKSQqtQiCZqgGuHYsqmwMkUw9JOtTGvOTaiNRGYolbTS2xR/BmwAIpeGuaN6J58+YLkGhzaSkwstCGpAZwzxOn5WoVLPlF/jWjX7xsOdbL9oCUzlJKYoPIAs+br1EkL9S1Y5na2ZSAnPIjTYDEaHMauOMJC6SA7lsLpIAurN7s+RKS3y7kH7YfSAgBMSfNxJzTJiBlaSsyRm3msmmqCL+YUqISEtW6/OYA5jPCUUZkOypZi0CiYdsm1wZ4y9p6SEFeXI5NJSRtKeS5+fNHbUCgEhRVokheJHfLQDI2JNZEooTE4v5eUCR/Z2BkXP25jNexxFSfVIkMTmqIZ0MyybWmBRK7ktDTRoM2f2eP4M2AlZCCt6ZNVDYtdlYi9hdICKNGaxt1STxbbvKtuvz9zSRbA5Ixchd2rTVR2m5N7UwGBkj+XDY1otOo7diLHC+bJtGqEVu9bJSiVP3U5Fp7BG0GLJCCtqIF46GElA8k7VxrpCVj1M4Hkhbbb11l8+xK/tw14+o3QHK/O3FIWo873yZF935bgBSOxJAQIFkJKYhb1wIpiKvqG9O6gcRMffWyKZAYe0QwaJxSS0AyPdn8UHE9aY7diEZwU3LEDyZm+2uJEtZQokFcD35mq0CincktP2KBFMSta4EUxFVtAUi84VVdc1GDHLIKggiBpAXSvJpJep5R2cTFT08bINHXtJp7MUm0F6XcOtoGQloFwDFqC6wMkDJA1iuJ2zYgMU5JM/2thBTMjWuBFMx1dUelElKJGLUVSB4EeBKlFU1q9VeKNBISzw2pesXEWJ5PO1BOoSLtsx0phwBiZxFThsQtyCYxSIxJMq/TzySk1htIEcZJxZEoYSVJa0MK4ta1QAriqhZISIQRoUQg+dM1CCcGPfJo165M8s7UwBxCjv5/+b/Ch38zKFNvWhqm6L9R3QgkyWFzvG2EF71u/G6K/2ssk0JpXSqbxk4xuZZeNWvUDvg2dYdngRTQlTYNQhip7ZeQCAKTZEvVbOXKlXj55ZfRtWsXSdvg3zp37ozevXujvLyDwKlqSRXqa+tFGsqFIFHcdMmXlZXJ+QQT4ZJMabpIY2MjVixfjq+//hrJZErTQaIx9OrVy/X2GYi1ZEPi+1NyS8SposWcGCXat2KIJ0qsly2g+9YCKaALa4a1YMFC18vm2ZA8lz+B9OKLL2LY0GHo0rkzGhoa8OVXX6JmbQ12GTwQPXv2xAvTp+OLT75ARddOiCbiWFO9BosXL0LnLl2w//77o6KiEtlcFqnGJNasXYtnp07BB++/jz59+qBXr96Stb9kaRXWrK7G1ltthR132lFBJjZtVQ8LbUgxSkhSGbIpkKQ9klXZArlzLZACuazGGK1dR5j7Rdd/IZCMhDRjxgzsvffe2KL3FvJC2nxmzpwp6t2ee+6O1154GUsWLMJe+45Gpy6d0ZhKYs7nc/Dow49KzNKZZ5wJlgxhcbcbrrsec778HD8/5hjstNNOIk3Ro9aQTGLxooV45qmnMGLECGy9zTbIQQMwBUjhfC+bMVw3AVJUy5Iw698ewZsBC6TgrWneiBYvXqLlOuIKJH/8EX9etWqVqGzDhw8XiYYHpZevv/oKH3/8MUaNHom3Xn0NixcswpgD90Nlt67IZNXCNO2ZZ/HU5Mk4+mc/E8g88/TTmDz5KewzeiQOPPBAqY1tupE0JpMIh0J496038dprM/Hb3/4W2ZBCReogSbiBFxjpBxKDIMXwzlilaByJOCUkC6Qgbl0LpCCuqm9MS5ZUif3GpI74ayERFgZIQ4YMwTbbbOW0Fgrh66+/wqxZs7DvvmPw1sw3sHD+Aux70AGo7NpZvGM0Xs//9ltcddW/cPgRh2Pw4F1x6YUXiwfslyecgC223MIxhmtoQIqpJak0qleswJ133o6DDz4YWw3YVgzlIiGJlBSRwmwhNoZk7zVR2zRSW1p9WyAFfLeyxZ+/DGDgh1s8A6RRm/FGS5cuE1WKQNLUES9Km6766upqvPLKKwKUrbbq7xi8s6KyrVmzBqNGjcRrr76ORfMXYMz+/w/lnSpF0qHnbMp/n8GUqVPw65N+A0pA4+8bi47lFfjDGf+DeCKeF42dZogAO48kU3jq6cno2asndtp5oHjyjITEUIFZsz7E7rvviXbt2znxRuxky4JscQukIti+FkgBX+Rly5ZL9DVtSMYQbFz/BNKaNTUCpO233x69e/VCKt0o0tHcufOw9dZbY/DgwXhu+nNYtrgKe47aB126dUVDXT1mvvoqpk+dhu222w7H/eJ4vPjSC3jyscfRtUs3/OmsMwQy4vJ3UkQk6TaVwpeff4G5c79FKp3E3nvvIzYmXlcuk8W7772HefPm4eTfnqJSk3jZouL6VwmJ1QCsyhbkLWuBFOTVBbBixUoZIW1IhZ4pA6TXX38dnTp1EnUtmayXOtY9e/RC//79BQTTp03HvG++RS4cRiqTxsL58xHKAfuO2Re7DhmCVDqD2bNnYew996Jjh3L8/k9/QElpidtOWwMhGRKQxcIFC/H05Cexdm01Bg4chGHDhqK0JIHq1Wvw+huv44ADD0CnLl01oVYkowhiiajU0bZACvhm5Q60KluwF3nVqtViwzFGbUdnU29aKo2amlq88MIMDBo0CNtuu60UWqMLPhyOOsXXgOeeex5Vi5dgr733Rnl5R8yc+Rref+89HHLwwejXfyuJT6qtrcWVl18hQZHHHPdzbL3N1q50RCAxMJIBlQsXLcKKZcswe9YHqF69CjvusD0GDdwZr858TV6z86CBiMYYZxRzbEhRROMRxGM0ajOi3EpIQd6xFkhBXl0AhUAyRm1NcM2grq4OU6dOFSDtuOMOvo4kXjXHadOmYWnVUozZd19UVlZKPNETTzyBBfPn49TTTwPjghgcSZXr3rvuFo/dwYcc7JY0oW0olcpIjNMzzzyDbQcMkJinl1+YzKHTUwAAIABJREFUgepVK9GlS6VIRXvstRcSZaWIRTVXzXgHWWM7Hg9L59pohO2RGHVOe1h+f7mAL2VRDM8CKeDLrECiyhZ33f6EEiOq+Z1AevbZKdhppx2x8847uW20ja+Dr50+fbrEM+27777o1KmzGLS//eZbPDRxoljOf3faqQjHmJwbEkM3obPPPvvI+TwIv8aGFKZOmyr/HjN6jKSiVFevwCsvvICa6lXYdfhwkY4ibH8UJ5TUbiSqpgVSwHepNzwLpIAvdUsSEqUjU2ifhuSOHTuiR48eIiFJLpubg5sTFW3ZsmUYMWI4OrYvd5JrM/jwgw/x1FNPYbsdtsfoMWMQjceQTaXx3nvv4bXXXhPDdvfu3QUqVVVLJR2Fklg4FJFE3AUL5uKLL+YgWbsGybokhgwbiu0ZTFlSIuqatjuKu0BSG5KVkIK8ZS2Qgry6AFavrkYum5Mb3N9vzUhIHL4pYau1kbx+bAZKdP9T3SotLdXAyhzbZqfFdvTFl1/IDHbr3l0Aws/i+6xdu1ZCCvid+Wft27dHSUlCE2+TKcl3e+6F5/CTn2yHyrISvPX6m8imMhix957YcsAAkegSAqUEwrEwEnENnBQgSeUCq7IFcetaIAVxVX1jqq5eIxn94jaX2tXavZYSkiljayKkCSAtzuaVuJWutbksko1JUb3Ma1LJpKhryWSjGMbblbWTGknhUFi7jdBGxcz/FKsCAKlkGln+l8mK5eeuu+7CgQfuL0m9qXQ96tbU4NUZL2NtzVqc8oc/oKxdmdu+yahsFkgB36zWyxbsBSZgKN0YIJlW1UZVM/YdAyT+e/nyZSIJKcAIFy01y9cyqpsSF4FFiaestBTJhkZMfOhhHHn0UQIQxhpR+lpdXS1R26yzRDDlMjlJsGXC7Buvv4E+ffqib9++iEZzSIVyEqk97/Mv8e7b76BD5y449rhjxVgep7vfsSFZIAV7v3J0VkIK+Br7JSRTN7slINF2xHQRwoZQIZSqqqowYMAA+T5nzmcCEoJh0eLF6N6tO/r23gLjx4/HEUcfJQBh4CNLj1DFW7BwIQ474jBth5RKY8qzU9CtezepLDlw4ECEwe6QLGniSGWZHKpXVyOWSKBnb5YqYf81uvvpZVNAhsNMgykFa3BbL1vwNq8FUvDWNG9EBBIBxHy2dQFJpY8w3n//fXTp0kXiiurr60XCGjp0qIQGMHu/9xa9Re1au7ZGDNqHHXQIJj78EA47+kh07NABd91+p9RKGj1qFK677jqccsop6N6zO15/7TV07dIV5RXlci2ma4hGjfNLe67xGulhk+9SpE3/LRIb2zMhgtLSMptcG9B9a4EU0IU1w/IDyWsU6dVDojrmFfmHgGjhwkVSnI22IRqQqcJNmTJF3Pj0xklIQCiEiQ88iMG7DMYrL7+MQ484HIsXLcLXX34lRd923GknLFmyBIsWLcJPf3oIHpv0OI4++mgxZqv9CshlM0BOJR12pBWVki2QJG/NuP0LgBSKoLTEAimo29YCKagr64xLgQTta+YU8Pf3ZFPpyfyNRm01evM1BAthRIA8++yzGDZsmEhPxvs2Ydz92HPPPTD9uedw5FFHYdy4cTjggAPwzTdf45tvvsGRRxyFRx5+GFv33wodKjqi/1ZbaefaHO1SGnag5VAURvzSHmwRH5Bi0lqb/dkiEusUtUAK8J61QArw4nJoa9asdVodKXTEcFjQ4kiL/GsDAHWnaxtuY2tizNC7776LxsYkWKaE53/91dei3o0ZPRKPPvoodtxxR8ydNw9bbLGFqFpTp0zFIYf8FN9+8w3mz5uHww8/HBnkJIk2B5YvyUg5XHOIysiuuY6tyJOQCCRm/GvWfygUs0AK8J61QArw4nJoEoeUg0gehUAywDEhATyfhm3DKwMlGrgbGhoFSqzRXVpSKuVFBu86GIlYDI9PmiQSzyGHHCxeOVYX+Pzzz/HctOdEYlqxcgW22/4nkl4S8rVByvgaoFAKilBCagKkOGLRkAVSwPepGZ4FUsAXmtn+qgppYKSpYa1SkAYxUkUylQD8QDKSkumrxvABns/YI0o0LODP8/k9m01Lj7dM2ulXksuhvq4Bn372GcorKtC5axcJigxJIW3t1Zb1iUjRCAMfVWXjd0pDGqlNFY6/jzoqW1iN2hHbBimIW9cCKYir6hsTgaRGaw2M1MOoZQoYsc84EdoETOEh0dWMzM5k5E+mbba2NHLaJOUySGfTyKZU7JGSI6kM5i9YIKVNKDVJLzbp7gbJ/vfSU9jJxAGSE3fkJtfGnLK2VCudfLmy0jKJb7JH8GbAAil4a5o3ouXLV8jN66lsVMk8IPFk7fihRmU/kIzK5m+TzZ8NlBQwCp8M1FidS2kUuJyTziKV1kx/bSCZLHitXgePPAlJjNhGQrJACvgWzRueBVKAV5tAWbGCQOIN7lfZCoGk0olJrDVTohn/IQGMkZAMkAykJA1FOtjSZM3UkJzEKVH8EbUsk0OS6SNS7kRbbbudax1JzUBRYo8cla05IEkcVTgkKpuVkIK5cS2Qgrmu7qhUQmoZSJR36MFinWyRkBg1zVezJKRj45HcNLrrHZgYCYmgoqGaBm1KQ3whU0eMbUpBxq61fC0lJ82H82BmWnYDMaps0ahEZBM66v7XErb8br54jZJcG40FfOWKc3gWSAFedyMh8SZmCRDPqK0SEmFEuYaefkpI7PrBQ/7qmJJEbSOQ6K53YGKgIp1sRULKIJfmz1r0Tf5uJKQsJSWFEMHGc0x7bWp/JhaJHUUMFFkVoFmVzYnklh5zFkiB3LkWSIFcVh2UAsnzstFWpKRxaMNC/LksGllHOxqTttUmzUQM1k7PtFRDo7xCgESJyKmllMzRciRWbmQlgZa2JLbV5u+ovmXQ6NiQQggjmUmivqFewFhfVyef2VDfIGVGEGWJAYVS906ViDl2L+ayGS+giSi3QAruprVACu7aysiWLyeQjMpm4oxCWkokEkYqm0UynUa8JCFZ+aEwaw/F5Xcs6A9m+VevQfuyMqTqG1HSrgw1a9ciijDWNtYjmU4hwYx+2olSKSAeQzqTRvtQHLlQDsvXVguoCJi19XVi+Ga8EXPkWB2yLFGCKEKobWyQJNpYJIKuHTuiLF6ChNiUtEBbNBaSXLcYa2pbCSmwu9YCKbBLqwMjkOhV0yL/+bWORLjJAclMCpFYDFmnDhLBIK59SkNhYGVtrdQ5yiVTiLcrxdrV1UhEtaFj7doalMUTSDY2IhFPYNHypdLssWOkRFpur001SGmRVGMSNQ31AiZCqb5eARRGCCXRmBRta9euTKSnkmgEFR06IB7WBFsDJInmDscdG5J1+wdx61ogBXFVfWNatkwlJK2pzWqQGiek+WyODYdtqRl/xAaQkjhLO1JI1C+qdGsaGuQ1lILk1QRVMgUanxrqGtC+tBQ1NTViG6IaR1UtlM6KIbq2sV7sS1QH6xoaJGXE1FkKRULy79J4AvFcSCQzgU48jEQ0hrhk/hsgqdE7Eo4iQakqaoEUxK1rgRTEVc0D0mqROrSekBqtvVw24kWTawVQYsYJozGVgpwZiaAxk0IdJSOWpyWIHCgJdAitLL1oKYURy4gwPSSbQ10qiVw6jWiWUlgO6WRSwgN4Hm1RfA1/TxsTGpPo0bmzFGPjtSZKNFpbDNsRz8PGwEga3ktKS10DfMCXr+iGZ4EU8CVftqztQDJQoiQTikWQDgHV9bVeigfTTBBGXW2t5LvFIzH5mWpVfbIBjcx5a2yQtA4BTTaDRCiKVC4r55UlSlFbV+t0PKEtPIsSSkUZoLx9GUriCQHjOoEU0bbg6hG0bZCCtn0tkIK2ogXjaSuQpNZ2OAT61kR6CQGZMMTuQ+8Xf6cOtYyoTqyxTRzU19dJ0f8YS5vkQgIkVoCsSzUiEoqotJRskPbbpYkS8a4ROvS2SZ4aQsil0uhaUSlqnbT9LlH1UiUkJ1LbbRTJekilbghDwJev6IZngRTwJV8fIIkNKaS5abQWEQ4EDL1bdQ31yDI5tiQqHjJ2F4lGIlLYn9/p9mdJWhq3aYGqXlsraSPtSkvF7lRbW4eSRFxARtiw+H+E+HPep4TwiRJIITGKazAn22mHtYKkE8HNEiUlpe18eXkBX8AiG54FUsAXfF1AYpAiVS9/8TaKO6K6iXUpp0GMEgDJhNiUAEuCH5keQmkqmRRphcZpikxSgI1R2Wl66Rj5CFHRTN6bpJkwZkls41kNwmQBOacjCkFk7F0GSCalJMoW3wKk9hZIAd23FkgBXVgzrOaApI4y9baxIkkhkNTyzcw0moEyYDyASE1ikJbQR0kJYQQkY4yYOsKQAVMFgKxy6x4xepuVAliQja+jQTuTFlVOorT1wyQEQOGo9bbddBFHQqKaSGhRuiopsblsQd22FkhBXVmRQUJYvnyVE4ekalDTQ+shaYskJ/teKCExAQKQrKR+aM6al+2vaSCaRkLYGCA556aZcGtSRjICK9MPzvys7ZUo9UQ01EDqNmn1SpPLxtIoCqKIdMZlUKV62azbP4hb1wIpiKsqYzJAYmCk3uBN3f56HgugMVZJ45S8CdGSIUwOCSGdTolXTNSscFhaYWdz2myS6huDHdMp/bsm0iq8NLmWr1UguQBj91v5XVYir/l7c428DsZNUUqKS60mH5DEy2bd/kHdthZIQV1ZKki5kOSy0cjMG9xf5N+HnWaBRPWqsaFRXs921gQHO4aUl1dIxUgCiSCpq6tza3YTXI2NDaijR62kFPUNDQKV1atWoa6+HmVlZZJgy95rbBaweMli1NbUYP6C+dIsoLy83IGPBySRkKTmt1aRVAmpzMYhBXTfWiAFdGHNsJYuXSmGYNbA9qts/uBISkjaZpuRkRrdQynns88+Q1XVMpGMWFObIOrRo7t0I6HUVVFRIZLTt9/OxW677YbKykrpTtK5c2f069cPDz30EEaPHo0PP5yFLl06Sz3u7t2749133sWuQ3bFV199hS233BLV1dXYZputse22Axx1zbMhxeIOkMIemFgPyVQuCPjyFd3wLJACvuRVVStFmogn/CVs86O1KYWI9MRGso7OxgjspVXL8corrzK+EWtrarB48WLssstA6UpLAE2bNh37778/pk+fjoMOOkiksKuvvhoV5RXov1V/vP3222jXrp2A6sADD8Tdd98tXUkWLlwoEtSKlSvxk+22k2jvsrJS7L77iCZ2JBdIklirnVNKyyyQgrptLZCCurLOuNYHSPSsUSXiQZvOxx9/KrWM3n7rXZF4Bg4aiEQihoceelhaYX/xxRfYb7/9RCoicNixdsL48Tj00EMxYcIEkX6+/vpreS8F0QJpxa3NIw/FazNfR3l5R6TSSXm/EkkZ0XIjxrAtKpsxdFsgBXy3gt5Xf6n1wI+36AaoQKLK1pyEpK5/rbet1Ru1prb+noX4586dj/btO0jeWlm7MoELJZy5c+dhxx12lLZFVcuXoWvXruKV499Y1L+qqgo9u/eQErpUyQgY2ogYj8QW3TR0U3Iy3j166lzjdSGQzL+dXDc2rwzbIv+B3MsWSIFcVm9QVVUsYZufXOsfMgHkj0PKL/KvXjZTIXLp0mX49NNP0aFDR/To0QPffjMX2wzYBtVr12LR4kXYbrvt5O+rV69Cr169EQ3xvWMCH/Z047OPrbjZcLJDh3bYaacd3Usx9i2VjDzXv9/LZhoViNvfAimQO9cCKZDLun5ACkv5WkJAq0l6jSIVSMZdz061LP3Rrl17fPrpZ+Jxo0RUU1+L9u3bo3fv3nj55ZdxxBFHYM6cOXhw/AT8+te/xuuvv4599tlHjN2zZn2IJUuq0KtXTwwdOsQXoKmqogVSwDdkK8OzQAr4+ldVLUc4rMXz6U3joXWs+ZPCRyWkCMIs4FaQQe9GX2cymDVrttiE6CmLx0vEC9etWzdEE3EB0NChQ/HEpCfFHsQQgUwyjW/nfivS0M477yxhAh99NAs9e/aU96BqZ0IRzHctU+vZkPLikJx8NolDshJSIHeuBVIgl9UvIS1HOEQgsTC+OPTFRmTaavNMF0iOHck/JXT507XPMIB58+Zh7ty54u5vaEgilWrE6tWrUdG5k9iJKAF9+sln6NN3Swk16NiuA1atZhxTFKtWrUI8zuJqCVHpKFFtuWU/tzaTAZKJOTJGbRsYGfANWjA8C6SAr7dISA6QtIRQVmQgAyQt6s8CbaY3m9e8kVPjAYlF1dISEMnf8WAQJGGTyqYliDJRUiJF+5kywlADZv8Tfjxf7VBsLKnR2hqlreEHakxnlLjas6QDipM+YoEU8A1qgVRcC7x06XKN1I4lpJSHaWXtl5A0KFKBkJ/vpjCRho+Sx6beN00LyUnqCCOvWfbWqHbsLmJy1kgcTT/x3kOduqy5pF1vFUgEpAZm8rurskmfNjVwy5dj7JZGkU7LpuJazeCP1kpIAV9jAokpJJob5uWqmUhtAyE/kAgIDQZRo7YCSXuweUDSf+e103by1Zh2IvltbnKtl2RLkJn+bSa8wA9Cz/XPetpNgcTrZLClJOTaI3AzYIEUuCXVAak6BEn9IJBou1GjttY78qQTlYr8Kluhl43QMd1oDWTMd3+XWpNAmw8klZKMBOVBikm7Cjgepmi/CyQGSMYUSCbbnxKSBVJAN6wzLAukAK8voVRVtVSAJHWoxa2vQPJy2dTVLm20pQQJ4WRS/j0JqVA68rfV9lpjq33IDyQNGcgHkidZOcXgcrm8a5BaSE7pWqaOuNHb4g20ElKAt6yN1A7y4nJsS5YsE/e+UdkKJSSeU2hD8hu8Kdk0JyEZaYiv9wOJvzdqnZGeCEa+h9ibHNXPqHqFqqPpTmu+0+5lirXpdUa0f5tV2QK5da2EFMhl9Qa1ZIlKSNLtlXXQCqSj5mxIfiCZ8rMeXPxeMlW5jNfM1EAyv/PUO09Cov3Ib3v6TkCS5FprQwri1rVACuKq+sa0eHGVAyTWQ9JcNb+65lfT+LOGAIiFyVG1tB62qRRporb98DG/cyUpx6htCryZypIa9e0ZuI0dy3z3G7Q9CcnpOkIvm1PZsqysnfWyBXTfWiAFdGHNsBYtWiw/aitttQ/589X8EpIHJLUhGVXMNVY7FR+Ngdp8hh9IAq4Qa3F7XraWjdpeGRS/DUtjkRwQRRlh7oQCSGXLMCyQgrtpLZCCu7YyspaAZIzU+UDSG99IUEa1MtJQoUeN7+9X5ZqTkMxrjVqX72VrGUgGjjRoa31tttJWo7sFUnA3rQVScNdWXP8sqkZoMClWpZD8bq9+IBmVydiQ1DtGY7RphZTvwpdGSdILwNiF2ImEoZf+OCR9rR9M+m9NYTHwMxKSByJTIdKpHimlbLXutwVScDetBVJw11ZGtnDhIgGSKZovPddyXi6bSdswnjZKIwYSnrs+PzDSDZSEdhwRSSlLT5r+bF6nqpwp9q+xTP4GAH4g8XXN2pAYAuB8mWtkHlwhWAO+jEUzPAukgC61CYxcsGBhHpCMAbm5SG1KJ6bmUKENiV1FtDOSRmcrXJg2onlt/GZy3IwEZGxLhJL3Gq8jSWEIgjGwGzCZLiRujzbHtiSR2gWSXkCXseiGZYEU8CUnkAgISkjGqO13/TdR2agWhdWOZEBikmMNpLyWRgoksUfl2CrJaYvktD/i+aqqaV82TRvJB5K//pK2YvJy2Yxx24CJwGL4AuOQ/J7CgC9hUQ3PAingy81I7fr6BhdICiUv29+obJwGAQA9WhG6/p1utb48NuNd89JI2BJbIUPnGrvTyusyXpNIAyMPYgok8x5GYuN3Sj3+mtqep81LsKV0VFpaEvBVK97hWSAFeO0puNTV1WLlytVuWojfi2YkJWPEJpAojfDL7w3zd501kdby95zGFQlcWlTZPBuSdr/VcAADpEJJR9U1VR39NiVeI6U81uF2O+wGeO2KdWgWSAFf+ZUrV6G2tlYCHc3NbjxafnuSMRirvYZR0GEnDimVp2a5rn8xVmeQEzARMCHkHJVMoeNXzzyVrTAHzlwD39czsKt7Py/zPxYTILE4nF6fPYI4AxZIQVxV35iosrkSCesZuSVrtf6RgUCh292obPktsB2piDaijELGsWm7pUncSG7CilHZVN+cIEnjZfPXVjIgMvm8pqW3uR5jR6LtSO1H7QRM/pbfAV/CohqeBVLAl5udQox9yHjI2AWk0JjtBxJ/NoGTBjDiSaOtSIqyZZBJp5FKqTpmwGZCCsRuJEAy8UhOFQDH1iSSlVNbyQBJJSUt1MYqlPw9q1MSPuxUYozyrFpQUpKwRu2A7lsLpIAurBnW8uUr3NKwBhx0wRNKvOELpSTTEskAw4DI846ZkrTGMO3Zg3iuUdeMVKbSkapv+uXBSO1HIQm+9F6rNbwZa0R7EXuw8XX+EABCybr9g7lxLZCCua4yKgohLMKvElIsryCaMSabbH5/sqwpOWKkFo3GNgZphY4CivFI+nOesVsivOVFEgrAGttiXxKPnMYtiSfPaUpp4p8IQwKotDThSkT+Wtu8Zp5jgRTcTWuBFNy1lZFVV68RCUWz+E2lSB20X9XyYpM0mprSkx78WaUpgoq1sBUqKtkQNLRL+T1xCjCN2DaqobEF0QhO3Uxrd7Mwm6azUFUz18DfmdeZ2Cn/dwuk4G5aC6SArq2J1F6zZq1IMIzvUWlDQeQZk72feQ6rSqpB26hY/NkrYZvJplxQZbMsvq3SkwGcv0yJJ1nR7qS5a+Z9JQ+OWW/KM5GW2DqJ78Tv/ux/hZfGTvHnRIJG7fycvIAuY9ENywIp4EteU1Pn5q4Vxu/4b2ojkRRKSirpOPlqYtRWOInsRCA5diMDOb+x2lPz1PDtV+102jVcwEhi+tleB1ujovk9gfyZ3jbLo2BuXAukYK6r0zUEqK+vzzNc+6UZM3QDJn89bd7w+cZor+OIeZ1nqHYA5fOcCbBcQ7b3d1Pi1oDMP/3GXsTfFaa5+MvsWrd/QDettA30u1OCO86iHBn50NhIW1B+p9pCEPlBYCQZ2nU8acezCdFL5peKmoOTMXD7/1Z4nnkP8xn+azDqWaFkZKQ3hgVYlS2YW9oCKZjr6o7KNGQ0NqXmbmSTOmJK1/LFXm82I+kYT5sCyUhAhdPnl4rMz4XnFkpO+nn5pXU9A7dn7DbXboEU3E1rgRTctZWR0UNGu4zfw1YIpULvmwccDzzGQK0SjddPzdHS8n8nlu6mKpsBk9/O5J/+5mxafljp3+n698YT8OUruuFZIAV0yY1ERAlJVR9jPM6XRPKBkD8ZHmyMJ00rROarX+6/mkhOxpNXaOj2f4rfYmCkIr8H0IOluAfFI2fCAgK6dEU9LAukgC6/AYdJ7WhJElkXkPzgUemmEFh+SSn/j361zEClEFDNTX1LtiFKeQaqhZ1TArqERTksC6SAL3shRFQFWv9Bm/dpiw9EYZQnB7n/zlf5Wr4QY88ycVN+G9N3uf71H7F9xY8xAxZIP8as/0Cf6YfC972JmwNbS8NgyKOnvxWeZWClbb3XdbjSErU1Uda84/uO5wdaAvsx6zkDFkjrOWH29NZngJj5DkJYi29s7GGtf7I9Y3OfAQukzX0F7fXbGQjQDFggBWgx7VDsDGzuM2CBtLmvoL1+OwMBmgELpAAtph2KnYHNfQYskDb3FbTXb2cgQDNggRSgxbRDsTOwuc+ABdLmvoL2+u0MBGgGLJACtJh2KHYGNvcZsEDa3FfQXr+dgQDNgAVSgBbTDsXOwOY+AxZIm/sK2uu3MxCgGbBACtBi2qHYGdjcZ8ACaXNfQXv9dgYCNAMWSAFazA09lMbGFFZX10hX2paOjh3KUFZWKn9mC2wtmdv82Swnwo4h2hRyQ1+tfb8gzIAFUhBWcaOMIYfV1bX48ouFSKZMc8iCD8oBW27ZA716dZYyubW1tWBjStO5pPCy2MqooqJcoGQPOwPNzYAFkt0XLc4A63HX1NRLf7aWjrKyBEpLE/Jn02q7pXMpFcViMelAaw87AxZIdg/YGbAzsEnPgJWQNunlsRdnZ6C4ZsACqbjW247WzsAmPQMWSJv08tiLszNQXDNggVRc621Ha2dgk54BC6RNennsxdkZKK4ZyAOS9N5yAtZ+rLg1cwltbaXTUoucdb2P6THmD84r/Dzj6Dbdw1qbD/fzcjmJw1mfQz7L/cBckx5k63qv5sZi3q6t174+19qmc1tYvLa2M2rr2ss4c803vvTPi5nflpbF7Pv1WzUu2fqtVZvmrshPCtW/+Sr7jOpN4O4ErrI3M+u7UGaj6JuYHdN0m/Ez85sKsiOg3plmo63rs/OiY7jbCu7O1lsR+lb/uwzSvLzwg9z3cq5J/u3/2QDIe6H8lDfnzlw0e3d6J+YPWVfS+TSdR+cam4OTf/7MO8rvQiFdhlbnRFevcB39o3IhsO6ekM4+8Na/+fsyv12kdsGVLpLNjtn9fU7ntqXheJfmnwX9LP0E//+92ySXzSLUmG7LRBU5Zto+/NCyEw51m5LmbVreP6Hv+QRwqJJ/U+jOcLjj3ITe4vs3l94cLV+D/33dIQtXva1nWODB1pscAYDstfzzza/083kJCk6/5JODSafQN/HeIewOTm9U343gQjPUrBTlwtl5Mz+g2rKkOtamt10rLHBvZnc+ww7UWpP0HNEj7zpD3pjdmVkHDMy4zNjNnPulPP/Y/bg1D1KFjf+p4BHKjImhmNlWAVswywXj557Ne2isTSJb3dg6t9uyePYc3YdLjz2A0yw3lXvrm4Vb3wVscVKbeSO5OZ0nlyFAyGmzzA3Gl/CeX4+gXn2b5j6r+QvLiSTQjMzvjr8tE2CQky9VesIT38N78ur1Nf++XAHzJHclD0PuVjasx1bvvX1X1qbt7m9d7V5/a1BqriG2AwjzQHOhvI73ygOSN3nNXLc3qhDC3q71CzfcM74HjffgadM0eDKl+575kpjznELjhPFsAAAgAElEQVR2cQ1C6Zbz/Nbn0+y5jpS79Jj95fHubRrf1LTlfmxpJt0bPU/uanq2s0ndp7jvM13ppq2rZSQQs/GbuX5XCvCreM1JFubDW50Dn/zhnlvYid6RXBwVoyUbk9yUeZ8XEil1XYf/9JaA3FYw6ZB94oyzdG2xielVKtw9FuRP3rrex6+6u9fb3Nz7bHQG2u7DVNbdk5sViM5v1gXWPDHW8Kjgw/3PHd4vqQywpLatO9Oe18YZCBkgNTl/o0hJ/g3jX3g/tJybkmpSONsmA2/+E7iZ3dXkrvVD17HtUE3x3/vy7xYspnmTVSAh+Z7MehpVvbDz3s4t1MLNIfDJs3e0DqR8YaKpbrRunDX3fHAmSwS5ZsDagsxixirfnfGJyuozRm0QIPmUYN015ho5UqMuG5uAnuEq1K0+XIzs48xac+vkbIncmkbkrLrWRsy0/bTQsmP3y+UcPcFV2nwLV2g7aftb+87ME7+cjeP+2W/09uwvsu/WQ11rCtRCUcsHQGM1k89oATzODdn6eL0nsks095429hR+zyIciiCXy7rZ8AKqvGly5AwfV9pqR/KEs/y7Tqa+wPbR4pgofTDxVe5jXZfWpCOfPKI3vvPxnvTiaKiOxLkuJrhSVoGB39sqTR8QLjKdZ5qr8rpM0jVYL0NPoaRtto6ZR87N8nqgId2cabL1LWPPaHEGQsuO2V945Jcrmur+33cGvZverz544rQxSnoSgT5YW/O6eM9ln7bk7j7Xs9KcSG6e5OuyIfme9s3PgCd/eB/h6jn++7rFO6LwhnfVNt8Ntq7ZN+POX7+mko1/3lveDa5fFGFH9dIpaBkjrn3GL1xw8fh6+aavbR1sKuuIHc1cYJOPdcydIrkZ6cfsHceR6ff5ORDUC/Be2+z4W1Pb5KIcIDZmgJV1QHp95c/vex8F//WhZcfu73rZXG2j0E3aJlG3lcnyLbjnmiaAHKeUu3kKpIT1/Gz3yex/nUu+Vp6U/hvPvH6dRt0WNqRry3BuxmYez1ozqKlTzADJBch6jl+nsemL2nrrfBfDdh5AfIOitKWueQcarYyl0I7UmlTjKWs+T6xfQnPWweyJtkqbMn/NLI4RHFGXAlbV56v4wWfFDzJCH5D8T5yCuI31vClavnJDBucN8zxO+Y8oY5As3JTc4HIzr4MtClbfRRdev3mx37BdeBP7wgfa4Ghyhuzcmnkf7bp83KgWIzGYsfjnyxixW5YSms5uwax6QMp7CLS+n9z3MQ8HR51tTbpxZAf9AN/FuB8vXlOFU1vsSOsauxvzJO/ledn8+4HrRd+X7pOco7K2IfagpSnyP2D4uasbkatJtj6h9oz1noE8CclsLNmPzn30XW1IofIKxIfvg1DHCiTfmonMvK+cgDtv6/CJFS7vhPgeoxFu1x65dBKNrzyH3MrlyIXDiPYf4I97cwfHd8gsr0Ju9apm4WSA5Ep8hdNS4GEzgDOn5bveCefWjLvNyB8+ihk5ySjG3gOYUlJBfJPf4MMwiPV4GIQRcmNt/C+TeWijHcm97LaoWkZfM/4AnySqe0jH5y5iq/OoJmh5GEnsV8FTR6QWI2/lP5T4OlUzzYNVRW++j/Eir1PiWpfK5oxB7gUWq1tKdc26+9ebNm14gRq1fX5/T+Xx3WTrcVPIZ0YiSIw8AO2OOxmhdh1Qc8tVaJg5w32A6nXR85RF4pCj0f4XpyAUiSBbV4vqq85D5ss5QGUndL5xfDPqh15hzbhb0Th98jqEMXPRbfGUtaDmuHdna092Rbk7TUbCaDa1wMGTqGyOOuOD13cJjmwCnwKRzlX/2rIhVHzzpJ022H/yJCTzGf6LagvcnNflRe43Z9x27FLGd5bvZfNByh8C4KzH+sA9b6r889mQBpbVtWEm7SnfZQZcCYlrJmKub0M153Vb14dE+vRHZMD2iA34CeI7D0GkUxc5fe3NV6Fx5gvulnM/pX1HVF5xMyKdu8rfcnW1WH3leUh/NQeRvv3R6YpbgGwWmZo1yGUyxhIhN3/do/ej8eWpbQCSc0pLUG3RBW/irM3r10Fl9+lqIJ6f9mHUDHX/e3go9LLpje0FR7o3emsPBL/dZh0w8qt267Ip5dmR2iDVmEXwByC6kl+hpNiK/lsIpGwr2QLu3Do711PXdZ5NKEVefNX63inmmvmWq+uBmhZqjK/v+25G58t+aeOz/fsMyychOX4Lk0vm3wit3RDOFZT+7ASUHf4LkZDkJY6asPbmfyH56vNO0JzjTQmF0e6k01G2/6Gu2iJAuup8AVJsh8EoP/dyZBbNx9prLkamaqFuMNdM0XxKSaH61SSjgCK3kxohm9T/b99MeuqCA6ZWjNuevaQwp84XnCceIDOZigf5t29+RV3JMgbLuTXbMPd+0LgF9kUvbGpo8/+qEEp5Ep7z+hDVrjZ4zZsAzmwAA2G+n3tjtyxxekCi+pl1Va7CTe4atCWMQm1JOo9UXPVq+H9VY/k3qm/mvGYmtaVBupPrrOviGiCzLpx/n9txU36tTx/fiJeZ72VzjA262D4XfBtuCl5jYvdRiO+2F0LRCCK9t0SkR2/ZFWtuuQpJUdm8zR3ZagDKz/8XcskkcmurEe3dF9m6GlRfSSB9jvjuI1H+x78j9dUcrLnpcjkHiQRyjQ1AMlmQu9R0u7pE9N/tPi1Ob451ID8PEuu2Iak0wGvwvciXrOexzI8Ox/DeLDRMcKjjym7j/OcPr+mL2nIb+e+/9bH9CADyh+fZt/0exXWAvVA60vdcBw59hm2dfcdr61yMwN2dFP2bHG2cz7xdxTeqTyHH+KPv+BYb8T7e+G8diQDZzEb3LIqEJKAwEaj+oeUtXHM3b14ymvfKWAxlx/4GZQf/f/auA0yKYuuemZ3N5IyA5JxRJEoSBBWQJIqKGcWcMf7mHEHF8Mz5iYoJRBADOQpIzjlnNu9O+r9zu6u7ZnZmZ5YnQe36ng+Y6amuulV16txQtwbLZ5mvPYv82YYNSWZDcgrSLxuJlG69kT9/FoI5mUjtfo6psj0I/4bVSO4zACWGXwfv2hXwLl+ChCqnAKlpCGZlIO+3n+Bft7LoQdDsP0VcFGZnCFBts/ps99dWA8xXhrmEbUBSTVJgZ09do9oQLmNGcYeuDnNPEIYUaZHHNfMiqFmR2FA0gDoa17+0NbxxJstW8iskxyidKXSuLQqAFM4yYD5o/qGHlBhtOwpPm66uHcpFMNsrcyYez2NcYxXlIVdqGlwVKom2IYUbd0E+XCVK2nAY8COwZyeQnx/zVa6SpeAqVx6BPbuR2KI1gpmZcJcpF/K7QH4efIvmRawrqUcfwO1GwdSJ5i5pNyOh2qnw1KhlGhwMOash8+/ZCd+mdXFDuMGQZO0ZO5HceKOza8swq51TCm9yeNxSGCBlvPYcCmb/YjKkIBKbtETJkXfDVb4CDj9yB1Lad0HaOQMtG5J/wxqkXkD172IEfYa+7vZ4zGC7IAKZR5DxwkPwS0dDlTjjqIbJ8HSjsnxmWMksZc9c/XYN5i6rBSsbc9iNINUHzfgfKoIIy13t7BHOXlleNsUYIyw4w3ZilJjGWBVVbQdYhzgDQvsXe5OLFDIR1wIM8eSpSG/Lt2iecYtNTyxAipEDJTRBiFJ/dWpreiktnIozalsJzKrKZahpe7IR9AeOCyAlNm+DtKtuQELJ0rIevdu3wr9jK1LadbImRCA/FxnPPQL/lg0yNz2tTkcwKwv+dasEPBJq1BIQ8i1bDE+zVki78HL4d21HYsOmyF/yBxIbNoE7PR2upGT4Dx2E/+ABZD/zf0hq2x7uU2oYc89bAN/ypUgfPgLedauR98X7xufmxOSfqQMuRFr/IfAfPqitRsCdmo6CeTOQ/eFbcZNSiyEZL9FO/KsNXb2etoCUFENfzzO8DK6UVMNTlJsbSoOLYEiuxGSkDb8WqT37Inf6z8h6ewzSL74aqX0MQBIv24a1SLvyBqT2OA/BgB95Uycif9lCpHbpieS2neFyJSB3+hRkvTtaTuurnddVtjxcniT49+40QCytBNxlyyFw6IAI1l2uPFzlK8tuE9i3S4BNjkeklYCnQmUgLR2BvTsROHLQmHgJCXCXLoOEytXk2cDBfQjm5kgYQOFTLQqUdLWNIEa7hVFslqTgzPwkbI3K88pPT9d/yFhE3gxt7hXKEqK5+4tU3xTBE7uP2fYYxmhrkmp9New6PH6inTkrRj3cBKLqV1oIgLmNhKnMZgySyrllqWtRjgpFtSGZP6S6djAPLrnFNzaoRh6lYnyamAhXxSoAzRnN2yCpUzfkjv8cpa6/HYeffwyuEiVQ9v4ncfCukSCbSu07CKndeiPn60+RO+k7JPXojfR+Q+BdvQJZY5+DKy0d6VfegOR2nXHksVHwrVwmjUk5fygS27RDxsN3GMwmwY3UgcPgadRc0CCxRi3k/vQdUjp2lbUQCLrgTk6G79ABZNx+jdSROvgSJLQ8DVkP3WnzZJcLKf0ugLtSZWS/82p4Ip6ogggBpPBJpa0io3Etz0BSs9bI/e5zwO9DyoCL4Vu7AgWL51r5jeQ3UQHJhYR6jVD67seE+Rx+9C4EDuwTQNIZEo3aSR26ILFWPQTy8pD/+yQBicSGzYVZJVSoBN/mDTj89D0CYjI9PIlIHTwcyR2748hjdyJ4aD9Sz78YKb36IeOlh5FQqSpSzxmEwIG9cKWXEntV1tsvwZWSgrSBl8JdoTIC2Zlwp6Qid9J4+FYtgaduY6QOvNQAs7R0eNcsk+8IyIWnpLnEZTHrKpuBJoZ6YQCUBUdSSaSaNHVNKXox1oACJLvuqC0selXoYKQ1Lx6GFAJyIa8vLrCZ/Q/F7Yjt1qO1dVXBshGafVCsOCa4RwQmF3AkD8g8fsGQrtJlkT7iZuT9NhkJZcsjsUkLZL/1Mko++iKy3nwZngaNkdKlJzIevA0pAy4UT3VCwybwzpsF7/o1SO11rqEJBPzIeu15JHbpiZQeveGpXAUH77oeOHTAABMLkAgmRsxdYr2GYPI5/45tKP3sWHhXL4fn1NrI+3ki3GXKIqFqdcDjQfaYpw1QG3wpPC3bIOuhO2z67TLAzl2xMnLefjVuDHftHdqLbbAMzsZ4GAZtI6jMMLByQ6KRusTVtyB34ldijE4bcimy3nsF/u1bQ71FkQCJRm0XkHblzUjr1RfeXdtRsHCOdCipaUsk1mmAYIEXefOmIXfqRFBtMwxbas0G4aleByVvGCX6qm/HVhx54SEE9++xJqq7UlWUevB5FMz5HfnTp6Dkjfchf/E85P06ASWuvBXe5YvEluWuUh0lR9yBrE/fgjspCSl9BiH7/VfgP3IIKd3PlYDMrNefRtrlNwE5Wcid/C3clasi/YKrkP35f4y2hbMaTe21D9kani5LvqZHSFczI7v+za0hPOCwKFDSFpLCOQku1DWYYmzQhqrKyFVj8MO9gdGqUgteHR0LcSoqjhiX618xHCZWiy9RoM5AbbuV6eVUsVAxDeVmz6zNImioa4fy5DDtcSucl+cMREqffvDv2QXf8iXCkErcdj+8K5Yi+YyOyFs0HwUTx8NVsjSC+bkoedfD8K1ZidwfvxFSQMBKbNBYAMlVsTJc6ekocfXNyJ04Xuw6npq1kXRaB3hq10PuV5/Av28PfGtXIbFzd6R0742836cgfdDFyJv2MwIH9sNduiw8DRoBPh8KVvyJgqk/GqA25FIk9+iDvF8nGaBmYkhio6bw796JnHdejVtsYUZtM1hPn/hhf08+bwgSW54ub/WtWoq8bz8vbM4sZEN6FgWzfxV8KXnrA0hu38VOC6ovZDNQMPPDN+DbvglBVwKQm4PAjs2AtwAJ1Wui5PX3wFOzDnzbN+PIsw8icNhAelHdXC4kn30+0vucj4I1K+Cp1xhH7hspApTDnuYi8zRqJoB0ePRjSG7YDImNWyLz7RfhysuF54wzUeLia3Fo1AiUuu9p5EwYB++ieUKRS15xC/KWLYB3xs8RBawlurANqCEGUHXqn8cozKMN4ZHauk1MhTNZoBx9XG2VTYc74okrNL7MrCKqyqbaYwUWKpUr9gFZNRmtVpo2IIM0mnBhaUzR0dU47mGMl9juwoDVqN84LKsAPdKRIkKR4KkpnOLnRzJ/yNxH9K4dR3e/kkH6TXcjuUNnZL78NLwL5yKpczekXTrC0DBuuxouic8z5FHy/qcMQPr6U7EhpZw70ACksc8jkJ+PpDN7oOTVNyFv8g/wZWYgbeAwuJMS4fIkwp+TjYL5s5Hz1suG1nDljUjpchbyfv0J2f95RTSk9CtHwlWyDPJ/mQTfts1AZoYFSCl9B8G7frU1NFxvnoqV4V22WFS2eEshG5J1ZkTVYOneAC31SR17IK3vECDBg5wfxok7P5BxODQHcxE2JKpVNGrrLILqlLtsBXErerdtMnaCq24SRCbwZL78GAL7dsJTvylKXH83PBWrwLtxLY48dQ+CeblixHZ5PHAz1KBWPZS4dCRcSUkoWDIXeXOnI7B5gzVoqRddg6RGzZG/YCbyfvwKiY1aILXvUGR/9QEChw8hpVsfpLQ7E4efvAfp196J3AlfwLdupTFI/S6Cd/M65E38Mop89WVu6T7Wuw11rbCtqdCJf4te2A4NA3VjD2uhR0wg0DWRIu1H5isMgmCn7lXxTfGqbqGHpo26FNYWCpGI0C09BMA28If2Tvey2X83AFQvRlv+B7c/z60dju3Jij06xXuC45TU5SyUuu52ZH/1KfK+G4eE6qei1H2PI2/ODOR+9KapRBgqcYn7n4RfA6TkcwciqUFjZFJla9EGqf0Gw5WSBu/6Vch++xVZszRI04Z05OE7DR+wyYYTGjVF6fseQ/6cmcj+4HWgwIvSz7wK+APIHP2U2GmVukyG5GnRBplKZTOHOs1U2YoJSGdb8zOaUVs9QANxUoduSOnSSwy+eb9PhnfedKFzIb6bImxINIxT/7RMvAkJSBsyHKlnnYdAbjaOjHkS/tXLUWLknUhu3xXIz0P2+E/hXb4YyV16ynMEw9xpU5D93hhTnQDcpcoguVsfJDZoChq3aWfyb92EQE6moVKmpyOQmYGESlXgLlkKCdVqwbt2uZybo6oHdwICuTkSXuCpWgN5v05E8pm94F21VIIyXYlJSGp5BnJnTEb+5O+iqmyKrmpbhebeL+S+sclEBDVGRW3HC0aCIdYrjET94SpbuK0p0hJR69nOVW2yoyIAUb3WmkzhcZlW/8xpHANclRUp6rk2xZJsX6S5QIyKC2eRKD64W7LZnwPkKSZSPFD5X56mmaDUfU/At3sHEkqXRcaLjyO5a0+k9DwPgf175N84fMgC+lBAciH53EEmID2HxNZnCFB7Wpwmssl9a4zMy9TzDUDKoEFaqamJiUi94FJZC3Tp53z5MYJZmQKE3rWr4Z09DXm/TDSCik2VjYCU8dDtluOG36SdfwHcFasUnyExIZK1gemT2LoowzyomJIKV/WaAiBkJNlfvI/Ajq1ATk6RXraM155BwezfpfEB0+luLIwgXAmJSAsxahtxSO4aNVHmkdFwp6QIC6Jxmy5KeJIEZGi4ZhS3FRPidiOxZVukDb4M7pKl4S5ZQlyZvr27kP/NZ0i79Dpkf/4O/Ns3i1ei1C0PIn/pQhQsmoPE+k3gXTALAW8+UrqcjYT6TcWmVOKaO+Bdu0yOqLhKl0PJq25HzviP4F3+R6EzdsaC1Jelaci1vEEhJldDy1YBg3oEh8ZoDJ3EhLY42ZHFhHSAMz/UuVlElqSHD5jv021H8bIjmwppURkm41LqWxzdkUhtd9Atf0a/NsTeAqy/GS8xbJ/qjKEWl6bUx5hgoRLz7MyKHSsRs7LiPUCjdomb7hZTQdazD8Ndpz4SatZFateeyP7iQ6T27i/OlsyXnkAwl44dVyhDcrmRfO4AJDVsYqhsXp9MpfRb7kVg93bk/PdDaRBZTGKb9sh46A7D7eJyiWqXeu5AZI1+Cu4qp4iNKvXsfuJYogqXdsGlyHr7VQQ3rRf58oRGUrdeyJ/wtd1JGsebtYb/0IGjsSHJbLEC7gsl+zddpypWKZWHYT1JyPn4DftYgR4s6PEg5dzB4oZkyf7kPyhYNNdsLKeN6QqXeKcEpPYfKga4QG4uMv/zMgJbN0p7PE1bIm3AMGE1YNhBwAfv1k3IHfcB/Du3RtgjjfXLKG+GEWS99oxkBWBAZdrFI5BYsy5yfv4eibXqI6nl6eJ9Q1IySl59O7wrl8C3ZwdSOvdCzsSv4Fs8VyLPU/oMRN6Mn8XQ7S5REtkfjZUwgsglwpI3dx0LgEP0LntZFlrs3BhUcKR6WTyrWHFPMzhSBx6rdXGf/FegqmLTirD7qLQwSlNVidYUEGggodTBopZoaNS2eYwkqs6qoMhkRwJCZjCZmtXWOBi2xnhLMLsArkP0rsWj6MZba+znEtt1RvI55wsoMKuFp3EzlLrtfmT/90MU/DoZ7mrVUeqex5H707fIn/SdtC/x9I4IHj4o8UI88kMAo1bjXbpIvF0pfQcjqcVpyHp/LFL7Dja0hcREBD0eBHNyZMSO3HEt0i67Dr6VS+GdOxMoUwbp198pBCTzuYeFFaUOvhhJ7Toh48HbEczOQsrgS5DafwgCu3bqCYMlTCB/4VzkvPta7A6bT5g2JIUVpiFRuZoNnDLUAD2tT9zVx/MgJ4e5XLUIY2unT/QIQjO6O5iTJdSRaWCLym5LOxLtVPnTf0YwO1Ma4a5QEcmdeyKhYlUE8nIEIH0rlzDiEonNWyOpVTtR2whMDGMI+LxISEpB4umdkNSwqcQh5c+bJgwr9uEus/WW/hSqyFlSUbRUDYa2UGT6azm27d/ElmnIctNtSGEBrEUtMSt4szixSJGYmN6YMCCIyriknXrrjElYZHvVpqmDlvVui+7Z+SjjBSWmGik4/uoavWRk8oGMI8bq8HjgadIC/qWLRCsgqDLwkWDFY1VF5Zqi5NylSiOxQ1fg8EHxbnsaNYU7OSXUMBkE8hfPFzsTnUg0nLtSU+Fp0tKItj540Jh86elIat0WBbOmCRB6mraCu+opltdNzVA6jxhZzvfFuwVogKR2F307tlUGfirzLd6ai1g3No/QKtOMnvpPjd2MvzAXdeQzoyFvU3YTKw2u/tvEJMDvl4BLo5iHZxMSDRe312urSeqJpCQEfaS8xjVNkWUQzo609LuW4BT3VH0KFaa+QJUNxWyivRiLkL+q1dxHbJlEtE+pbSDyQImqY/7OrRKhFXPwQyLMTYaiJF7UDI18pi36hCosTXMuK4JnGrUt9beoM4zhx4L2ZsOVH4jLoRB7qyjuE9a2bIGQ4V20cz3ZNrZYx1lUCl+jDRG3SPnQ+Ebmn+4B1uRieTS1ZImqUmpRVt1mZgtFjuPpfRggGVQoYDqKDYww45HMzBnFnJNGOwud/bFjTBQoGAtPnamzKZkIRthZaCxMrOyDVr0Sw2Ke8rZNC4Vlo2eINEfMOJxpI4CBK9FuI7EhJJSh2EheGEuMT5TXKWoGSZ15FGND0D1j2tSOW/mQkAErDOAo3P4WMpqeLy2q3qDe0aeofupf2YFCAC4MOEIDJDV7nQWEirWayleccgzmeOE6yAO1cf4gnlUXxzMKFmTWCyMy+6SBRuS1FaFyk3HaG3Rkks/30IYkPQ1h0/Zmq15fKO++GYZhJzc057aabeqLGH0vMlLbakYI7dandhySLfSI+n1IpYXd4ebXOisr9PeYr9f2zgivUylObfAyKwynQSG/LXpi2ucCtcZZP1HLJsKeHsXLZmqzCMajMmtGaQvpIlC6olQfXaRWK93aqbE4dqSQ+sPEZR/cjSFHDTat+iL9RM8FFUltUx1Sv1WhDGZmgJhTiPXvzA47hB3zV84DRymBsDikUK+Igg4d3BQhs98Xe3rbObB1MLPPGhm7D/1vyhAZ1ptwMFG4EaXT1txT9CP0tdFFFW2xFQOQjMo1mWjenXA/W+iuGyF+RtWjgbMBNFG6oGVsUPuTGT0YMQRAX6vRRtEAEFtPLTondowBMRVkFX0fK/5aV92KTENivTYsTYySkzgIjFgkPWAu5qFlZd00rzw6yjXm/KwYEijEkDRHqWW7dVevBk+dusZCOIoMDmGEz16yZj4bewnbd2crj55iL4aubKxGKwtglI76tm2Ff8sWI8dyJEKnTVR9cVuPhgNTOAAUyRL0pa0Jy3T/hy4ZuyHRskdaAKQ8Y8XUHBSAKLajhB/PYlTvLpbrP9yDFwbmIdwwmhwto7bd6vgAybaLhchZY6ghm2s8suRw5hQAh45/YGQx1vE/5tFQL5u2OjkO6ux/+rXXIrFVi4iWfCN3iSIF3OX1jAGhaKDbSArjhP1JdMOx4h7a3hrhYd/mzch6+SVtkMyZZwJqeLiQ/FtdGGnRBm22an+VhP9FaK16KhdbU7eT04eaE00eE5Jk0n6ZcVo+dK6pE/RGSlaeNePWb1fAw5TSBjOGxmiqyUbp4rUuxjTscvD5rSvLFKFEIlO9aH5MPuc1jt+w/cJ4mRWU2SRVVLk/YCTAV1PB45aQDtumAKlDzKWm507ayXoSjKM01gltHtVQsVlsRyLzPmq80x8wUxprXhaOS5LHekhEwvawLs0RIifbFBGn7MyLMWVuBui0CEraZHmfAkx62Q7kIui3s3/Gg2XSB7URaXFRjOawbDXa8FobtymLyAwybPL9rxaUkwzK5Cptg40oXcDoofqEf5a4/jp4mjWzDLzW3LFUCdOCL8F+9u8jD5qu9KlQwsJSDQT8yM/JQmqJ0pbIOLg8hezmhQBMTuX3ISEx2Wq5etC3dSsyX3zeThMVZpi2Fl6kwdAWd3iye+vxIhiSfaLfUnht0ZotDSVoIRQixINnjYGeGynBLZHqkrirEHMzz/RxIfp9cPlMT6LZ3mBqigUq0hSm0sgLO8HudsOVmhxqzOd5qbwCA1wUECYZXnAFyt8AACAASURBVEnLxl/glWMFsgj5XHISwLZaTiEXgnl5tk3ATEtC97aRhMwEMwKD1qZgkkcykOqFQX5yPlEvngR5p8XA+BdfAMF8o38qm6S0ifVJnfaGYM1+gp3Ph6ApO8FbyvMoD9eqoxi22quvtehoELKtmw4d3fNpL4rjbm8/phCmqWz2zZ7hdqL0669DYvPm0hC/34elv/6I3KwjSEkvAU9SErIOGfEJ5avVRJ1W7eBJTII3PxeepGS4GduTny+76bqFM5BWuiz2blmPrAP7kJuVKVMiMTUN7ftfLNc4c0NxexKQm3EEa+b9jo4DL7MEkHFgLzb+OR/NOp+NTcsWYPuaZWjfbxhSGaekFf/Wrch48QVtvcZgSAqholGzED0jRuyDvtMrqDQB3+QXBstQ+m/Y8BZy/SsGwh8zgE3Yi0IiHZGMiW54Rk32w4XEdL/sV0ICgilJWuwG2VFAvteLLH4ubB3Eufjz7XAIYTRJSbb6zvoLfAbA8dVkHcke6+CrMBQ+k5tvYoDZboIfD3e6GI1tquSsg+CmGHpyMpBgPK+2ugDbYr5Ltd1FYBPZ2Dgd9PoQLPBZXkxXsscAIgXQYYBk1UWsLvAh6PXazOxIAZCZH0cMmi1NRlkz0RpPGxRs3IDEeg2MfuTmomDBHCTUrC1HmnRw4ZEQ/9498DRuisDmjRKwmFCvIQK7diCYcbjwBZbm3DSzLNrXtB9T2Dh2lUe0ISljkTrmkX79tRYgkaHs3LAKedkZ2LxsIbz5BUhKTUaF6nWRsX8P2pw9CMtnTMKmPxeg99V34Mj+3fj907fRcdBlqFDjVHx0/0i07z8MLc/qhx3rVmDt/BnoNuw6JKeXwKeP3ijglZJeEvVO64iFE75GuWqnIr1cWfQdeT82LJ6D/Ts2o1WPfvhh7JOoeGptVDy1Lpp27BkSq0hAynzxBW1mhAVRhQNMuHzDXftq0PXA5aJYUkgqEs5hM9ukrCvjyEi4catoYzEBxY0gF6d5fVLk1yurtpkYjWDDnZ4PexIQJKvR1FMXFyzZhlYIELKwjaYa6hwBgCxJ4Z/HI0BiKPVcvUG4CCIEHX7gISAlmqq8+SMyDwV+Sg4CSEmh5+0Y72WyE1GPU1iPpsaSJZP1yLs0YztBNIxJBcm0AgHI0agUMi0DsATYzDGIeuceXeB8j8n6JJ82E7QpghPHmkyoWQeeNu2QUKUqfJs3wV2yJAr+XAT4ChDYuR2JLU+TqGeenndXOxUudwIKZv0C/769ksLZt2i+ZINM7n+BkRpk1jTJ46WkkTLsSrjLlkfBvJnw/TEXSWf3hadxC/i3bUb+15+FMGidr1PmaTeNknOiPJJV8N04JA+9TNTnhPIVkPXmaAR3bQ/ZPMztDomntUNy995yXMW7ZKHE7SW2P1MYq2/NKhRMnSDjxeDklIsul5TTvnWrUDB5QhwSA6ICkpXKFi4YDKmZtWv99unrqFK7IfZu2YjKNetg8/JFaNKpFw7s2ILKtesJizmydxfO6Hshlk2bjPycTNRr0wm7N63Frg0r0aRjTzRq3w071i7H6rnT0WP4DUhMSsGahdOQklYC21YvxcbF89G6Z1/kZB7G4T270f2S6zFBQKgO9mxeh0YduuPURi3xyydjUbNZG7TpNcDITggXLEAqyvhclBEgHJDMxaluny/ash+mqqlVrYbDPDcYqm/ZKmuhk/8qGD+ZIf4J9i2sxm165sIMGJdZym0qJtjJwibYmGe6CCDaghWGxlzMBAodkKhqmc+ptgRzeG202Ua+JzFBmJp1wp42l3yvbZpjO2nPsehK0GAqZGS0MZqgyAUogKR+ye/yvWZWRoNpuRSwWfILIpCnDMxamwhIVMesuH9eq5VnYFYi1TkCqK2iUXrcXG3PjblRaI5mqm1K5ZODpMW8IDKhWg0k9ThHsiYyh1Fi3fqSWDCQlQXvrN/gKlUa6TfehZyxL0g0NBKT4PtzIVzlKyJ18DABet/2rZJNQ1I4p6Uj97P3pIWMgua1YwXTpiD57H4o+G0yknqeKxkB0q+9FTnvjhW1XeRRtqyxGWQzfIGZXlOQ1HewHJJllHcgK9P4PDkZaSNuRs7rL4lsxERZqQoC+/caCf5dbnjanCEgH9i9C4F9e5DY+nSpO7BvryRbRJ6RPTahWSvJ1uHfuF6eIwhHdw9r3MFI8m8Mo66x6Ik6dZWNTx7YuRVT3nsZZStXQ+cLrsA3Lz2E6o2ao07LdqjZtA1yMg5jxrh30K7/MJSpVA3Tx72LKnUaokrt+lj887fwFuSjau2G2LpqiYBay+7nolHHHlj/x2wsnzYZDc7ojNSSZSWaeteGVajZ/DScUrcxvhvzmABSreanYcuKRah/2pnYv2MjktNKoHGHHqIeshRS2eIBpnAzVhRPm8BAkZ7G8C3Ujtg2Y8JtO4d1Hsd4eWSWFBRDdJCHjO0lZUwYDrKuunABE0zICmistmgODHZF1cegB8ayyzV2fKvFwkiSxNBrgRENvbm5oQnakshGbKM378xzUWUzi9h9yLKsBrMOshpluDZbxmc8ZEBmI/iHUjHZQhrGhYnZRUCC0fR6cRtpVSkna5+Rducbdq7kRNn9pZ/qAanHJ8eQ5GMe1Qh7FxdEIId2L7PQjsQk/3EWAktyz/PkgKxv1XI5vuTbuBbJnXogb9xH8LTrhJSz+iD/5x8l1xdtg/4tG+FbuxKJ3XtLLjDZYkqUlMyoZCG54z4S9Tel5znwbdwgeeWTmKqWydHcCQIgnmatkf/dOMsuJypfxhEE9+42Wl6yNFLO7gvfxnXw1K2PvPGfy1rjjUFkwsy7ZO528LQ6A94VS+Dyeo1skm07iayMjI1uaSOYyppmmZQUeGf+LhfAJrRqK+fopA+8vXrKD3FJrfDREe1ohJqoOiCpz6Z+OAYHd27HeTfch6W/TcT21csw6I4nxKaUk3kEM754G+36X4wylU4xAKl2A+zZsg75WZlikO448HLsWLsMaxfORreLRiCtTFn4vQWY9NZzqN6oBVqfPRC/ffK6gEynwZcjMTkZS3/7UexSlWrWxR8/fY36p5+JI/t3oU2vgSGdLWxDUsYVrXO62qYvUlWTpRqFoo+wpKLYlb0s5W8hOKdUFc2DaaGb2hbCKhfbAG1HBAp9YXoLQJVLTZwidx+x6dDmY0ZXskumQTsEPhPISPicYhIuUfnISOQjZaBKSbbYiPSRZ55Mz5iolGKI5rtM24/Yj7QDqioamABg3qohwxGkWuezPISiOiaGGrTl2ixhWrYwxFNHBmkar4UkUu2jymUauwWYCFKmlzGYUyCqtMWaVN/FUG/fKhzINq49kpLvL9atte6adZB81rliE/WuX4uUrmfBv3+vZIDM+/ozuGvUQso5A5D7ydtIbNYKQQ8Z0gIBoLSrb0L+tKlIOKU6/Ht3SyJ+d0oy8r4dJ/1M7tAF/qxM+JctRnL/ISiY8iPcdetLuhDvvJmScN+4WpzDbm5EKlI+rQRcaWkIHtiH1OEjkPf9l8Yh2SGXIO/LTwT4LKM6N3k5ZsW144a7QiUBN7Kv1KtuQt7Xn8oZU9r9ks8bgPwpE2WjQ+VKQFaWqIXpdz2M7GcfKi4gqe2DlNocbbMf9LIpozYXyP7tm/D9q0+gbpt2wpL+mDQepSpWwRnnDUGNRq2Rm52B6V+8LYZqAtKMce+icp2GKFGmLEqWq4TZ33yEnpffgp3rl2Pl7N/R87Kb4E7wiLF7zjcfwZOUgk5DLscPrz6BqnUaovXZA1C+ei2smjVVzMF+bz7ysnNQ/pQaAkitew3U56etspkisEBBX+wh3jRNVsrgGX7cRS0AVVkMVLLSXlhV28AWimd2xVY6ElW3GY8jhmwakVVhGwQEuFsbDQrZ/TW1RWona6LLXzxkJiGhOidGW9ujyoVtAJd9TETsKHKOzywENwKSUgX55gIvXKbqJ30QRkIHhXGJo6iFYvcxQE15i7ijGl01PhO2R5BVC4dGaHUNkAnvZFrCajT5CxsLZ1JU/cgSaTRP8tjyIShxwXkNBmlkk2QaHMNLZ10iKkgbhD+HLFLbyIpxUSTvHkzucz78VG8yj8AdDKJgLg+kUp3MkTQfnM/e36cgsVVbcRR4eRA1JRVpw64QAAh685E/a5oACBMLMjeR7A3p6Ui59Bp4p/0Cd7UaKJj1O9Kuvx25338Fl8+LwLYtFntOaNwUwSOHEdjJy1aDcJWrIGpe/uxpSDlvEHLffAkJdRqIquibP8PKZsp+J7TvDN+iBYA3H0GmNOncXS66CPj88NSoiQBvGmGmgEMH5GYTYVdJSZKPzFWypBjoaSvL++zd+FQ2O6e2AiRjX1eX8HAOlbh+pGVD8ubn4dePx6Lpmb1QutIpmPf952jYoZug8YZFc9C270VIcCdg7YLpqNuqvXjA1i6cidIVq8CTmIgNzOKYlYmyVWuIzWn/9s2o0+oMNGjbBTO/eh+n9x6MgvxcLJryDRq274YEtwcbl87HWZfeiFVzfgXfv+6Pmeh28Uhk7NuDjAO70OqsASHoqxu1Q8AokhdNRweNzkQ0dprPxseSCse0q4h128ummh3eCKpMxncCNDRIc7FoiCRdoaE56DdTq5pGXt3Qq35Pe0+ixwAkZXahS9w6YGyDDe0tFmsgUNBeQxVQeQYTqNbxlLiNjjQeW7e/UL0MAzUBJGmrPSdFJaSaJKYCc8HT5mEa2aWtZFqmXcjAB8NTZwV1sj7GFLEe02BttYrqmthFqBbS3qXNaYYwBExAkh/Q6OGGmyxU32jY7xztfWzDkXy44kz2n1CrDpK795G80jRKM8e0ZKvgNWvTpiLx9A7wzpuBYMYRJNRtIO0MrFkFV5WqSKhdD0EmFKxbH670kqLOBffsRP4UZRwOwl3pFCTUqClGY4ZUJLVoY41KwZKFlmpLGxZtO0xQaOA/U5PUkTzxTDMSyMiQSwIk71h2pmbwh9ipAsw75qd6C7jpWW/YRDYZ3pdI8Els1EzazjQnBFPONbIoZhRgelzfn4sQCHBTi61aRDhca9JsbfakXz8SHmXUDgSQeXAfSleoDG9BHrIPHUTpSlVlgDMO7EOJsuXF7R+pHNqzA4f37ETZyqcgl9Z3r2Ho4hyoVKs+8rMzhUFlHtqP3IzD4kGjerdn01pUrdMIGQf3yW/yMg+jWoPmyD58EL6CPAFGvYR72YyNOYIwdLVNr0BX10I+N0GiyPvu1aoLUYaMH+pqhvWPML4UoZ2SW9qMIYp4qJiMgbOFi14WvvFui3vpnrNCOmRo+oKQ1hDjCEi0EZEZiV0nAW4THI2qAqY6ZqKf5WGLJlwlUFMtVGodAYNMzOs34pj4PhrG1bXnrJ59o/E8bCgl/kj3sAUMw7e4OBhTZYRDmeAXMOxZloXFEBSBj0ZdUfcUw9SN2mazXQUBBPdmR5zfhT6UWDG3sFkJwJRMqWYhQ6U6ZN47KPFYfDnXhARsGt8xbbTYj8TAnyKA9k8uhWxIwo6MCDjLrasYkk4wzDmvD2vcclKqSRgGRE3tER77HTqlC7+WgZFZyu2vU/tIrY0G2jEBLJpl25CfffRFAyZTpoV3CrsRhb1sxtKhXYaTls4eY43qOiQxiF42qj100xtqhqGSkGmYthrh+lpYePgAhJNqMgSyHy5ROQ/mkqTwxsIy+iVBg2JjMpgOQwvcSWRZKj2EWvrhp4MVaJpAR/sRAUkuYjQM2sKQtHGQEAVRU1XeLkaNuwUghdFKQn9e6mgAl9iNUszAWZXNwR9AgCom1UO5+MG8LIAsSzxxGiAVeOUmHJNWGNJif5nStsAwhjvlr5VA2NERY6JbYfxB3tgaROrQoUhqycBItbhUQE7IdlvMloUzCA0ZdJKhqS52itiiX+XbtAnZH36gebO055WNyFybepcK1Rpic7JnauGMmpHaE6F/YUnHwriRVBKJySlGILYkCezTPFxWzJNqA5kSbTFmXBD7oEVNhwhFAydbndRSrDBvlBmEKEGrbF+4F44gQg+b6gyNy8r9bgGnZXgzbBhaej3rAG0hD1uC4c0xZSZgp0WDC3C4guL0kDaZNUuX+BzBi6oqAdRsh6RopfFdBV6q9nE603MYbkDPyzcuDNULu8I72rLi97YVc2H8qx+PAEgGKGnTG+4yZeCuUEE7l2RamGIYdosvWf1WDtUOzRaj21WKcL0HDh1CQGW3U41Qiy+8zbHU2nBQsjoV7ynjwgzJkK9amDpwmWpMJLXNXIBC56kKqDNsmkpjIJrBWlyMOyELUB425WnhKyTIzAQJRXv5Tt1tzrok0tleeKJGhR8rEYO2nVExmJpkxkOpxgiNMqWmbSmmCmg8xU3QZDVq2xP7kXY8xgyIFDuSbosyDfamjd1gPWKIDxhGajM8QYmU7Mg432Yb8/lbN1ViXZZ0+Yv9LILqneMDDueZQZfx5Ykq/lr4d/4iKiCF23/Dh0XmRFF5ZOOSp652REEGS3VUcTr6Ao/rJfb8jcR4QvE3VKUJAQbb1hI1urdQczT1LaR7tn1FU9Y0d3Okq3zsfit7iCwgGpGFSSjWatbNeB4CBY2hpiqiAEuiqsMCIgXk+JzmXbSYhmqk220sXLMIODC40jo77EKQgCUfmKohvVoELTPtqjAZ1mMZ6c1cS5pBW55J0Y6vCIgGwCMjyniu9kyqkLRrWcZ6PkpWRw9bGu1HZrCkao7Zd+PIpWkMIBCnUbUzAVPOrynPYGhEuHTdG0DwQA5cvgjfxTclnaeiSCAKIBVmSabFIFSliMUu4hI7a1YxK2H3pkvqVNPoaJsapVaZT1HeHzWrgJacK5I+p9/zFdJ0a7Fr1+tYp+aLEkJh9iPdCUnDq3Zq83iJqc6E982Qg1afyvHDzwkmEvGs2YjIkLjIxeZjBheaWCXsSR2ENb1n9IyFGIbVEQ1NZaH3RFiHDkhiPDb8snLol8xGzEdBMPUtz4Qpu4/qtxFf5IFxht8YYNqP7AOzQQE2ozuGbYoxRGL7MY2Xal5YAGmqXwIkBGNOpdQUg62ps4Q0sdEo7vfLu3l+TviZGRoQMuZen7wvUuHPAgdz4co17FlO+eskENGGpNuKNKuRZW6J4iA6ylbZbKFwBeZgmyzJ+t6ex0fxTk3VCiFo1p1PoXVGUvEsk0isyagbw8Lnrm7a1niSlSFXU5stQDQPr6oWqovX5GCpcbbMQAcyF0Nlo+dIbDqqOqYJYdQt1TodWNKosmhpPqiqmEdLFDCQQYldR/1Ojoxoh3NpzNY8ScI/CvzmyXnNm2dFehtHfVjkaIM6nEtRmYCkGim2HBqZlbGeP0pMkFszbExwCdiI3Yvp/tJT7bE0pxm/k8hyK2iQl9PTu2bISFpj2rMYqxQVb07Q5ZFHMeH/Vj9xhcYhKbaiG3CN/lhqu7kTyQfmNT1H3+OwBS11hiSvMapWoKAxBGupx3nvu1lRyB8hk01DXttEoRnvrTaYE5ZNL9L9r0stXM00+h3aex2UVKSwC64EF/xcwPwBU4pQ1VI2GaoabuNcmXUcRIxI5il/PpuWar+IlRCQuPObXiZpJfsmYQWaePhb88yYZX6jGqUDDtUi8xiH9JDfm3YYFXCIPJ99Nk11mmyMbm2ry0Hx5ukykVgmM72JtJF9IkAoexXd9HrmA9OLJmfh5AwX+0SVTZOyRHAbwZdyjk1URxrh7bYIbol30TzZr9mrQtCNEey7szSWd/SrwPmlJlmeZbNd+Grt24NoKFFhcccq+X3EwTpa8Zq2BM3zo2asstkoj4xMGnUKIhZJCWuO5U0KN5KF1BM6iY2IMAMoDVXRjCyOeYyELVYgrxwBatFTHaWapgxxpvogKoppBPa4EUhibiJTdTXDVY0BM21qETx3wYDPSDvCkdNsPvJmASTjtLxKQCYeNDMoUPFVUZ/INDSjtwQOapHTkp5Dz7mUYpzct+ogKSoUyMizZeYxFiVmk42F2OYYXc1jH+HTycR2KzeQ+bKAHIchsNmZHY3zaXbsjzG11GZg9l+dqpC90FCfxShuJaSLMJ8lSV9Q4pGCBUYyN6f8NRJwHbh+mDXEIXu2lVjL8AcZE81QCYx70k00Kk4+hkJttqauyRcsXUjnZCEbkzbdj1J9j+AdU82IOLOiPK/28yJnY0SFV5OCAmHD06SKNEeOYBgL17aX6TuA7m2y5Sh/KzC9Q1TV9CMnlLLYavwh0Q5iFA7JswRDrVPn09gwOaRKZqN5MkTNMvooYKLOk0lXmEwvKFkA7I2FwM4T/sqmZbI5qmPhCdcIfHTDS122bMKP5OgSlmMuVlCoy8ijnawlm1M2I2mvxnS1jYV9LnR4N9Ja4+/p+meeJAeRjgKNNK1Bn/t5yxcr+6Daf82lFl3K1iQwH4l0IiOeFsrv1HwLuXbFvuTByFujDLrGLLJTexY+nhHpvba6aWY0MN+pmGFEA7JWUcT+mX2PNRdDg0kZyGe8PNq7ZSnLOUYJVzYWexEG/ND+mqk9RB0zO6lSkpgPys4ukd2acZ3gZ9qPrPokNYcJNqZrXqV7DXlGR1HL7artccL27P7KhmaBmkIFPTRAq1BkEM9MMoQWYl9SMGbahoxadOA2Wa6yJanXmClJIpH/8O1FDOc6aMfZ1H/3Y5axxZ7b+rj4efGW5ZyxHy4coGcPkRp4ZdspanEVJXzjd+rus8JTwG6NjVY6mdFVuKJmbqQIc32eh96qogJhNC9ehNmpT86i+xj+Y31nMBaJHSJlAoo1HqZ6YTKO2BPZtj3Zz5rJ2tQHYavKuF9LuTE0qZjPWZ6xkN3DXt52tfpEs/leJDDXTQRq7hXqW7wCNn9o53a3Z4jaaEIkbjbT6Knxj/AloqeJCWlX+AUGYb+MPT7/9ifssQk56WFPQNpIta+0GJTILnUNIqxEY/+bkHW+E29NkXaveH97Ip4rvCijrba/qGdaNYpDWtnLQ4+uGcsyZGMwJBSZIUS/uChUlYqP1kSVQghoHNsRi5fdq+dCwaswMB/b1v5zag/flNSsCwEkvbvRYnz+OSJxeuJIwJHAiZJAZEBiBotiMaQT1XznvY4EHAn8kyRAQAplpwb3dPn8AdP7a6ewFS/3/3ws5J8kPqcvjgQcCfyVElCAZKlqpkomgBRJE3YA6a8Uv1OXIwFHAkoCOhjZYYcGDLl8/sjanANIzgRyJOBI4FhJIBApiwJVNq9PqWwhJm1HZTtWI+HU60jAkQAUINl2JMP3bzIkgy4ZXxouW4chObPGkYAjgb9WAnYwSRGAFM6djB+5wxN//bUtc2pzJOBI4F8oAcWIDEAKjXaTWDaqbGJMCku1nGDep/4vlJnTZUcCjgSOsQT8Vp4tM9+VmWLIAqTQ9weRoF0/c7RtizcKtrj1F7de/WjLsmXL0aRJYyRop9YzM7Pwyy+/YMCA862m8DcFBflIktP2xseqnnHjvsCgQYOQqOUGitWHiMdXrNxHsX5d+PtoMmD/6tWrixReRxMlYLoo+QUCAfj9fhw6dAi7du1Gy5YtQmRS6NxfkPcBZmL16tVo1apVRJksWrQYtWrVRNmy5aw28R2LFy/GqaeeikqVKhXqINu4aNEic6w82LVrFypXroQU7Qomw1sTgNfrRTJvDNHKwYOH8PPPP+PCC4fGFC7ryc3NQWpqWojMDh06jBkzpqNfv/7a8Z7I1f32229o1649UlOjyz38l1u3bkW5cuVRokR6xErDx2nChIlo06Y1Tjkl9JYd9eN9+/ahoKAA1apVQ35+PhYu/AMdO3aMOg9iCuaYPRCE3x85Tt/l9fqteyGNM+fGIQAypPgOADC1TkAmzN49e5GTm4OyZcuicuUq8idVv8zMTOzduxc1a9aER78K5ig7zIky9rXXQn6dm5cniMEJoZfrRo5ExYoVrI+eeuppNGvWFH379oWbaTeCQXzy8Sc4cPAAbr31NnmOiy4/vwCjRo3Ceeedh+7duyORp+FNUOrQoQN+/fUXpKWlWZ+FL1TKZNOmTeBOoL5jQvqyZcugDHOUy7ujZ70MFw0BgoUyVe3gFVGbNm3GqafWQBIzRgaBG2+8Effeew8OHDiAO+64E+XKlTNyCRm/QsmSpXDfffciLS0d9913nwAP28rfd+7cGW3bni7gPHjwECxcuAAjRoywmkKwu/vuu6QO1vnkk0+iZMkSAggvvPACrr/+BpQuXVrGuHz5cqL67969G+PGjcM555yDw4cPIy8vD5s2bZTfTJ8+A/Xr10f16tVQo0YN9O7d23rXypWrMHHiRIwceZ2Mxeeff46BAweiQoXymDZtmowz23vw4EG8/PLL6N69B7p27YJt27ZZ8rn55puljaVKlZLP0tPTULlyZev8oHoZwevuu+/GtdeOwGmnnS5tnjVrlgDso48+ik8//RQ//fQTcnNzpQ1btmzG7NmzZc5z8Xfo0BHffvsNateug169euH333+XsecYt2jRAmec0TbivH/mmWfQt28/mY+RinVcRXLl5Qu4sO8lSpSICDJLly7F1Km/4IYbrse3336HnTt3ICsrGz/++COqV69u2Yf5+/fee++EApXNkEKTrbkKfBZUmWe6iwdInMycLPPmzpPJn14iXRYDGciwYcPQrFkzLF++HBMnTMQNN96AkiVLHiUM2T/jBF25ckVIPb//Pk12S4KHXho1aoxULScQFzAH6NJLL5HFs3//fllMN910kwyartVyB/vss89xxRWXY8uWrcjOzpKqb7rxJrzw4gvWbt2tWzeZfAooCEBZWVno1q07Bg3iNd/2oUJOrMGDBqGFxjziEciPP07CwoULcfvtt4kMOVm5K7/22mv4z3/+I330+fy47957MfTCC7F9+3Zs3rwZDz74AMhQateuJYuY4Nv2jLZo2bIlcnJyMf7rr6WtNWvVwjnn9MH7772PBQsX4pRTqmLjxk1g3ziG3JkXLFiAn36ajAceuB9vvvmWLLZXxozBmWeeiZ07d6JsuXJI32dKaQAAIABJREFUTkrC3n37cPXVVwvzef3115HgduPc887Dd999Jwt2/fr1yMnJkcXVsGEDVK9WHc2aN0Pr1q1FFDt27MQrr7yCvn3PE9A5cOAgPv74Y9SuXRubNm5EgseDoUMvQJUqVeT5LZu34L3338cll1yMCT9MEJCljLgRcn6WK19OttpatWsLC1Zjpct97dp1mDRpEi67bLiMeZ06dQTAfv55Ku688068+cYbGHrhUPmcm+uaNWtw8cWX4OOPPxKQXbVqNWbOmIHLr7gCaWmp+OGHH4T9XHTRhahXr14II1fvfebpZ9C3X3RAYvu/+OILYekEyW+//RYjR44MmS6UWXPzzkQyTgJR+/bt8Oyzz+Khhx6WMerfrx8m/fSTBYqcn2ozjWfuHYtnCEjhx8z5HpdXAyQ9IokqWzzn2ebMmYMXXnhRBFCnTm0ZbNLGSZN+kgX00EMPYc2a1XEBUjhjCFdzimrPd999L5Nv4MABIcxD1fHLL79i2bKl8Pl8IMPirklWQNDZtnUr2rVvL+pG+/bt0a5dO3mOC5Ugl56ejmuuGSG7vMeTgAceeBAPPfR/oia88867mDhxQiFVhb8966yemDdvrjWeBQVeWZRcvNfzNmDzQk1dJYzWx6zMLLzw4oto3Lgxhg4dKjvwU089KTt7w4YNMXPmLHi9Bfjggw9RsWJFYR6k8ASkN998Ez179hTA1QHpkUceFbWIOz/B49xzz5V/9+vXV5gGWcr5558vKgJZGAFp8uQpeOABo85GjRphzOjRGPv661i1apUwCpZPPvlEgKdu3Tr46KOPsH3bdgy7eBjee+99ae/8+fORkXEEHBP2h+yIrJN/LlmyBGQOaampePSxR0Wl43ufeOJJASwyVjIKgqtSqwlYZGVU55KTk2RMhgwZImoY23vNNVcbV3qL97gw76ecSpUqLSBJMHn77Xdw5ZVX4Mknn8KWLVvwyCMPC6MjsHDOqNKwYSOsWLEcK5avwPYdO7Bu7Vrs279fAOyzzz5D1apVMHjwYOt51s/51qBBA1kniiHRhLBgwUKUK1dWxk0VvvuWm2/B/Q/cL3Ob/7Gfak6vXr1G1GWyYpavvvpK1l3jxo0wfvw3uOyyy2Q9cGMksyUClCpdGkOG2G06FmATq062X2dIxh2GAkfMZuoPWsnjtTuKyXBiARJp+xVXXIn7779fhKw/TxsBKfztt98Ov99nARKR+fvvf8CYMWOQkZEhi+nxxx+XxcSJ8NJLL1r9mTZtOnbt2omLLrrI+iySLYZffv+9AUgDBoReq62M9Rs2rBeKrYpuV1J1MuSBC4D/kf5yETz99NOyK5LtffTRhzIh27fvIGoNd9DzzuuLb74ZHzJR+Q4FSHPnGoCkZPPHH4vEtnHzzTcJyPXo0UP6369vX7w29jX5jjvnwUOHhHlQtmQC/P2ePXsxaOBAfPTxRxg37ktRgYcNo2xc+PLLL+W5999/T2RAgGEbqSZ+8803qFq1quyWtWrWRNu2bdGiZUuZpL16nY21a9cIeHKB8J1khCtWrBAgoMqm5MN/D790OMpXqCAL9PXXxwq407YzZ85cXH755QLMtCeRYZGBcmf/4P0P0P/881GhQgX5jmPBCTljhqGyUe2h6kfQ5Ly4/vrr8d6776F7j+6gis13EbjuuutOnHJKNZHnq6++gosuGiZ8//77H5DF16XLmdiwfgO+Hj8e1113LcgqH3/sMWFWnKtv/ectAb3wjY8Mf+rUqXj++edRpkxZsaFNmDBBVC/W+8QTT4iqxo0gJSVZfs/62KbVq1cJMyXAsD9kT2RvY8eOlfEYNGiwNfZ//rkUEydMwN2j7hY5KUBq2rQpxo8fjyNHDuPyy6+w7LdkuA8//Ag+/PCDiGt83rz5suHdcsst8j3nB0Fp0OBBePrJp3DLrbeIitqndx888OADssl+/PEnokLHWtuxQOVovtdV0BCVzQo5Yg522pBkdRq3rRoJJmjUjg1IpMaj7h6Fsa+PLbQgWeUbr7+OkqVKys6mVLYjRzKExlP1qFChogz69OnTcdttt+LCCy8SewB3XpY77rhdwIiMJbyQYq9bt876eN68eQJI3GlVoXGXgBepFGW/McAqCNbJhXbttdeKCvLhhwYg8R1c7ARX2qKiARLtGlOmTJHBp5szLy9XwJjAd9VVVwnzePjhh3HJJZcI81q6dJnQci48Ll6qR5TP008/ZdFtMiGyDMqE7JO7KsvYsa+jZ8+z8MLzLwiz2Lx5C3799Vexwbwy5hV0695dZDHpxx9FZWvRoiVuv+02UaXWr18nuyiBiyyQGwXVKjJb9o9MkAZb2pQshvTGG2jUuLG0i6BLVbRLly4y6bk4aQznQn3qqadElalbty5atmolKiDrJsjohaBBWwvZKFVyqtFUwWhoJut59913Ub9efVSqXBnZ2dkifzIR2qrIOt54401RJb//7nscOHgQV199Fe65515hAwTi4cMvwxdf/FdsZ5EWI5kFwZMb6y9TpyI5JUXYBdVaMj0uZNqr7rnnHhw6dBCzZs3GDTfcICpzXm4u8vLzpe8ElzJlSkt7qbKRaYkpIBjEN998K89eNOyiEIbE32zfvg2jXx6Nhx952LJ5EZAItm+++UbEOfzHH39g2bJlFiDt3LkLX3/9tbT7mWeeBW1otH0++uhjGDNmtKzxRx99RNbYiSwGQ1JZS1X2KfP25XwyJJs3WOYOTxyAxAF8/PEnMHr0y/B4EgsN9IcffIiMzAyx6yhA4sAcPnxEdhrab7Zv3yG702233ooFCxdgzZq1snOvX79Bdre3TPtIuAC501JvV2XBgvmy6LlQs7OykJaejkaNGqJJkybWM7SrcLGporMkfsbdkTu7KgS4vXv3iSG1T59z0KNHdyQkeGT3I3MgOH3w/vv4c+mfERlS+3btMfyy4Va4BX9LEOvfvx+qVauOOrVrY+asmcIQWF57bayovVSdWKji3XrrrbII6KViIU0nSPfp0wf/938PygLmbkOjKw3StG+98+67YrcjIHFSPv/8c7IQCfC6ynbZ8Mtw4UUXCThQBTxy5IjYbLjT79+/T4ChebNmqF2nNvr374/58xfITn7LLTfjk08+RfPmzcVeM3nyZJx22mkiOwIuGRhZAlnanj17cOMNN6Jho0aiPnLMOS9q16ljyXnJ4sW4dPhwsWsRLNgePkP7SpUqlUUdJMASCKh60Zhfs2YtsZUoJ8m+fftF9bziiitw0YUXIiU1RdpIA//y5SvEo0f2GK2wr5wbbB8XC0GVfeMCJ2unXWvu3DmiwlL1WrduvbDVr8d/jRo1TsUbb7whjJJARPsSNy86L2go5wbLto19bSw6n9lZzAIsulGbc40gTEBULJ+AdMGQC2SMCpegtIm2QcWQHqUKvnixgCI3Ms6Rpk2bgEyKajztme+//4Ew8hPBkPR1xzkbdumZfO0q8Po0H4yhW1Cl88RhQ6Ix79oR1+Ltd94OcY+rF5Nut27dSmiyAiROKHo+crKzUbNWTeTl5WPz5k146P8ekkn07LPPyc733LPPolPnTiE6eFGoThsS7T0cTC5s2jM6d+4U8hNO0GVLl0Z1bRHMOGiKPTEc4IMP3sell16KESOuxXPPPYekpET073++7LZ0rXMBTJr0Y0RAIhCT+hv1uWTxEEAU7eeCpl1LRcdzJ6Mhl4tblcceexydOnXEWWedhYyMTGkLQYoG4Y4dO8ikU7YUbgqnn3660HYCAQGJDGHmzJkC8ASVlStWWEZtql+333G7qB4rVqzE77//hrvuukvUQU5Y2ma6du0qNgm+g0D16COPoHmL5gIQTz7xBCpVroQXX3wJjzzyiDApGl25gNlPFrJMqqCXXX45NmzYgPPOO1fYHNutypfjxuGqq68WhmWo2EHkZOfIfCBT5/MEW3rA5L43NwN37XQUZGc0sm/etEnmGp0rM2fNEiCgSkyDOG054fNBnxxkFwRWjj/Ba9u27WJPGv/1eHz62ad4663/COtTYMLf0obEjZGF8iaY0wZHgzrVWapsyoZEcHnxxRdDvH7hXjbKh2r8b7/9KnXSAXPvvfeKGhup0N5GdVsBEs0B3Jg4zmRBBEPaK2kjo2eNAOb3+XDvffcZiz9eN3pRC+8ovuNc8qnbY8KS8bnyC3j9plH0DNWJvPEhjgY/9+xzYiij4VB36XOA6VYme9qxY4cFSF9++RWyMjNx0803y0LkzszdhUKlvvv2228LmtN2Q/1YNyLGC0gbN24UJnDdyOtMN6/Zv0hm/bBK9QBR7nicYKTd1O11lY1uf6oTRalsyqitOwv0iUC16c8//7Qmx6uvvooG9Rvg7N69RfZUAWjUvHvUKGFRVA8oDxoxly9fhjGjx+CZZ59F+fLlpQ4CO5/vcdZZskvSeExViaEC7dqdITY9sjwCL9nIFZdfISobF3dOTjZ2796DUaPuFlWH6tLs2XPQrVtX1KplOCt++mmSsFt6oqgi0d7EMWS7r7j8chzJyACdHDQCs89kGO+8/bYs1mtGjMCSJYvFkM9F06mTvVnQrnLzLbeI254ATBVeLzTu0h5FxqEKY3fIRth3gh7VRqpQHDMy4cFDhmDH9u1ifOc7CZhFzWeqYJyLBHDKiaomTQvffvONABIN8NwM9BASAtLixYtEBl999bUAGu1gSj5kdwQkguhdd94lGyzj11SJ5PYfOGAgHn7kEbRq1VK8pJFsSGo+cXx1GxI3HcqWmyRtj2TH06dNQ/Ua1dGqVWuMH/+1EIDhwy/F1q3bxHN6IooAktxWo3Lka37o3AKfYcrm/2kcKtFDL1tsRCJVvu2222Ry0qjIGBWi8oQJP6BevfrS+ZUrV1qA9NFHH4uth59zwk6c+KN440gja9SoLrs6vXZc6IyniLfoDImU+4cfJoj6Q/tBPEW/7ZbPk1J++uknssudffbZYkClUZuTW49DimXU1r1s4e0gIC1dagASB2n27FliiL344mGi7syeNVsW+JO0w8ycgR8n/ohR94ySRcj2fv75fzF16s8YPXq02B1oN1CeLi5KqtS039G2RPby66+/ifpDpkBAuvba6zB8+HBhHDTC04ZFIOLief+DD/D+++8LQ2I8S6VKlTF71ixxz3fs2EkWOsecKgF3dr6b4/jCC88LKyGA8d8EOXqf+pzTR9QRqtkEVtqSVPmO7uzrrxdAilReeulldOjQPsQ+qJ4jaNN716B+fXTr3k3ig9h3etnoxGAsFvtK1S2Su1/VQ88cZccwBKpcubl5srgJMAwHoJyMeCGXBMwSJHv37iNAx7Gi7Y/2wP/+978yflT1FEPifPzPf97GVVddGRLASUDq16+fbB6qEBjpQSRYkCFxUx87NjTmTj3LcI5Vq1ZaDIlgzP/IUm+77XZRrf/73y9Efa5bt57Ihoyqdes20kfDIXL8C+euzxfF7a8DkhWDE+StOPEBErvDCUCj4MaNG5CXm4fSZcqgTZs2srsSoHbs2C40mK5gxih9+ulnwpLIhJo0bYqMI0dk4jNehAN9z6h7MHrMGLEfRCpULxbMnx/yFetnR/leFursBNTOZ54pE+OXX6aKUTJWIUsjs6Eh9cEHH5TgSE64rl27iVGYk5pqGGN2yAgn/TgJa9etDWFyBJf8/DzZZR977LGor+RkIxNUhSow1aLFi5eIPYMBg4b7vK7IjIvFUOeMiwGoqlA9PfPMzsKCaBRlaABtLGQNjzz8CE47/XSrftJ1BidSJW7ZqiWGXTQMrdu0seqisZgxLz26d0fXbl3x+utvCHD8+ONEaQcBkF5TjhtZLce3fPkKEitDw/LZZ/fC3DlzUb9BAwwePEhAnUbVV199TeRleKXWSKAhjc4KiBlzREMsVbZIzoaiAIkbIlk1QaBWrVoGIG3bjtZtWuOVV14VdZfPcI7SkaJil/RB4cZIMwK9aWSABBWCGb2NZEE/fP+9jAuZJzcnLnoyI76PtkACFlVlqujcfNeuXStgxiDYAQMG4vTTTxOvmr7BkyE88cTjuOCCC0IAiZu1Ak4ypPP7n49+/ftHnEN7du9Gs+bNceuthpdtzJhXxGbaq1dPYcoMCibL45xhm6i2kWmzftokueaOdzH9RSjgJaPmyy3c4SUzBCTj5jXzBlNOdwGk+FQ2NamU7m9PKGPRqBKutihLr1KR1LOM3iX95uSJZChnffSu0VAZWswET3LRov0NdzVOQhp5GbUaq5QuXQrNmjUX4yY9OVTXWOileeedd8SGpC8a6uvcDXXVUndvRiKZsT18ItWQiGK9T5HkSlcud3iyEBYaYLlJUAVTv+XOzucY8Ut2RjWZDgS5+DIYFHZGrx2jtBmHxmBTxpcRgF5++SUJrSBT/L//+z9Rh7p26yYsSkW00zZGGTOKvnef3mjZ0ohLGv3yy+hzzjlii+LOTDYxatQ9ElBIDyLbSXVHeQzDx6goQGK81OSfJuOKK68UTyUBia7/HydNkihrFdfDz8lwCTz0YOqFRzLIIKnOMlqf4EvHAsFUjRWdL7TLkDHR/qXGgE4Yqt0MuOQc2L//gMieQY38LTcVqsjqCBK9drRDEXgIYnQ4UL76OlF1K5WNdsxIZf68+Zg7b56MI3/DTYI2KLb7rrvuFvZF9ZfeZmocbNPDDz2MAq9XPHfhpxpirY2/6nvZsHmdeVhqSLn9J6/Aa54sMK8jkqteXEgqBkMqaoEVpxOktjQ8M65FN3qG1xHuHYv0fRzaZpFNC+9ToX8rDVgJtQjt9q+ST7QGRwJADioZChepXuiJpGwIQlRLGOFt/94Gdf03ev0ClUEeh1FXNNkdjyYzr9cnAKeO6igjf7xjRCZINqqfP4wmC6pwXOxUrcPrD1fL45GneqZwXcUzCseaT5EAif1gkLF+fk9/juPAPsUjF/13/Hu8si/O+o33WXHCaEZtawbx1qPcAq/NJ7Q7XpISyZBi25DibUQ8zxGQeFyBhkPdgBnPb51nHAk4Evh7SID3inh9NFjrty8bbXflFHit+Gw+QmcqcSlZVLbjC0jHmkn8PYbLaaUjgX+2BMjqaEMKcXqbt1i7cvINQLJQybQhnQiGZKgDJ5ZO/rOngtM7RwInXgIEpHzTqG2dYlOXU5MhKRRwB4Km59+FpKTjz5BOvKicFjgScCRwrCUggOT1GVZY7RptQ2XLL+D17iZ9Mr91uZB8AmxIx1oQTv2OBBwJnFgJGA6pIPILCEhmUYGQNGoTkAxrEmP2jWhtAlRykue425BOrKictzsScCRwPCRAhpTn9ZmhRkaYkQFTZEh5BiBJDIBmZToaQKLLlVkFGchXqpSRRIyuSx5z2Ld3H5KSkyRwi3EgxbEVMUiQ6TgZJ+IURwKOBP7eEhBAKigMSMKLskVl0/MkGuCUklg8hsSXMJqVAVk823TGGWcI6eIZHx4hYFAco2AZ7MVT6jwAGW9hlOntt98hidCc4kjAkcDfWwIKkEJVNsOcJIBk+d8MrU2+KC4g8XQ0E13NnTNHDoMyGpXHNxieTiDh8QsGyDFCtGLFSpLaM97iAFK8knKecyRw8kvAAiQzs4MVXkQPOwFJj3xWqlS8gGSoZX7J9sizPTy5ffEll8hhSB6U/eK/X0imPlV4oppnrkaPGY2zz+4tmf14OJLRuDycyIOaPEvEnDhMlUo1jUdFHIZ08k80p4WOBOKRgHjZ8n0GDzJDHa2s89m5plHbvG1ExSSlxmnUZuU8XMlEZkw9yiRgF198sZzMZl5hnvxnjh1VmOKTB0p5pogHE3n474ILhkhiNiYeYzZEnkJmDhee1H7llTFyINQBpHiG2nnGkcDJLwFhSPmal01s2ObZzczc/CCTSBrZR4wEtlTcUpIT4Y4jUps3XzBNK/OvMDEVc7DwNgYyJGb9O3zksCQUU4VA8/RTT0uaVWb927Z9G9LM+7C6dOkqN2gw0yMLD20yBw3P8jiAdPJPNKeFjgTikQCPjtCobXi2lHuNgOSGKzOPgFToVlukJMUGJJ60Hj16jKTYYMJ71n8LAclU2XjDBr1jjz9up+Bgsi6yo5deekkStu/du8fqA/PLvPXWm6L6sTxw/wMYPGSwpE1wACmeoXaecSRw8ktAAEkYkqGvGezIyDjiysrLL5RHkcCSGgdDorGZiacOHNhvVc7UIbylg8niaf9hjmfeCcX8Qqx3ypTJkq7ByDNU2QGkk3/+OC10JPCXSoCAlJvvNeBId/Az9CjLsiEBAS2tRDyApFqpp6fQGRJ1xbvvHiW3NpxzzrlypRFTnzIxGcMAHED6S8fZqcyRwN9CAgqQDHpkuvtVLGRWrsaQAubZErr9Uzxx2ZDCJUAPGWOQyJJYeJMF82gzuX7pMqUlgx4TiTFtKmOWmPJUFSYzp81I5YhmIi9mgGTyLCYWo33KKY4EHAn8vSVgABJtSPalzrx6jcWVmVMQVIFIlg2bKltKbBtSuFjiyYQYh53cAE7n1P/fe9Y5rXckEEUCOkOyQo5Me5IrU1PZrFynBKTU4gNSUSNQHIAJzwgZK0OkM/KOBBwJ/H0kQEDKyaMNSWlkVhISuDJy8oN2pKQdtJ12FAzp7yMSp6WOBBwJnCgJKEAy3m9btYlDAkiRGuYA0okaLue9jgT+2RIIBaTQvjqA9M8ee6d3jgROOgk4gHTSDYnTIEcC/14JOID07x17p+eOBE46CTiAdNINidMgRwL/Xgk4gPTvHXun544ETjoJOIB00g2J0yBHAv9eCTiA9O8de6fnjgROOgk4gHTSDYnTIEcC/14JOID07x17p+eOBE46CTiAdNINidMgRwL/Xgk4gPTvHXun544ETjoJHFNA4kWQgUDE43AnnSCcBjkS+DtLwDgEb6y10AwY5tUdcXbOOkxv1GQnJbITXIfUFCllUHj2DvvfRluKSjN0zACJQOT3+8HMkKGdjFMyzmOOBBwJFCmBotaWWnPqHrNYa5Dfx/usASrFBTr5ldmf6JhwDAEpAL8/4EwpRwKOBI6xBHQwUa8qCjBigU9xSET4e9Rvo7VJgR6zwkYqJwUgRUPmeAUTz3PxPBMuoKP5zTGee071jgSKloCpucULSPEAWKQXFpchhb8nGsE6KQAprjmm30AQ1w+K95ADPsWTl/P0ySuBaKylqBZHAphYa+JoQMkAIldUO9JxByQaujMyMuQ+NY/HI4n+ExMTkZaWFiIv3mJboUIFuN1u7N+/H2XKlJHnwwufY+L/hISEqPLOzc0Ve1ZSUpK8m8+HC5PXdbPw0oCDBw+iXLlycc84XnBZsWLFuJ93HnQkcKwlUByw4JpU66M47SJgcX2qEhvADDCS/49igjqugJSdnY2cnBwsWLAAtWvXRtWqVfHLL7+gWbNm8vdSpUpZhrWxY8fimmuukZtpeWPtVVddZQGS6viWLVvw1Vdf4dxzzxWAIZiceuqpFjitWbMGvD2X76XAWRfBpkqVKjj99NNx2mmnYdeuXSAYEVRY6tevj/Hjx+PMM8+UfxMUy5YtizfffBMENhYOIK/2Tk9PR+nSpeW7G264oThj6TzrSOB/lkA4AMSyDekvVGYS/sk1sWPHDrRo0cJyQilAy8rKwu7du2XOFxQUyBrgZ/yP67Vz585CKAqXIHw+fwiJ0EHypACkhQsXYvv27dJ2sh4CRc2aNeXf7Fy3bt2wlFcilS6NiRMn4sILL8ShQ4cEVHi5JDtEECBb4s24vFSSz1IgBKfU1FScd955loDIvlatWiV1UJgElxUrVqBBgwbC0AhK69atE5AkKPl8xp3i/DcH6ZRTTkHdunUFwN555x2MGDFCvidg1atXT55p37493nvvPQeQ/ufl5VQQSwKxvGrxesk4z5csWYK8vDxZG9ysuT64frj5UhPhGqEmwXXKtUUNhL/jvxs1aiTP8jmuW66/cEbGZ3kTtVqv4d+fFIBEdJ0/f77IfefOnYKy7DgLO1m5cmXpPFkLn+vbty8IYhRY9erVBYQIIgQI3svG+ni1Nv8kilOAFFLPnj1RsmRJLFu2DNOmTbMYE9VC1k12xu/JrPg+/j4zM1PaxIHp2LGjACd3hbZt20qdL7/8sjA5Dvrq1avRvXt3HDhwwAGkWKvI+f6YSyDcoxWPDYmbKdcMn+W6UCYSrgNqK1xLVMc4xxVocTNv2LChaCL8HUGKa5agE6kQ8Fgv1xqBTrVTEvafaJVNISZtOCybNm0S+xEvhmRhJ6tVqyZCoLB4+eOVV16JmTNnonHjxtKh6dOno0+fPtKxDRs2YPPmzXLx5NSpU0VQNWrUwDfffCNARpsOBULGRZZEACHAzJ49Gy1btsS8efNEDWS7yIgIgGwT6+NvqPo1bdrUsjdxUBYtWiRgSObk9XqxcuVKB5CO+XJzXnA0EijKhkTzxPLlywV4qGFwDZAc0G5KrUXZZbmeZsyYIa/nWuXGTPDS6+Za4PqMZN/l73w+LzZv3iLrSLfLnnBA4qInCPBPpRaRbejo2qlTJ6GARGXaZUaOHClqWevWrYUlLV68GL1795bfU+cleyKz+vnnn+UWW3aYADZgwABRzwhgc+bMQZMmTQSlCSIUPP/s0KGDsC6CFUGKAifb4nekoAQ81kE7EweOgEWGRnWRdJXMjgPnqGxHs1yc3/yVEiiKIUVT48iEuJ5IBHSHEMGKGzbJAQvXHdfC2rVrZYPWC8kD10ykoquXNIdw7RDgUlKSTx4vG1UoIjAbS9sNwYFAwkKhUj3auHGjCIBs5KabbhJBkDGRoRAcaNNhYT00WrOjZDYEIwqRiE8AUl67Tz75RARMofA3vMabA0GQo4AIRFTblMGdrIt2LQIl/yNTYl1U58icCIDsB8GMqp4DSH/l0nLq+qskEMvLRkDiPOa6ISCp57du3SpznGuJ5ov169eLJkIPNTd1vZA4KIdStHaTgNCWRA2Hm7la6yecIbEhbBiBgWDEBU6EpeeLQEPKRyaiWAiBhF42IvSp9RnXAAAgAElEQVQXX3wh4EWjd/PmzS3h0c5DFkSPGEGMgqRKRTAjclPY3333Hci8+BnVOKp2HAgCDd/H9lDg/J5eBjIm1kNPIMGGAMZdhKBFcOzatSt++uknYUgELFLWt956yzFq/1Uryaknbgn8L142BUjhITM6IHGT5nqkSkdwCg+FocmCTqRohb8n46KmQSeSAiPjz8i/Om5uf3aIC/qPP/4Qte2CCy6QhlLdIgqTsRBslI762muviXr2+++/i12HeioN2WQ//DuN1WRTVM/Iin799VcBOAqYDGjIkCGWUY5qH4GHbIwqHUGQYEPQoteA7Zo8ebIAG4GHzIn1U9gMAyBYfvbZZ/JvqnRff/21sDfaqDiw9Ajy305xJHAsJfBXednYRq4Hrh9u9HohW6IHmaYTpQoqey3XjV5oDw4HJNVGrhOSDpIAmji4NvX2n3BAYuPJTEgFueCV3spGUh0jKND7Ras9C4GLahGfI3CxUL1iR8lM6OkiOJFKslCtI9MhmpO18B0EJgpcvZO2IRV3QSFTRVTeNSWs8D/JolQMBlGeg1ipUiVpJ4GUQqcaqXTuYzkhnbodCegSiHRuLJ5YJJIDailFFeVp4zOc87SXKpajfse5r2y6kdrFdaMCJ40AbZsWnXBAcqaSIwFHAsdPAkXZkAgUhw8fjtgY9TtqKooRcVMniNF0oRcShOJsxCddYOTxGw7nTY4E/j0SOBovW7h0jvVZNjIiPS+Sw5D+PfPT6em/VAJ64GE8IogFZEWxrFhevEjvP6kCI+MRkPOMIwFHAn+NBI4WMIr79uK8R530DzMnhbzyGHrZ7IyRRgOKl2GuuIJxnnck8E+XQCwv29H2X9ZmkP8rnMkx2juLu56N54OW2hbt98cMkCgcdsbJqX2008T5nSOB+CSg9nqVS7uwfSg0z3Z4jmuVi1v9zlCtZAWbrv/wGoubltpOOaK3MRJHOaaAFJ84naccCTgS+DtKIFoyf/3z8Gdi9dMBpFgScr53JOBI4LhJwAGk4yZq50WOBBwJxJKAA0ixJOR870jAkcBxk4ADSMdN1M6LHAk4EoglAQeQYknI+d6RgCOB4yYBB5COm6idFzkScCQQSwIOIMWSkPO9IwFHAsdNAg4gHTdROy9yJOBIIJYEHECKJSHne0cCjgSOmwQcQDpuonZe5EjAkUAsCTiAFEtCzveOBBwJHDcJOIB03ETtvMiRgCOBWBI4IYBU3AN3sTrB71Wd6jSxk+0kHqk5z5wsEjgWa+Jk6Vtx2nFMASkcHIoCi/9lQKRel/xPyv9SV3GE5zzrSMCRwF8rgWMKSLxIMTExCR5PArxen1zGyMThvJ+tRo3q1o0E7BJvMOCtBrxRJC8vX3IpqcJriHjjJe9o460j4d/xNhHeNpKZmYUyZUpLDhefzy8XOTKhuV54CwKvZWGbnOJI4HhKQL+FI/y9fn9ALuVQt3T8Fe3i+7gWiptM7a9499HWccwAiaDx5ZdfyTVDw4cPlwsYeffZwIEDMW7cF7juupECQMbVusBTTz2NDh3ay9VHn332uYAJB4cgxPvaLrnkEqnjyy/HCWC53S5J/tarVy8kJLhRqlRpuYd8xIhrBHB4dcuHH34k90/pA8Jrky6//DK5ANIpjgSOhQQimQ+WL1+OAwcOyv2DpUqF3gDLNuzevRu5uXmoVaumbKI7duzE4cOHhO2XK1dW1oVKnKabI7jOjhzJkGd3794jt8M2aFDfuh2av1PXF/G6sV27dst3KhMkrwxLSkqUd27bth1NmjSWd+bm5sjN0Nzobd0DUpdxeapx/Vh4CQfB4morxwyQ2FAyoXvuuRd9+/aVe50mTJggF9DxNksKokOHDrjuumuxZ89ePProo2jfvh169TobX331lTzPyyT5d94pfvHFw0TwH330kbCpVq1bYcniJbjxxhvxxBNP4KyzeshV1/fdd59cNvnnn0sxduxY3HXXnSECff7553HTTTfK9dpOcSRwLCRgA5KRxnnx4iXyJ68M4n2AZ5zRFikpqQIwXm8BfvhhgnzPxUxtgFdW8/LT8uXLiUaQkZEpayM/vwDz5s2TtcFbZHnZaWKiB6tXr5HPqF20bXu6bNQ+nxfLl6+Quw5Lly4FahHUUFasWCl18kojghIBaOnSZXKPIW+CbteunTC1ffv2y72GvFVa3RjC9q1ZsxqtWrUqdEebkuOhQ4flnsWaNU+F280ruosn4WMGSBQK73LatWunXPD422+/o1mzZvLZ999/j8suu0wugKxevRomTJiIjz/+WAaMTIiX1BFYeAEjmdJtt92KGjVOlcvtCEi8U4rfbdiwHkOHXohx48YVAiRe8/vaa2NFeLqKt2TJErlltmnTJsWTlPO0I4FiSICLl2xkx44dKFmyhFzPTgDiZ7wUlVe+V6t2ioAIF7C60JQgcsopVYUh1a1bB2vXrkOlShUFMH7+eapcAc+5v2nTJrkYtUePHqKFbNu2VUwWvDx14cKFsilz4ydj4u3MgwYNBC9rJXgR/AxACqBOnbrChBQgEfhY9u8/INfL8+p5BSrs0/btO9CqVcuogEQw3rdvr7C9qlWrWBe5xiu6YwZIBA0iP1GXV2ETTHbt2iUozV2iRYsW0liCDct9992PTp06iWCoevF3ZFO8rprXY/PKbKpmL788WgCLtqI1a9Zi2LBhwrw6duwgA3HvvffhwIED8j7eLEsA1AvfyauCSWv5Lqc4EjgWEuCC5rXsnH8EAIJRIOCXm5izs3MEkAgaBCWym82btwjQzJ07V+YygYssY/bsOejd+2xhTrwGnmuEdbB+rpO+fc8TkFA30RL4uBl369YVy5YtF/Vq6tSpGDr0AlkXS5b8KeuKbeJGzXfSvKEDEj+nqYMqYLgNlkDG67HJzKLZpozboQ8JmahcuZKws3jLMQMkdXf4e++9jzZtWgsV/Pbb77Bt2zYBGLIhfk51rKDAi1GjRkkHSEP5GUHnrbfewqBBg4RiNmvWVKjrk08+iVGj7sbevftkgKiyUaBkSzNnzsIjjzyMyZOnyCBwoNXV2uECoe1pwIDz45WT85wjgWJJgEZqMhAuTjpYcnJyQDsSN2cWboz8LiPjiKhWyuDN+Uo7DRd7vXp1ZU737HmW2EX5XUKCR9bDtGnTUKtWLdSvX0/A5ZtvvpVnunTpgjlz5qBHj+5itmAdtN0OHTpUHEu//PILunfvLsyN7yQLO3z4iIDlunXrRZ0kkJE08H1so7qCnu1WINS6dSvUqlU7qkrG39FkQzkQdOMtxwyQVAOeffY51KlTG+effz6eeOJJUds4CERmdig9PU2M2GQ5Xbt2leemTJmMnTt3iQ5LCtqkaRPccP0NwrD+/PNPdO7cWYCNoHP++f0FeD7//L+i71544VDZQUgdn3rqKTGM9+zZ05IHv6NeXbZsmb+V9yHeAXWeO/ESUA5iLvKsrGxZ+AQkqkY0arOQaaSlpcrfaUOlJkDViKYOMifaSQkW/P2ePbvF5kkwIPMgA6Khu3Fjmh2CYowmgLDQDEJ1rmbNmlJHhQrlRU0bPvxSYTxUDbn2du/eZf2da40OI5IE2pRUmTdvvtiy9OuyDS91SkxvIDUh2qGobrI/8ZZjCkgKFNghGuGmTJmCBx54AJMmTZL2TZ8+HY899qgYnZ955hmce+65woQIOtxVPvzwQ/HKkVF16tRR0PrXX38TGxL/Th2X31Gv5q7B3YDMh/SWk4AgdfDgAXg8NmVk3VdddaW1U8UrKOc5RwLFkYDhqcoVcODcNOypuwQoWKj2KOYwY8ZM2ZhLliwlmytDY7hxEpA4d5csWYy2bdsKGK1evUo2VK4pgoMBdGuFVRFsqKJRVeR6I0jxOdqoaOzOyckVb57fT+YDU1WrLuuFTIa/qVKlsrSP39PeShDk98ZnQelTo0YNRe2LVmirokexYsUKUW1N0X57TAGJFn16wMqWLYv69esLA2rZsgUWLVosoESqee+99wjVvOOOO4VmVq5cRVQxlp9++glnnnmmGP7oqaM+SuFzEAg4EydOFDBSHjO+hwhPAf5/e18CJVdVbr2rqueuTtKdnjJDQsCQgAIiQ0BAifggCsSf4T3FAYWQAA+WIiAEEhBIYKEM6kMeokEIjz+P9xZBUAaROUbhB5IwBAJkJmPP1TUP/9rfrVP31u3q7qquqatz7lq9urvq3jPsc86+33S+Q0ADAX/cxWl0nyL01Vdfg0sumS+hBPrSCOQDAavbn3OOV6+nF2vXrRP7EC9rfBDtRFwfXMCffPKpvHBpL6WXigRCkqAZY9WqJ4XIaCzm8yQtEg4Jj0RGLzRts6yTBLN+/TqRhtzuOimPXjqGB3Dd8aJqxnpV6E11dY0YwY32ISnmj33imlu/fr0QEskzlQeNZhUa0dlGrutMr7wREpn05z+/RUiGBjgSEPVmxbbsHH/o9ucgLF++XMjryCOPTPThoosuks9aWloExFWrViWkK97EQWCn6SZV1+WXXy6kp1ievyni8tn29nbx+N1xx+1CkvrSCOQDAaWyUcKgHYYLl3ZSzlel/jCOjobk5uZmvPjSS9j52U4hGJILzRSUfihNMWZJfc55bBy8agQN07ZDEwgvSkW0Bam5z3rpzqeUxRg9khRVQ85/dVGCYhu4LtXFOqmSWdcPBQDGJdEYT88eSZWSWypC4jpl25WtadjEIZFsSDQEhH/TBckYBRq7DTe8ASrditR1KeZR0lGExe9olCMbV1QYMRMcULKv8WzqAAd6JqwExXI4UO+99x6CwYC8ERgspi+NQD4R4BTnvDYCBVPXRGmEqhY9ylSXaGuhdER7Euc7P6OtabCLdXV0tIurXamBrJe2IdqQqAKyPHrZGBow0MXnFUEpMmGb6MnjRUKl/TVfV94kpHw1WJerEdAIjFwENCGN3LHVPdMIlBwCmpBKbsh0gzUCIxcBTUgjd2x1zzQCJYeAJqSSGzLdYI3AyEUg/4REU70lt1FJQkk3Sabblkuyo7rRGoHiIpBXQors2YXQpo2IdXeVLikxwZW7DmUHTEPZOB0uUNzpqmsf6QjkjZAibXvh/+frKJ9yIFytE4FSzdAYiSKydydCG95H5dHHo2zchJE+J3T/NAJFQyBvhBR4+w04ystRPuvzcPQTxFi0XmdYcQwxRLZuRmjTx6g+aU6GT+vbNQIagXQRyCMh/RNOdx3KpxspMUvVBKPaHtm9E8EP1qP65K+li62+TyOgEcgQgbwSkqO2DhUHm+kMMmzbsLo9vItqmyakYTUoujEjDgFNSGkOaTEJyXBSxnT+pjTHSt9WugjklZCUypYveIyIAmOTrpHOIV81AcVV2XhKhPQyr33MH3q6ZI1AegiUNCExiRsTXzGDALPvpbMzOj1Y+t5VPELiYQkhST/KFBLMWcPcNvrSCIxEBEqckMKyWJmShLlhmMAtlwftWQe8eITERHNBSUnBzH9M0MXsgvrSCIxEBEYMIVFlYy6XkUhIJF2/3ycHGzCrIPMc60sjMBIRKFlCok2F2en8AT/a9u2Dw+EUQmJ2vXxcxZKQ2M9QKCBpe/fsYdL0ZjkCSl8agZGIQEkSkooNog2Jx2rzYDpKRsxmV5aniPCiElI4AI/Hi31yikOznERaSue1j8SFo/uUHwRKkpCY25fGbON8cYec10YPG/NrM/0mP8/1gi0kISk3P8mW6lqtuwq9Hr8cH0V1zegrjduZH1Wcn2mkS9UI5AaBkiSk559/QU5h4AJdufJxyVv8ta/NwbjxLZJ8vKmxKXGSQm5gKrzbn+davf32Wjk1gof6vfji3+TMLR6dzK0sdW63nBCRLxU1V7jpcjQCmSBQcoTEcJxXX3lNkvXzuvjiS+Dz9eLmm29GrbsaZa4yWcRMbJ7Lq5ASEttNKfDdd9/HjBmfg9fbi9NPnyunPdx44yJs3vIpmptbMWH8RDnSWF8agZGCQMkREoFfs+afcowwTwadP3+BHF63ePGNGDWqFi5XuRCSOsolVwNVaELioX4bNnyEgw6aip6eHsydexaOO/YYLF5yAzZt/gQtzS2YOHGynNKSz4DQXOGny9EIpINAyRES7StvvPEmJk2ajGg0HCckP5YsuRGjRrtRFickdfhdOiCkc08hCUmdevrhhxvlGCmqpnPnni0S0uLF12Pzlk1obmrBpEnGqaP60giMFARKmJAmIRwOYf78hRKpvWTJDeJ9Ki+vEAmposI8PjsXg1VIQmJ7KfV9uGEjpk49EF3dXfgGCWn28Vi8eBE2b94kQaATJmiVLRdjq8sYPgiUJCG9/fY7GDduvMTnLFiwEKFQRGwro0fXScT21KmlTUiUkBiZvXHjx3J6KY8/PvOb83D8bNqQbsTWrZvR2tqa17ir4TNFdUv2JwRKhpBUWm66+zds2IDW1nEIBHxYuPBSBINR3Hjj9XLssEFIB+Z8X1shJSRuGFbHFk+ePAVtbXsxb965OOGE2Vi06HqRkMaNG4fx48fnLe5qf1oEuq/DB4GSISRCxpgc7udidHZ1VQ0CAT8efPD38PuDmDfvbEycOB6jRo2SeCReudyEWkhCokGbx3/zfHZuGqZRe9GiG+Qc9+9859sS5sAjkrmZ2OXSRu3hs5x0S7JFoOQIiRISo7IZfxMKcY8Xt1X4xI4UDAbEDU5SYowOF2yuPFCFJCQj0NMh0h6lJfaNG2xJwFTluGWGpMsgSdrN8rV/L9vJpZ/XCGSKQMkREhckyYhkQ0nB5/PD4/HA4+lFT3c3XGUuNDc3YmxDAyqrqnIWsV1oQuJAMuqcpBQKh+Dt9YLBkp1dXfD29sLtdss2koaGeh0cmems1/cPWwRKjJCYhiNgISRDeiAh9XT3oLurG05nDK3jWtAwdiyqqqrBQMpc5G0rFiGRlKiqBvwBeHo96OzoRE9PN9x1boxrbcUYEpJT50catitMNywjBEqOkCgRUUWhykJ1hgQlhNTjQXcnJaQYWloaMXZsIyqraEvKBR0VdusIVTb2raKiUqQk2pIoGbKfne2d8Hh6UOuuFUKqH1uvVbaMpry+eTgjUDKERC8b7UeMz1GERLIxJSSPSEgOVwytLWMxtqERFVXVcRtS9qRUaAmJ6mhFJTcKVyIcYlYDRUhd6O01CKm1pQX1DfVw6gySw3mN6bZlgEDJEBL7RPKhAZs2JO5258WFSptKT7cHXV09cJYBLc1jRWWrrCxdG5IQUkWFbBI2JKQAPD2GyubxelBbU42W1mY01I+FM085oDKYR/pWjUBOECg5QlIqW02NIqQAvJ5edHV3o7uzB04X0NTSKG5xY4Nt9tIRkS6KhCSpVCqNRHQkpO4eCXvoJSHV1qC5hYRUD1dZbqPSczKzdCEagSEgUFKExEWpvGwkJNpZfF4//D4fOjo70dXZJbFHJCSmIDG8bENAJcUjhSYk9o0eNkNCikofGY/U3t4Bb5yQuH2kob4BrnJNSLkZZV1KsREoKUJS8ThUYYzkZA4hqHAwhG07tiMaMdQcqjKNYtQuXUISqSweb+TzeRGLAu1tbUJIcMQkmwFtSOL2L2eiOn1pBEofgZIgJJWylsGBJKNdu3aBElJbWxv27t1rnMbR2CgxSfUNY2RbCZOZUWUrVQmJZMu4I/aNAZ+7d++By1mGUDCIqpoqibNqbW3G2LG0Iekd/6W/FHUPiEBJEJIaKsbjKELiZySkrq4ubNmyBUcf9UW88847Ehh50skny0ItXULywOl0SP/Y308//VTUtfrR9aiprcU//vF3HHbYLMyaNRNjGxvhpOFMXxqBEYBASRESt4rwwESqbswDZJDRVlHTdu/ebWyrCIdx7HHHoqWlJadpbAtpQ2LUOUMbSEb8oZS087OdCAaCEovk9XtFQvrCFw7XEtIIWIS6CyYCJUZIxgKlOkNyogSxadNm6Q0XMe0pvCZPniTnl+UyjW0hCYmhDTzWieom4662b9+Ozs5OibNy17pFCqx112DShAloGNugVTa9okcMAiVHSKFgSAIBmYCNKhwjtHlmWXt7u0hP9LLR+2TYkCpzNlCFIiRudfF5fYDDifIyl/SV22L4Gb2IlA6Z7aBulBstzU0YUz82p1kNcgaYLkgjMAQESoqQGKnNZGyyu73MCX/E2HTKn+7ubgkcrHS6MGnihER6jiFgkvKRQhESK/f2+uBwOhFzORBz0pPIgNBeeD1esSX19nowxu3G+PGtaKhv1ISUq0HW5RQdgRIipBiCwbBIRRKZXO5CT9Ani5SR2rSt9Hp6MaqqGuO5C16M2qUnIXFG9Hp8cHA7iMuJkDOGnt4eBHwBkQa5wdbv9aJ5dL3s2WtsaNKba4u+jHQDcoVASRFSIGAYtSkhlZeVobPXg4DPj1AoiK7ObnR1daLOXSsGbcPLVgkVMpAtYIWUkLq7PWK0d8kRRwz+9MLr88HnD6Kjox0+XwD1o+vQ1NyA5sbWnIU2ZIuRfl4jkC0CJUFIilSoslFKcjldiMWi2LDxI3S2d4h6s23rNsmPNHPmDEntamRUNE62zcVVDEIiKe3btwcbNm5ELBIVUmI8Esn48MNmSU7tpqZmTUi5GGBdxrBAoCQISSEVICEFmDHSIbmO6Hnavn0H9u3bJ1HN/Ky+fjTq6+vFy8ZwgFwdqV1IQqJqxkh0ElJZmQvbtu3Arl275TikaBSoq6uR9CoNDWPkN/HQl0ZgJCBQWoQkaVwDQjLMh0TXP13kjD/y+/zw+rwiLTB9rbm5NjfDVGhComRHL1tZeZnkDGfSf7/fJ+paIOCVTbdUSyVSWxNSbgZZl1J0BEqMkAKyPcRIPxInJJ9PNp56vX7xRPG7MWNGy0LN5em1hSQkegyppnJzLc+ZIwlzGwljkvjDrSSMsVKSYK6kwKLPRt2A/R6BkiEkLlCVjI2qDBckc01z46kkbvP6ZdE6nMCoutFobW1JnD6Si1EuFCGxn4xAp/THPpKUSECMtTKIyYtAMIDKCkNCam5uyplamgucdBkagWwQKAlCshq1qaLxIikZKptXfkuMUjgEp8MpJ3EwMJI2pFxdhSQkhjAwIp3eRKpjjEOiZMT+Mbd2NBYVoqofY9jKtISUq1HW5RQbgZIgJAVSJBIV4zUvRmSHw5HEfi8uYHrZeNG+wvPMcnnufaEIie1nrBXzIZFo+EOyZb/ZR5KvypVEtZU/ucpoUOzJqOvXCJQUIXG4uBitrnz+zx+SUQwxOOJufpIRF2opxiEZfeRleM9UHyPRCGJR4zv2l1KSkRdKT2SNwMhAoOQIyQ67WrvWRZkrErLWVUgJydp+K/0meIrEq1loZKxA3YskBEqekAo1noUkpEL1SdejERhuCGhCSnNENCGlCZS+TSOQBQJDI6TK8kGD8QJv/xNOdx3Kp8/IonnFf1SpTySk0IZ3UXXSnOI3SrdAIzBCEUiPkJQhI/67prI87gEC1q5di3feWSubQE1jcwzhHdvgqKyEq7El/p1CsD8LrP3Qa2XYNY27yWOQbPg16s9XHUC0pweRPTtRPu3geCX56wdJ8OCDD8Zxxx1nMVjTeG/UGfj7y4i270vqbQINa7Ni5qjY0UlCWz3Tz/3WEZDnbHWohmRbh6qnvzqs5VvvTbQvjX70V4e8eGwzNad1DIJt0mzOoB+CfRr3W/tmHz/r8rauoFzOkVR1qKaXHTwD5dMPlRVMB05vIGR0SUkDcXAcPd5Ask/L4ZAHDEIyirv66qvx1FNP9eFrE2A70ZQitVv9d4Vp/+GHH47HHnvMJJ24x5AftP9gHqK93dZ5aJ+XSf/L2Fpo1PZ+SfrO2rvkV4zxjWXuZ11Hf6+UfNWR6pVlb8NQsLJja13U9vLs5G0nwSTisAzGQOOXSR25xFbV21+Zg2NrOGcqZn8Vdf/+M5mldCL7hJAcca+5+Vpw9HiDRpk2lKory+QBktKCBQvx0ksvDbpKVVyN/fdADyr3t/IoqWf7e6ZU6hgMLPbjgAMOwF/+8hcDfkVGDr5mHWg799TBitDfawRKAAGDWCqOOg511/xc2stXvy8QTn6DxpnP4fEZEhIXAUnJEZdrqyoMlY3XpZcuxIsvDk5IJYDOsGiiItUpU6Zg1aonJPFcbW2tHAuuLk1Iw2KodCNyhIAiJFIKbUh+fxgxvnyTuAcQQjI+NQhJyfZVFWUJo/bChZqQcjQuScUwydxNN90k0dlMs3Lqqadi1KhRco8mpHwgrsssFgJ2CckfCMWbkqwMOjx+Q2WLawrym8REQuIfZDRNSLkfRkpJo0ePxk03LcGXv/xlfPrpJuzYsQOzT5gtyek8352bo7RzuW+7LlEjkCkCfSSkYFiJQSIEJWxRvb4g92IkjEjKtFtZkbkNKdNG7s/3k5Camppw333/gZkzZwnxP/LICrS2tsqpvac98Xsdqb0/T5AR1ncS0qhrDRtSNBpDIGQQknBPVGxFxr/eQDBuQxJ5SAxOvKlS9olpG1I+5wUJ6YEHHhD3P98RK1f+t6QamTBxIhquuyRnqXnz2QddtkYgHQQUIYnbPxpDMGwQkrlVKs5P3kDIIjAZNiRx05Xz6ObMvGzpNEzfYyLAXEe/+tW9OOKII8Sw/fLLr0halenTD4brsn/TUGkERgwCVgmJufIDwYgIPsZWeTNYQySkpCg4w+WGijLDqE0Gow0pHbf/iEGvAB2hysZ8TjfccAOmT5+ON954A7Nnz8a2bdswbdo0OC/91wK0QlehESgMAkk2pGgMoXBEHPuJixk9mIrHFwjJ56KqkavinrYKnqiqCSmvozVlymSsWLFCDjHgSby0H/EwA7fbDc8Fc/Naty5cI1BIBEwvm8E0wXAETtHNLKGVNCX5glTZ4vqbxOQZtFVR5kzYMIoRh8RcR3SHj+SLcUhmYKS5bYR91m7/kTzy+1/fEoQkAg9tSEYSRjNa2+Adhz8YtkbbJ0lIaj9MupHauYCZqgzTul5zzTW4/fbb48nahlayPQrcXspgUZLJ44YAABDuSURBVOKDPT+0VplPkZCeeeYvSQnmlJFPE1J26Kba0iAaQPyN3N8uxcFrTbUbbvCn9vc7Ekbt+MBQZeMl8dhmJCQcgWDYWAO2rSPlliyFhSQkNuWYY47B/ff/FldccSVefvnljMZSRUHX1NTIc8zHzShofs6/U12UxhgT1NPTI6lkmaWR/zNYkVLaYNtZMmqg5WYlIVmzXmpCGiqa5nMSulJRCYfDmdgOHguHAB4lVVHJSZHCvWOYVlU20j4vL4nVS85Ymn1L958SkuOQIKmpE7QT5x7+cgRCkSQJyYAohrI4IRXSqC2bemtqcP311+OEE07ABx98gKuuukpOGknn4gkeXOTbt2/HeeedJ3m3f/e73+Hyyy7D7j17ZCOrytfN8o4++mgxIPOoobPOOhPPPfe8BCfyNJO5c+fiiSeewL59bdi8eTPWrFmTThMyuseqssngWDbXagkpIyj73Fx9/oVwjh6TyFARWPOqZKYoP/woeFc8APjMlxPnXcUXjkbZxCkDVup/YzViez7T4RhDGBorIZFwQuFoXAaKZ0ZVUlIwFDFDAeJyLEUoJthXiySfkdp26ePzn/88Fi++Eb/61a9x9dU/xW23LcWrr76aBEF/EstBBx2EpUtvw7XX/gxnnXWWnNl2552/wKOPrsCePXsljQrJliTz3HPPiSTGHfc8dHLu3DPwwgt/w86dO9Hc3IzTT/8X+Z8G5j/96U9CTrm+7CpbIhNDTNuQssGaElL9vX9E6N13ENr4AarmzEXgH6/B1TIO5YfMROi9dwB6eeh+/uufEd25DRWzT4HrkJncaCWSkHoxi8zkdqPisKPQfecSRD7ekE3T9ttnkwgpRvgNjBP7/UV1c8ARDEf4y7R2x5mqEIRkJxaqViQ/BgwuWrQI1157rZy4cccdd6Cjo8OQ3eIndaQa2ZkzZ2L58uW44IILcMYZZ8iZZ/z/ySdXYe/evaKOkQQo7SxZchMmT56MQw45BJs2bZK8RJSOqNZRSjvllFMwceJEOUn2gQd+h6effjrnk0kRkirYzGSgCSlbsOvvfQi+V1+Aa9xEOMc2IUxi+vIchHdtR8zTwzO2UH7AQfD8ehlC694SZ07lSaeh+l++Ce///heiO3eg9pIr0X33MpQ1NaP6nO+i997bEG3fqyWkIQyOnZB4uhDjHRNeNquERF3BSJaksDYMy8qonS8J6cADD8T5558vaTgYJDhqVB14outdd92N119/HYceeigWL14sEkxvrwdtbe3YsmULHn/8cWzY0PdNZSekuro6sQXx+Z/+9KdCbg8++KCQ3saNG3HOOefIhlbaiUg+POVD9ZnSCqOmeR8lq7vvvmcIwzDwI3ZCEidoPDhDq2zZwa0IqWzSFDjHjIWruQWhjz+E/7mnEP7wPTgrKuC+4jr4nlyJ0Lo34Rg1Bs7xk+GaPBWVx50omUMrvzQbXbffCPT2wNXQhPDObXCMcM9vdqj3/7SVkHhXJEIqMk8QUi9jRygcP3PHkJ/iu9wMQlJXvtz+VIeuuuonmDNnDh5++GGsWfMPkWT27NkjZ5Px+B+qT/w57LBZmD//EqxZ83csXboM7e3tfXpPAnvooYcSEtIXv/hFHHroDGzZslUCECdMmIBLLpmPb3/7O2LAPvPMM+V/2ppWrHgUxx9/vJySS4J6/fXVYkd67bXX8Oyzz2Lr1q05HyuryqbUY6W27TtH50PKBnASkv/Vv8E1abIQUnj7ZoTeX4+qr3wdvf95N+DtRe0VP4Nv1f9FeN1bcE2djqozzwM8Hvj++jSclVVwz78SnT+/FrH2PaJOyPt66O65bLpT8s/avWzcz2ad80oacoQjxjeJtJGWwwsVCvmK1FbRyldeeaVEK19++eVCSPaL0tO9994jJESbEu08qS47IZHI1q9fjyOPPAJbt24TexHLoLTEupnqg5LRlVdegbVr1+Hcc8/Bhg0finftySefFLWRBnW2j4byXF9WCcl61BP/1hJSdmiLhPTaC3BNNCSk8JurEeloR/lRx8JRXQ3vfz8C9/nfh5eEtP4tOFwuoL4RlSd+Ff5nnkD51Omonf9jdPz4h6CHzgkHaPUQT1B2Tdsvn7ZuHZGskWJCMrLTKmKS34qQ7H5/CkjGzY68J2ijl2vZsmUYN64VF174Q4lWVhe/u+uuX4rrnuEH1u/sIztr1iwsX/4HXHbZ5SLd8GjqW2+9FSeeeKKofvSe/eAHF8o2DV6PPvqo2JRoa6Iqd+GFF+K9997FtGkHYcmSJVi6dKlIRj/60Y8SNqxczqZkCSnudBZPWwxt5+qDBoaKtTJqB1a/DOeESXC6RyG47k2UTZmG8PtrUXHcSQhv+hiuyQci8MRjCL37Nkb/5pH4ZnLuVojBWVUjal2kq1OaEd/HgK6lixDbtnmoTdtvn0vey6a4RcFhEBOlT0dYnGxW8cnQ29S2ET6SL5XNOjokk9///kFcdNHFcW+Y8S13wv/mN7/GNddci7feemvAASXx/OIXv8Ann3wi5PbXv76AW265Rcq4/fZlmDRpMubNm5dQv771rW9JeEAoFMQzzzwr6ttTTz0t4QB33nmnGNVZ5z333JNXQpIJL5uazd9aZRv62iUhuRdchajXB5fbjUh3F8K7dqBm7v9BdPdOkZBoM4p2tMG38iGE31+HipNPMywWDoghvOrU0xHZu0e8c7EO4wVJ73PgzdUAjeL6ygiB1ISkbESmzOmIxJU5U2WwfOkwjKz5UtmsPaJX69Zbb8E3vvFNsR+RXFavXi2G5j/+8Y+4//778ec//3lAEKh+kdh2794tbn+W84c//AE/+cmP0djYJJtZ6VGjNMZNrPTGHXPMl1BdXSMxSosWXY8PPtiAzs4OPP74/wiJPfvsc6iqqsTNNxu5XHJ5pbIhqfI1IWWJ9Jh6IaVYKCReNe9jy1E2bjxivR7EolGUzToClcefDN+KB8TILQbW6lpUHHWshAnAVYZYIACHy4nA/1uD4Gt/Q6yjLbHnU6ttmY2PdS+b/ewX42VsbOR3RJjgNul4I6Mi820dw4IFl+Z9t/9FF12EefPOFnc8bTyMKfrssx0SR/T9738f69atlb/TuRh5fcUVV+Dkk08SIqL9h0btrq4uITe696+77jrcc8/dcrzT5z53CH75y7vwyCMPS+AkOdrr7RXDN/Ncf/TRR7j44ovTqTqje+yR2gp3/taElBGUSTc7at2oXfBjlE2eip7/uBPu876HSDCInmXXo/ygQ+E65FA4G5tRcdiR8Nx7GyJbPkXVty5A1UlflRAB3wvPwPf4w0DAj/IjvoSa838g5XseW47ImpeTtvoMvZX715N9CYn9t27wiZssDEJSXzL/UcL3n0ieVAiV7Y47bscpp3wF+/btxSuvvCJeL6pXdMsbxul1+OEPf5TWKNI7x2cnTZokgY333XefGMuppzIy++tfPw0rV64EYyH4PcMFmF6F0hgvGtG/973viXR19tlnYd26dVi9+u9p1Z3uTerUEbWXzf6cNmqni2Tf+2Ll5aj9znz4X3ke0U8+hGvaIXC2tCL4+kson3EYqk47E6isQvCN1Qi+9gIQCqDiK2fA1dSCwCvPI7Jze8LhLEbsUWNQdcY8RNvaEHhule18wqG3c3960u5lM/uuzEVJEpJy+ZtkZAUr34TEvWN3330Xdu/eI+e/0TOm3P4zZsyQIEd6yi644LsS3JjtZYiHKXbMZFtwhs+bXjaqxsl7R7RRO0Mw8327g14eFcGd78pGXvmmDcmS1ULtYYvrvwmVLdXmTisk+bQhkRhISOPHj5MtHWoDrDUim14w5gqi6pVtSpJ8bZQdyhRKdvvH9/TEgyO1hDQURJOfyflYGwEyOhhpCEOTbNROnussLsFB0Riv5BrsBJVPQhqob+ZWCtWBISBheyTnkzSLJvWN1DYL0zakLIDNw6PWeTOc5lAeupqXIg1CujkpisswZhsSkwo4dVgJyUpE8i6IE1WxCCkvyAyjQlNtrlXN0xLSMBoo3ZSsETCM2gYhWbdnWTNciKRkGrVVnYY0kjiKpACBkVn3tkQLSCYk803BN/C+c+foiOASHVfd7L4IWI3aVqlIBV+rJ4SQrIyl9DklIfHhhQsv1Udp52GW9d3tb+rSWkLKA+C6yKIhoCQkdbSaGQhsFYBEQuJetmQxyiSlwgVGFg2pIlasAyOLCL6uuqAI2N3+dvOQRUKKxkwVLXn7grYh5XfMUklI2oaUX8x16cVBIHlzrXWrlLmHUwQhZdTuz9DEz/OVD6k40AyfWu27/c3UFjHsO0dvrh0+I6Vbki0C9r1s1p0g1vwJQkiJvcwW97/V+q29bNkOR+rnU0tIxhtD25Dyg7kutTgIpJaQrI4cIwQgsblW2ZGs3rV8Z4wsDjTDp9ZUcUjK66AJafiMk25J9gjYCYklmgGQ5pFHKVW2hIEpHtKtVbbsByRVCXajtvUeTUj5wVyXWhwE+jNqi93IunWkb6S2NVGY0Xhma/ztb+/vpyfGPizlzlPMZ/3f+qBKxKT0xvSiXs060oneTlWH0fHUSSPU/WYaBOWK7D9C3Mx0Z5Y5UF9S1cEUKcuWLTUOMrccdM5mdlz374hsfD8Jc5UkbKCchdY8xTIWGWY4zEcdqds0cMvszwy2jHJTR2ZtSgervu0ernUMhrD5fTr9ThoPhwPVZ/0rav/twhRz3RapnRyHlBosw55kT+KWfI5YcrCTanzynhWzHCOrgDVk3CrCGff1JY9UmQi45AyiSQ4sNFRQu46auh/2ZWuPy1J1KHWqv37YYyuSicbE1sqLpops5oQR8oynQLdKq6p8E6tUBNv3hWIdv75kltyufNdhl77tgXH2aW+1ZabbDztm/dPy0LFKrsOaRsO+sJPrMOdWf8TU9/OB+23W13enxcB1pI/t0OuwopHMI8bcTZ5vKlKbKUfi+0kG2gRv74Aq0F6ptSJrefYwcbu4pv6355e2D/GAoeeWwxb7Tv6+b4FUbbK3q094e47qkNYwbafleCe1f9NcRINNXPv3g92fSm7qrwz1ua6jf/nBuhHUmgGxP+zMl3VqSTfV+PVXx1DKSjX+6rPEikkhWw82rwaZI7ad/YmWx7um1nRae9kSJwJYdT3borSys3rrqzQffaMzk/VGo3HmmyQVc1rJyiSIvqqVPRVscseHUoeSBE31LZ067O21kndfrMw6rM4F+xvPLMOc7IlMe7axSX4ppO53ev3oq7ba32qDjZ99PPvrh/1FlkpSTbUXyo6tfczzPw/TmyPmy3kgqdRo/UBzJJP11O88TLwI7ZpO8tmHmcyRPtJOH75IYx6msiFZO6wmm3XiWz1xViJJlq7slVsZNHlxD70Oc/CMSZn7OgYTg/tT71IRYX9YpSLzpNgMy8BasbK/ZezEYF0A6YyfdWGnekGo+lQKDkOyS7TCTEOaeFklSwl9pdG+E9RaR6nMw9KZIwOPR3HnYXwtKxtSatXKOAnAOK4kOVVAn01xlkmYbOA2J6x9kVklqVRvR7OOZD3ctOmYbbIuRlWjXZJKvw5jlZmL2Gp0ThZNU9Vhf2On7kfqOqz2qYH60beOZJzt+nq245dMJupEAmlFzuZI/6qxvY6+kb59yd4q2WU2fnapIF/zMHl8U5FFrudIIepItd4zmCNGYKS+NAIaAY1A8RGIR2oXvyG6BRoBjYBGQBOSngMaAY3AsEFAE9KwGQrdEI2ARkATkp4DGgGNwLBBQBPSsBkK3RCNgEZAE5KeAxoBjcCwQUAT0rAZCt0QjYBGQBOSngMaAY3AsEHg/wOEI85852sglwAAAABJRU5ErkJggg==;" vertex="1" parent="1">
          <mxGeometry x="140" y="50" width="196.54" height="350" as="geometry" />
        </mxCell>
        <mxCell id="KgD3_RwGLiOMR42IKv-A-4" value="" style="endArrow=classic;html=1;" edge="1" parent="1">
          <mxGeometry width="50" height="50" relative="1" as="geometry">
            <mxPoint x="110" y="378" as="sourcePoint" />
            <mxPoint x="146" y="377.9986636759966" as="targetPoint" />
          </mxGeometry>
        </mxCell>
        <mxCell id="KgD3_RwGLiOMR42IKv-A-5" value="&lt;p class=&quot;p1&quot; style=&quot;text-align: center ; margin: 0px ; font-stretch: normal ; line-height: normal ; font-family: &amp;#34;menlo&amp;#34;&quot;&gt;&lt;span style=&quot;background-color: rgb(255 , 255 , 255)&quot;&gt;UIApplication&lt;span class=&quot;s1&quot;&gt; (AutoTrack)&lt;/span&gt;&lt;/span&gt;&lt;/p&gt;&lt;hr size=&quot;1&quot;&gt;&lt;p style=&quot;margin: 0px ; margin-left: 4px&quot;&gt;&lt;br&gt;&lt;/p&gt;&lt;hr size=&quot;1&quot;&gt;&lt;p class=&quot;p1&quot; style=&quot;margin: 0px ; font-stretch: normal ; line-height: normal ; font-family: &amp;#34;menlo&amp;#34;&quot;&gt;&lt;font style=&quot;font-size: 12px ; background-color: rgb(255 , 255 , 255)&quot;&gt;- (&lt;span class=&quot;s1&quot;&gt;BOOL&lt;/span&gt;)&lt;span class=&quot;s2&quot;&gt;sa_sendAction&lt;/span&gt;:(&lt;span class=&quot;s1&quot;&gt;SEL&lt;/span&gt;)action&amp;nbsp;&lt;span class=&quot;s2&quot;&gt;to&lt;/span&gt;:(&lt;span class=&quot;s1&quot;&gt;id&lt;/span&gt;)to &lt;span class=&quot;s2&quot;&gt;from&lt;/span&gt;:(&lt;span class=&quot;s1&quot;&gt;id&lt;/span&gt;)from&amp;nbsp;&lt;span class=&quot;s2&quot;&gt;forEvent&lt;/span&gt;:(&lt;span class=&quot;s3&quot;&gt;UIEvent&lt;/span&gt; *)event&lt;/font&gt;&lt;/p&gt;&lt;p class=&quot;p1&quot; style=&quot;margin: 0px ; font-stretch: normal ; line-height: normal ; font-family: &amp;#34;menlo&amp;#34;&quot;&gt;&lt;font style=&quot;font-size: 12px ; background-color: rgb(255 , 255 , 255)&quot;&gt;&lt;br&gt;&lt;/font&gt;&lt;/p&gt;&lt;p class=&quot;p1&quot; style=&quot;margin: 0px ; font-stretch: normal ; line-height: normal ; font-family: &amp;#34;menlo&amp;#34;&quot;&gt;&lt;font style=&quot;font-size: 12px ; background-color: rgb(255 , 255 , 255)&quot;&gt;- (&lt;span class=&quot;s1&quot;&gt;void&lt;/span&gt;)&lt;span class=&quot;s2&quot;&gt;sa_track&lt;/span&gt;:(&lt;span class=&quot;s1&quot;&gt;SEL&lt;/span&gt;)action &lt;span class=&quot;s2&quot;&gt;to&lt;/span&gt;:(&lt;span class=&quot;s1&quot;&gt;id&lt;/span&gt;)to &lt;span class=&quot;s2&quot;&gt;from&lt;/span&gt;:(&lt;span class=&quot;s3&quot;&gt;NSObject&lt;/span&gt; *)from &lt;span class=&quot;s2&quot;&gt;forEvent&lt;/span&gt;:(&lt;span class=&quot;s3&quot;&gt;UIEvent&lt;/span&gt; *)event{&lt;/font&gt;&lt;/p&gt;&lt;p class=&quot;p1&quot; style=&quot;margin: 0px ; font-stretch: normal ; line-height: normal ; font-family: &amp;#34;menlo&amp;#34;&quot;&gt;&lt;font style=&quot;font-size: 12px ; background-color: rgb(255 , 255 , 255)&quot;&gt;…&lt;/font&gt;&lt;/p&gt;&lt;p class=&quot;p1&quot; style=&quot;margin: 0px ; font-stretch: normal ; line-height: normal ; font-family: &amp;#34;menlo&amp;#34;&quot;&gt;&lt;font style=&quot;font-size: 12px ; background-color: rgb(255 , 255 , 255)&quot;&gt;&lt;span class=&quot;s1&quot;&gt;&amp;nbsp; &amp;nbsp;&amp;nbsp;&lt;/span&gt;&lt;span class=&quot;s2&quot;&gt;NSMutableDictionary&lt;/span&gt;&lt;span class=&quot;s1&quot;&gt;&amp;nbsp;*properties = [&lt;/span&gt;SAAutoTrackUtils&lt;span class=&quot;s1&quot;&gt;&amp;nbsp;&lt;/span&gt;propertiesWithAutoTrackObject&lt;span class=&quot;s1&quot;&gt;:object&amp;nbsp;&lt;/span&gt;&lt;/font&gt;&lt;/p&gt;&lt;p class=&quot;p1&quot; style=&quot;margin: 0px ; font-stretch: normal ; line-height: normal ; font-family: &amp;#34;menlo&amp;#34;&quot;&gt;&lt;font style=&quot;font-size: 12px ; background-color: rgb(255 , 255 , 255)&quot;&gt;viewController&lt;span class=&quot;s1&quot;&gt;:&lt;/span&gt;&lt;span class=&quot;s3&quot;&gt;nil&lt;/span&gt;&lt;span class=&quot;s1&quot;&gt;];&lt;/span&gt;&lt;/font&gt;&lt;/p&gt;&lt;p class=&quot;p2&quot; style=&quot;margin: 0px ; font-stretch: normal ; line-height: normal ; font-family: &amp;#34;menlo&amp;#34;&quot;&gt;&lt;font style=&quot;font-size: 12px ; background-color: rgb(255 , 255 , 255)&quot;&gt;&lt;span class=&quot;Apple-converted-space&quot;&gt;&amp;nbsp; &amp;nbsp;&amp;nbsp;&lt;/span&gt;&lt;span class=&quot;s3&quot;&gt;if&lt;/span&gt;&amp;nbsp;(!properties) {&lt;/font&gt;&lt;/p&gt;&lt;p class=&quot;p2&quot; style=&quot;margin: 0px ; font-stretch: normal ; line-height: normal ; font-family: &amp;#34;menlo&amp;#34;&quot;&gt;&lt;font style=&quot;font-size: 12px ; background-color: rgb(255 , 255 , 255)&quot;&gt;&lt;span class=&quot;Apple-converted-space&quot;&gt;&amp;nbsp; &amp;nbsp; &amp;nbsp; &amp;nbsp;&amp;nbsp;&lt;/span&gt;&lt;span class=&quot;s3&quot;&gt;return&lt;/span&gt;;&lt;/font&gt;&lt;/p&gt;&lt;p class=&quot;p2&quot; style=&quot;margin: 0px ; font-stretch: normal ; line-height: normal ; font-family: &amp;#34;menlo&amp;#34;&quot;&gt;&lt;font style=&quot;font-size: 12px ; background-color: rgb(255 , 255 , 255)&quot;&gt;&lt;span class=&quot;Apple-converted-space&quot;&gt;&amp;nbsp; &amp;nbsp;&amp;nbsp;&lt;/span&gt;}&lt;/font&gt;&lt;/p&gt;&lt;p class=&quot;p1&quot; style=&quot;margin: 0px ; font-stretch: normal ; line-height: normal ; font-family: &amp;#34;menlo&amp;#34;&quot;&gt;&lt;font style=&quot;font-size: 12px ; background-color: rgb(255 , 255 , 255)&quot;&gt;…&lt;/font&gt;&lt;/p&gt;&lt;p class=&quot;p1&quot; style=&quot;margin: 0px ; font-stretch: normal ; line-height: normal ; font-family: &amp;#34;menlo&amp;#34;&quot;&gt;&lt;span class=&quot;s1&quot; style=&quot;background-color: rgb(255 , 255 , 255)&quot;&gt;&lt;font style=&quot;font-size: 12px&quot;&gt;&lt;br&gt;&lt;/font&gt;&lt;/span&gt;&lt;/p&gt;&lt;p class=&quot;p1&quot; style=&quot;margin: 0px ; font-stretch: normal ; line-height: normal ; font-family: &amp;#34;menlo&amp;#34;&quot;&gt;&lt;font style=&quot;font-size: 12px ; background-color: rgb(255 , 255 , 255)&quot;&gt;…&lt;/font&gt;&lt;/p&gt;&lt;p class=&quot;p1&quot; style=&quot;margin: 0px ; font-stretch: normal ; line-height: normal ; font-family: &amp;#34;menlo&amp;#34;&quot;&gt;&lt;font style=&quot;font-size: 12px&quot;&gt;&lt;span class=&quot;s1&quot; style=&quot;background-color: rgb(255 , 255 , 255)&quot;&gt;&lt;/span&gt;&lt;/font&gt;&lt;/p&gt;&lt;p class=&quot;p1&quot; style=&quot;margin: 0px ; font-stretch: normal ; line-height: normal ; font-family: &amp;#34;menlo&amp;#34;&quot;&gt;&lt;font style=&quot;font-size: 12px ; background-color: rgb(255 , 255 , 255)&quot;&gt;&lt;span class=&quot;s1&quot;&gt;[[&lt;/span&gt;SensorsAnalyticsSDK&lt;span class=&quot;s1&quot;&gt;&amp;nbsp;&lt;/span&gt;sharedInstance&lt;span class=&quot;s1&quot;&gt;]&amp;nbsp;&lt;/span&gt;track&lt;span class=&quot;s1&quot;&gt;:&lt;/span&gt;SA_EVENT_NAME_APP_CLICK&lt;span class=&quot;s1&quot;&gt;&amp;nbsp;&lt;/span&gt;&lt;/font&gt;&lt;/p&gt;&lt;p class=&quot;p1&quot; style=&quot;margin: 0px ; font-stretch: normal ; line-height: normal ; font-family: &amp;#34;menlo&amp;#34;&quot;&gt;&lt;font style=&quot;font-size: 12px ; background-color: rgb(255 , 255 , 255)&quot;&gt;withProperties&lt;span class=&quot;s1&quot;&gt;:properties&amp;nbsp;&lt;/span&gt;&lt;/font&gt;&lt;/p&gt;&lt;p class=&quot;p1&quot; style=&quot;margin: 0px ; font-stretch: normal ; line-height: normal ; font-family: &amp;#34;menlo&amp;#34;&quot;&gt;&lt;font style=&quot;font-size: 12px ; background-color: rgb(255 , 255 , 255)&quot;&gt;withTrackType&lt;span class=&quot;s1&quot;&gt;:&lt;/span&gt;SensorsAnalyticsTrackTypeAuto&lt;span class=&quot;s1&quot;&gt;];&lt;/span&gt;&lt;/font&gt;&lt;/p&gt;&lt;p class=&quot;p1&quot; style=&quot;margin: 0px ; font-stretch: normal ; line-height: normal ; font-family: &amp;#34;menlo&amp;#34;&quot;&gt;&lt;span class=&quot;s1&quot; style=&quot;background-color: rgb(255 , 255 , 255)&quot;&gt;&lt;font style=&quot;font-size: 12px&quot;&gt;…&lt;/font&gt;&lt;/span&gt;&lt;/p&gt;&lt;p class=&quot;p1&quot; style=&quot;margin: 0px ; font-stretch: normal ; line-height: normal ; font-family: &amp;#34;menlo&amp;#34;&quot;&gt;&lt;font style=&quot;font-size: 12px ; background-color: rgb(255 , 255 , 255)&quot;&gt;}&lt;/font&gt;&lt;/p&gt;" style="verticalAlign=top;align=left;overflow=fill;fontSize=12;fontFamily=Helvetica;html=1;" vertex="1" parent="1">
          <mxGeometry x="410" y="40" width="760" height="320" as="geometry" />
        </mxCell>
        <mxCell id="KgD3_RwGLiOMR42IKv-A-12" value="" style="edgeStyle=elbowEdgeStyle;elbow=horizontal;endArrow=classic;html=1;" edge="1" parent="1">
          <mxGeometry width="50" height="50" relative="1" as="geometry">
            <mxPoint x="340" y="380" as="sourcePoint" />
            <mxPoint x="400" y="100" as="targetPoint" />
          </mxGeometry>
        </mxCell>
        <mxCell id="KgD3_RwGLiOMR42IKv-A-13" value="&lt;p class=&quot;p1&quot; style=&quot;margin: 0px ; font-stretch: normal ; line-height: normal ; font-family: &amp;#34;menlo&amp;#34;&quot;&gt;&lt;span style=&quot;background-color: rgb(255 , 255 , 255)&quot;&gt;&lt;font style=&quot;font-size: 12px&quot;&gt;SensorsAnalyticsSDK&lt;/font&gt;&lt;/span&gt;&lt;/p&gt;&lt;hr size=&quot;1&quot;&gt;&lt;p style=&quot;margin: 0px 0px 0px 4px&quot;&gt;&lt;span style=&quot;background-color: rgb(255 , 255 , 255)&quot;&gt;&lt;font style=&quot;font-size: 12px&quot;&gt;&lt;br&gt;&lt;/font&gt;&lt;/span&gt;&lt;/p&gt;&lt;hr size=&quot;1&quot;&gt;&lt;p class=&quot;p1&quot; style=&quot;margin: 0px ; font-stretch: normal ; line-height: normal ; font-family: &amp;#34;menlo&amp;#34;&quot;&gt;&lt;span style=&quot;background-color: rgb(255 , 255 , 255)&quot;&gt;&lt;font style=&quot;font-size: 12px&quot;&gt;- (&lt;span class=&quot;s1&quot;&gt;void&lt;/span&gt;)&lt;span class=&quot;s2&quot;&gt;sa_track&lt;/span&gt;:(&lt;span class=&quot;s1&quot;&gt;SEL&lt;/span&gt;)action &lt;span class=&quot;s2&quot;&gt;to&lt;/span&gt;:(&lt;span class=&quot;s1&quot;&gt;id&lt;/span&gt;)to &lt;span class=&quot;s2&quot;&gt;from&lt;/span&gt;:(&lt;span class=&quot;s3&quot;&gt;NSObject&lt;/span&gt; *)from &lt;span class=&quot;s2&quot;&gt;forEvent&lt;/span&gt;:(&lt;span class=&quot;s3&quot;&gt;UIEvent&lt;/span&gt; *)event{}&lt;/font&gt;&lt;/span&gt;&lt;/p&gt;&lt;p class=&quot;p1&quot; style=&quot;margin: 0px ; font-stretch: normal ; line-height: normal ; font-family: &amp;#34;menlo&amp;#34;&quot;&gt;&lt;span style=&quot;background-color: rgb(255 , 255 , 255)&quot;&gt;&lt;font style=&quot;font-size: 12px&quot;&gt;&lt;br&gt;&lt;/font&gt;&lt;/span&gt;&lt;/p&gt;&lt;p class=&quot;p1&quot; style=&quot;margin: 0px ; font-stretch: normal ; line-height: normal ; font-family: &amp;#34;menlo&amp;#34;&quot;&gt;&lt;span style=&quot;background-color: rgb(255 , 255 , 255)&quot;&gt;&lt;font style=&quot;font-size: 12px&quot;&gt;&lt;br&gt;&lt;/font&gt;&lt;/span&gt;&lt;/p&gt;&lt;p class=&quot;p1&quot; style=&quot;margin: 0px ; font-stretch: normal ; line-height: normal ; font-family: &amp;#34;menlo&amp;#34;&quot;&gt;&lt;span style=&quot;background-color: rgb(255 , 255 , 255)&quot;&gt;&lt;font style=&quot;font-size: 12px&quot;&gt;- (&lt;span class=&quot;s1&quot;&gt;void&lt;/span&gt;)&lt;span class=&quot;s2&quot;&gt;track&lt;/span&gt;:(&lt;span class=&quot;s3&quot;&gt;NSString&lt;/span&gt; *)event &lt;span class=&quot;s2&quot;&gt;withProperties&lt;/span&gt;:(&lt;span class=&quot;s3&quot;&gt;NSDictionary&lt;/span&gt; *)propertieDict &lt;span class=&quot;s2&quot;&gt;withType&lt;/span&gt;:(&lt;span class=&quot;s3&quot;&gt;NSString&lt;/span&gt; *)type {&lt;/font&gt;&lt;/span&gt;&lt;/p&gt;&lt;p class=&quot;p1&quot; style=&quot;margin: 0px ; font-stretch: normal ; line-height: normal ; font-family: &amp;#34;menlo&amp;#34;&quot;&gt;&lt;span style=&quot;background-color: rgb(255 , 255 , 255)&quot;&gt;&lt;font style=&quot;font-size: 12px&quot;&gt;…&lt;/font&gt;&lt;/span&gt;&lt;/p&gt;&lt;p class=&quot;p1&quot; style=&quot;margin: 0px ; font-stretch: normal ; line-height: normal ; font-family: &amp;#34;menlo&amp;#34;&quot;&gt;&lt;span style=&quot;background-color: rgb(255 , 255 , 255)&quot;&gt;&lt;font style=&quot;font-size: 12px&quot;&gt;&lt;span class=&quot;Apple-converted-space&quot;&gt;&amp;nbsp; &lt;/span&gt;[&lt;span class=&quot;s1&quot;&gt;self&lt;/span&gt;.&lt;span class=&quot;s2&quot;&gt;eventTracker&lt;/span&gt; &lt;span class=&quot;s2&quot;&gt;trackEvent&lt;/span&gt;:trackEventDic &lt;span class=&quot;s2&quot;&gt;isSignUp&lt;/span&gt;:[type &lt;span class=&quot;s3&quot;&gt;isEqualToString&lt;/span&gt;:&lt;span class=&quot;s4&quot;&gt;@&quot;track_signup&quot;&lt;/span&gt;]];&lt;/font&gt;&lt;/span&gt;&lt;/p&gt;&lt;p class=&quot;p1&quot; style=&quot;margin: 0px ; font-stretch: normal ; line-height: normal ; font-family: &amp;#34;menlo&amp;#34;&quot;&gt;&lt;span style=&quot;background-color: rgb(255 , 255 , 255)&quot;&gt;&lt;font style=&quot;font-size: 12px&quot;&gt;…&lt;/font&gt;&lt;/span&gt;&lt;/p&gt;&lt;p class=&quot;p1&quot; style=&quot;margin: 0px ; font-stretch: normal ; line-height: normal ; font-family: &amp;#34;menlo&amp;#34;&quot;&gt;&lt;span style=&quot;background-color: rgb(255 , 255 , 255)&quot;&gt;&lt;font style=&quot;font-size: 12px&quot;&gt;&lt;br&gt;&lt;/font&gt;&lt;/span&gt;&lt;/p&gt;&lt;p class=&quot;p1&quot; style=&quot;margin: 0px ; font-stretch: normal ; line-height: normal ; font-family: &amp;#34;menlo&amp;#34;&quot;&gt;&lt;span style=&quot;background-color: rgb(255 , 255 , 255)&quot;&gt;&lt;font style=&quot;font-size: 12px&quot;&gt;}&lt;/font&gt;&lt;/span&gt;&lt;/p&gt;&lt;p class=&quot;p1&quot; style=&quot;margin: 0px ; font-stretch: normal ; line-height: normal ; font-family: &amp;#34;menlo&amp;#34;&quot;&gt;&lt;span style=&quot;background-color: rgb(255 , 255 , 255)&quot;&gt;&lt;br&gt;&lt;/span&gt;&lt;/p&gt;&lt;p class=&quot;p1&quot; style=&quot;margin: 0px ; font-stretch: normal ; line-height: normal ; font-family: &amp;#34;menlo&amp;#34;&quot;&gt;&lt;span style=&quot;background-color: rgb(30 , 32 , 40) ; color: rgb(255 , 255 , 255) ; font-size: 14px&quot;&gt;&lt;br&gt;&lt;/span&gt;&lt;/p&gt;" style="verticalAlign=top;align=left;overflow=fill;fontSize=12;fontFamily=Helvetica;html=1;" vertex="1" parent="1">
          <mxGeometry x="410" y="380" width="890" height="160" as="geometry" />
        </mxCell>
        <mxCell id="KgD3_RwGLiOMR42IKv-A-14" value="&lt;p class=&quot;p1&quot; style=&quot;margin: 0px ; font-stretch: normal ; line-height: normal ; font-family: &amp;#34;menlo&amp;#34;&quot;&gt;&lt;font style=&quot;font-size: 12px ; background-color: rgb(255 , 255 , 255)&quot;&gt;SAEventTracker&lt;/font&gt;&lt;/p&gt;&lt;hr size=&quot;1&quot;&gt;&lt;p style=&quot;margin: 0px 0px 0px 4px&quot;&gt;&lt;font style=&quot;font-size: 12px ; background-color: rgb(255 , 255 , 255)&quot;&gt;&lt;br&gt;&lt;/font&gt;&lt;/p&gt;&lt;hr size=&quot;1&quot;&gt;&lt;p class=&quot;p1&quot; style=&quot;margin: 0px ; font-stretch: normal ; line-height: normal ; font-family: &amp;#34;menlo&amp;#34;&quot;&gt;&lt;font style=&quot;font-size: 12px ; background-color: rgb(255 , 255 , 255)&quot;&gt;- (&lt;span class=&quot;s1&quot;&gt;void&lt;/span&gt;)&lt;span class=&quot;s2&quot;&gt;trackEvent&lt;/span&gt;:(&lt;span class=&quot;s3&quot;&gt;NSDictionary&lt;/span&gt; *)event &lt;span class=&quot;s2&quot;&gt;isSignUp&lt;/span&gt;:(&lt;span class=&quot;s1&quot;&gt;BOOL&lt;/span&gt;)isSignUp {&lt;/font&gt;&lt;/p&gt;&lt;p class=&quot;p2&quot; style=&quot;margin: 0px ; font-stretch: normal ; line-height: normal ; font-family: &amp;#34;menlo&amp;#34;&quot;&gt;&lt;font style=&quot;font-size: 12px ; background-color: rgb(255 , 255 , 255)&quot;&gt;&lt;span class=&quot;s4&quot;&gt;&amp;nbsp; &amp;nbsp; &lt;/span&gt;SAEventRecord&lt;span class=&quot;s4&quot;&gt; *record = [[&lt;/span&gt;SAEventRecord&lt;span class=&quot;s4&quot;&gt; &lt;/span&gt;&lt;span class=&quot;s3&quot;&gt;alloc&lt;/span&gt;&lt;span class=&quot;s4&quot;&gt;] &lt;/span&gt;initWithEvent&lt;span class=&quot;s4&quot;&gt;:event &lt;/span&gt;type&lt;span class=&quot;s4&quot;&gt;:&lt;/span&gt;&lt;span class=&quot;s5&quot;&gt;@&quot;POST&quot;&lt;/span&gt;&lt;span class=&quot;s4&quot;&gt;];&lt;/span&gt;&lt;/font&gt;&lt;/p&gt;&lt;p class=&quot;p3&quot; style=&quot;margin: 0px ; font-stretch: normal ; line-height: normal ; font-family: &amp;#34;menlo&amp;#34;&quot;&gt;&lt;font style=&quot;font-size: 12px ; background-color: rgb(255 , 255 , 255)&quot;&gt;&lt;span class=&quot;s4&quot;&gt;&amp;nbsp; &amp;nbsp; &lt;/span&gt;// 加密&lt;/font&gt;&lt;/p&gt;&lt;p class=&quot;p2&quot; style=&quot;margin: 0px ; font-stretch: normal ; line-height: normal ; font-family: &amp;#34;menlo&amp;#34;&quot;&gt;&lt;font style=&quot;font-size: 12px ; background-color: rgb(255 , 255 , 255)&quot;&gt;&lt;span class=&quot;s4&quot;&gt;&amp;nbsp; &amp;nbsp; &lt;/span&gt;&lt;span class=&quot;s1&quot;&gt;if&lt;/span&gt;&lt;span class=&quot;s4&quot;&gt; (&lt;/span&gt;&lt;span class=&quot;s1&quot;&gt;self&lt;/span&gt;&lt;span class=&quot;s4&quot;&gt;.&lt;/span&gt;enableEncrypt&lt;span class=&quot;s4&quot;&gt;) {&lt;/span&gt;&lt;/font&gt;&lt;/p&gt;&lt;p class=&quot;p2&quot; style=&quot;margin: 0px ; font-stretch: normal ; line-height: normal ; font-family: &amp;#34;menlo&amp;#34;&quot;&gt;&lt;font style=&quot;font-size: 12px ; background-color: rgb(255 , 255 , 255)&quot;&gt;&lt;span class=&quot;s4&quot;&gt;&amp;nbsp; &amp;nbsp; &amp;nbsp; &amp;nbsp; &lt;/span&gt;&lt;span class=&quot;s3&quot;&gt;NSDictionary&lt;/span&gt;&lt;span class=&quot;s4&quot;&gt; *obj = [&lt;/span&gt;&lt;span class=&quot;s1&quot;&gt;self&lt;/span&gt;&lt;span class=&quot;s4&quot;&gt;.&lt;/span&gt;encryptBuilder&lt;span class=&quot;s4&quot;&gt; &lt;/span&gt;encryptionJSONObject&lt;span class=&quot;s4&quot;&gt;:record.&lt;/span&gt;event&lt;span class=&quot;s4&quot;&gt;];&lt;/span&gt;&lt;/font&gt;&lt;/p&gt;&lt;p class=&quot;p1&quot; style=&quot;margin: 0px ; font-stretch: normal ; line-height: normal ; font-family: &amp;#34;menlo&amp;#34;&quot;&gt;&lt;font style=&quot;font-size: 12px ; background-color: rgb(255 , 255 , 255)&quot;&gt;&lt;span class=&quot;Apple-converted-space&quot;&gt;&amp;nbsp; &amp;nbsp; &amp;nbsp; &amp;nbsp; &lt;/span&gt;[record &lt;span class=&quot;s6&quot;&gt;setSecretObject&lt;/span&gt;:obj];&lt;/font&gt;&lt;/p&gt;&lt;p class=&quot;p1&quot; style=&quot;margin: 0px ; font-stretch: normal ; line-height: normal ; font-family: &amp;#34;menlo&amp;#34;&quot;&gt;&lt;font style=&quot;font-size: 12px ; background-color: rgb(255 , 255 , 255)&quot;&gt;&lt;span class=&quot;Apple-converted-space&quot;&gt;&amp;nbsp; &amp;nbsp; &lt;/span&gt;}&lt;/font&gt;&lt;/p&gt;&lt;p class=&quot;p4&quot; style=&quot;margin: 0px ; font-stretch: normal ; line-height: normal ; font-family: &amp;#34;menlo&amp;#34; ; min-height: 16px&quot;&gt;&lt;font style=&quot;font-size: 12px ; background-color: rgb(255 , 255 , 255)&quot;&gt;&lt;br&gt;&lt;/font&gt;&lt;/p&gt;&lt;p class=&quot;p2&quot; style=&quot;margin: 0px ; font-stretch: normal ; line-height: normal ; font-family: &amp;#34;menlo&amp;#34;&quot;&gt;&lt;font style=&quot;font-size: 12px ; background-color: rgb(255 , 255 , 255)&quot;&gt;&lt;span class=&quot;s4&quot;&gt;&lt;span class=&quot;Apple-converted-space&quot;&gt;&amp;nbsp; &amp;nbsp; &lt;/span&gt;[&lt;/span&gt;&lt;span class=&quot;s1&quot;&gt;self&lt;/span&gt;&lt;span class=&quot;s4&quot;&gt;.&lt;/span&gt;eventStore&lt;span class=&quot;s4&quot;&gt; &lt;/span&gt;insertRecord&lt;span class=&quot;s4&quot;&gt;:record];&lt;/span&gt;&lt;/font&gt;&lt;/p&gt;&lt;p class=&quot;p4&quot; style=&quot;margin: 0px ; font-stretch: normal ; line-height: normal ; font-family: &amp;#34;menlo&amp;#34; ; min-height: 16px&quot;&gt;&lt;font style=&quot;font-size: 12px ; background-color: rgb(255 , 255 , 255)&quot;&gt;&lt;br&gt;&lt;/font&gt;&lt;/p&gt;&lt;p class=&quot;p3&quot; style=&quot;margin: 0px ; font-stretch: normal ; line-height: normal ; font-family: &amp;#34;menlo&amp;#34;&quot;&gt;&lt;font style=&quot;font-size: 12px ; background-color: rgb(255 , 255 , 255)&quot;&gt;&lt;span class=&quot;s4&quot;&gt;&amp;nbsp; &amp;nbsp; &lt;/span&gt;// $SignUp 事件或者本地缓存的数据是超过 flushBulkSize&lt;/font&gt;&lt;/p&gt;&lt;p class=&quot;p2&quot; style=&quot;margin: 0px ; font-stretch: normal ; line-height: normal ; font-family: &amp;#34;menlo&amp;#34;&quot;&gt;&lt;font style=&quot;font-size: 12px ; background-color: rgb(255 , 255 , 255)&quot;&gt;&lt;span class=&quot;s4&quot;&gt;&amp;nbsp; &amp;nbsp; &lt;/span&gt;&lt;span class=&quot;s1&quot;&gt;if&lt;/span&gt;&lt;span class=&quot;s4&quot;&gt; (isSignUp || &lt;/span&gt;&lt;span class=&quot;s1&quot;&gt;self&lt;/span&gt;&lt;span class=&quot;s4&quot;&gt;.&lt;/span&gt;eventStore&lt;span class=&quot;s4&quot;&gt;.&lt;/span&gt;count&lt;span class=&quot;s4&quot;&gt; &amp;gt; &lt;/span&gt;&lt;span class=&quot;s1&quot;&gt;self&lt;/span&gt;&lt;span class=&quot;s4&quot;&gt;.&lt;/span&gt;flushBulkSize&lt;span class=&quot;s4&quot;&gt; || &lt;/span&gt;&lt;span class=&quot;s1&quot;&gt;self&lt;/span&gt;&lt;span class=&quot;s4&quot;&gt;.&lt;/span&gt;isDebugMode&lt;span class=&quot;s4&quot;&gt;) {&lt;/span&gt;&lt;/font&gt;&lt;/p&gt;&lt;p class=&quot;p3&quot; style=&quot;margin: 0px ; font-stretch: normal ; line-height: normal ; font-family: &amp;#34;menlo&amp;#34;&quot;&gt;&lt;font style=&quot;font-size: 12px ; background-color: rgb(255 , 255 , 255)&quot;&gt;&lt;span class=&quot;s4&quot;&gt;&amp;nbsp; &amp;nbsp; &amp;nbsp; &amp;nbsp; &lt;/span&gt;// 添加异步队列任务，保证数据继续入库&lt;/font&gt;&lt;/p&gt;&lt;p class=&quot;p1&quot; style=&quot;margin: 0px ; font-stretch: normal ; line-height: normal ; font-family: &amp;#34;menlo&amp;#34;&quot;&gt;&lt;font style=&quot;font-size: 12px ; background-color: rgb(255 , 255 , 255)&quot;&gt;&lt;span class=&quot;Apple-converted-space&quot;&gt;&amp;nbsp; &amp;nbsp; &amp;nbsp; &amp;nbsp; &lt;/span&gt;&lt;span class=&quot;s3&quot;&gt;dispatch_async&lt;/span&gt;(&lt;span class=&quot;s1&quot;&gt;self&lt;/span&gt;.&lt;span class=&quot;s6&quot;&gt;queue&lt;/span&gt;, ^{&lt;/font&gt;&lt;/p&gt;&lt;p class=&quot;p2&quot; style=&quot;margin: 0px ; font-stretch: normal ; line-height: normal ; font-family: &amp;#34;menlo&amp;#34;&quot;&gt;&lt;font style=&quot;font-size: 12px ; background-color: rgb(255 , 255 , 255)&quot;&gt;&lt;span class=&quot;s4&quot;&gt;&lt;span class=&quot;Apple-converted-space&quot;&gt;&amp;nbsp; &amp;nbsp; &amp;nbsp; &amp;nbsp; &amp;nbsp; &amp;nbsp; &lt;/span&gt;[&lt;/span&gt;&lt;span class=&quot;s1&quot;&gt;self&lt;/span&gt;&lt;span class=&quot;s4&quot;&gt; &lt;/span&gt;flushAllEventRecords&lt;span class=&quot;s4&quot;&gt;];&lt;/span&gt;&lt;/font&gt;&lt;/p&gt;&lt;p class=&quot;p1&quot; style=&quot;margin: 0px ; font-stretch: normal ; line-height: normal ; font-family: &amp;#34;menlo&amp;#34;&quot;&gt;&lt;font style=&quot;font-size: 12px ; background-color: rgb(255 , 255 , 255)&quot;&gt;&lt;span class=&quot;Apple-converted-space&quot;&gt;&amp;nbsp; &amp;nbsp; &amp;nbsp; &amp;nbsp; &lt;/span&gt;});&lt;/font&gt;&lt;/p&gt;&lt;p class=&quot;p1&quot; style=&quot;margin: 0px ; font-stretch: normal ; line-height: normal ; font-family: &amp;#34;menlo&amp;#34;&quot;&gt;&lt;font style=&quot;font-size: 12px ; background-color: rgb(255 , 255 , 255)&quot;&gt;&lt;span class=&quot;Apple-converted-space&quot;&gt;&amp;nbsp; &amp;nbsp; &lt;/span&gt;}&lt;/font&gt;&lt;/p&gt;&lt;p class=&quot;p1&quot; style=&quot;margin: 0px ; font-stretch: normal ; line-height: normal ; font-family: &amp;#34;menlo&amp;#34;&quot;&gt;&lt;font style=&quot;font-size: 12px ; background-color: rgb(255 , 255 , 255)&quot;&gt;}&lt;/font&gt;&lt;/p&gt;&lt;p class=&quot;p1&quot; style=&quot;margin: 0px ; font-stretch: normal ; line-height: normal ; font-family: &amp;#34;menlo&amp;#34;&quot;&gt;&lt;font style=&quot;font-size: 12px ; background-color: rgb(255 , 255 , 255)&quot;&gt;&lt;br&gt;&lt;/font&gt;&lt;/p&gt;&lt;p class=&quot;p1&quot; style=&quot;margin: 0px ; font-stretch: normal ; line-height: normal ; font-family: &amp;#34;menlo&amp;#34;&quot;&gt;&lt;font style=&quot;font-size: 12px ; background-color: rgb(255 , 255 , 255)&quot;&gt;&lt;span class=&quot;s1&quot;&gt;- (&lt;/span&gt;&lt;span class=&quot;s2&quot;&gt;BOOL&lt;/span&gt;&lt;span class=&quot;s1&quot;&gt;)&lt;/span&gt;flushRecordsWithSize&lt;span class=&quot;s1&quot;&gt;:(&lt;/span&gt;&lt;span class=&quot;s3&quot;&gt;NSUInteger&lt;/span&gt;&lt;span class=&quot;s1&quot;&gt;)size {&lt;/span&gt;&lt;/font&gt;&lt;/p&gt;&lt;p class=&quot;p1&quot; style=&quot;margin: 0px ; font-stretch: normal ; line-height: normal ; font-family: &amp;#34;menlo&amp;#34;&quot;&gt;&lt;font style=&quot;font-size: 12px ; background-color: rgb(255 , 255 , 255)&quot;&gt;…&lt;/font&gt;&lt;/p&gt;&lt;p class=&quot;p1&quot; style=&quot;margin: 0px ; font-stretch: normal ; line-height: normal ; font-family: &amp;#34;menlo&amp;#34;&quot;&gt;&lt;font style=&quot;font-size: 12px ; background-color: rgb(255 , 255 , 255)&quot;&gt;&lt;span class=&quot;s1&quot;&gt;[&lt;/span&gt;&lt;span class=&quot;s2&quot;&gt;self&lt;/span&gt;&lt;span class=&quot;s1&quot;&gt;.&lt;/span&gt;eventFlush&lt;span class=&quot;s1&quot;&gt; &lt;/span&gt;flushEventRecords&lt;span class=&quot;s1&quot;&gt;:encryptRecords &lt;/span&gt;completion&lt;span class=&quot;s1&quot;&gt;:^(&lt;/span&gt;&lt;span class=&quot;s2&quot;&gt;BOOL&lt;/span&gt;&lt;span class=&quot;s1&quot;&gt; success) {&lt;/span&gt;&lt;/font&gt;&lt;/p&gt;&lt;p class=&quot;p2&quot; style=&quot;margin: 0px ; font-stretch: normal ; line-height: normal ; font-family: &amp;#34;menlo&amp;#34;&quot;&gt;&lt;font style=&quot;font-size: 12px ; background-color: rgb(255 , 255 , 255)&quot;&gt;&lt;span class=&quot;Apple-converted-space&quot;&gt;&amp;nbsp; &amp;nbsp; &amp;nbsp; &amp;nbsp; &lt;/span&gt;&lt;span class=&quot;s2&quot;&gt;__strong&lt;/span&gt; &lt;span class=&quot;s2&quot;&gt;typeof&lt;/span&gt;(weakSelf) strongSelf = weakSelf;&lt;/font&gt;&lt;/p&gt;&lt;p class=&quot;p2&quot; style=&quot;margin: 0px ; font-stretch: normal ; line-height: normal ; font-family: &amp;#34;menlo&amp;#34;&quot;&gt;&lt;font style=&quot;font-size: 12px ; background-color: rgb(255 , 255 , 255)&quot;&gt;&lt;span class=&quot;Apple-converted-space&quot;&gt;&amp;nbsp; &amp;nbsp; &amp;nbsp; &amp;nbsp; &lt;/span&gt;&lt;span class=&quot;s2&quot;&gt;void&lt;/span&gt;(^block)(&lt;span class=&quot;s2&quot;&gt;void&lt;/span&gt;) = ^ {&lt;/font&gt;&lt;/p&gt;&lt;p class=&quot;p2&quot; style=&quot;margin: 0px ; font-stretch: normal ; line-height: normal ; font-family: &amp;#34;menlo&amp;#34;&quot;&gt;&lt;font style=&quot;font-size: 12px ; background-color: rgb(255 , 255 , 255)&quot;&gt;&lt;span class=&quot;Apple-converted-space&quot;&gt;&amp;nbsp; &amp;nbsp; &amp;nbsp; &amp;nbsp; &amp;nbsp; &amp;nbsp; &lt;/span&gt;&lt;span class=&quot;s2&quot;&gt;if&lt;/span&gt; (!success) {&lt;/font&gt;&lt;/p&gt;&lt;p class=&quot;p1&quot; style=&quot;margin: 0px ; font-stretch: normal ; line-height: normal ; font-family: &amp;#34;menlo&amp;#34;&quot;&gt;&lt;font style=&quot;font-size: 12px ; background-color: rgb(255 , 255 , 255)&quot;&gt;&lt;span class=&quot;s1&quot;&gt;&lt;span class=&quot;Apple-converted-space&quot;&gt;&amp;nbsp; &amp;nbsp; &amp;nbsp; &amp;nbsp; &amp;nbsp; &amp;nbsp; &amp;nbsp; &amp;nbsp; &lt;/span&gt;[strongSelf.&lt;/span&gt;eventStore&lt;span class=&quot;s1&quot;&gt; &lt;/span&gt;updateRecords&lt;span class=&quot;s1&quot;&gt;:recordIDs &lt;/span&gt;status&lt;span class=&quot;s1&quot;&gt;:&lt;/span&gt;SAEventRecordStatusNone&lt;span class=&quot;s1&quot;&gt;];&lt;/span&gt;&lt;/font&gt;&lt;/p&gt;&lt;p class=&quot;p2&quot; style=&quot;margin: 0px ; font-stretch: normal ; line-height: normal ; font-family: &amp;#34;menlo&amp;#34;&quot;&gt;&lt;font style=&quot;font-size: 12px ; background-color: rgb(255 , 255 , 255)&quot;&gt;&lt;span class=&quot;Apple-converted-space&quot;&gt;&amp;nbsp; &amp;nbsp; &amp;nbsp; &amp;nbsp; &amp;nbsp; &amp;nbsp; &amp;nbsp; &amp;nbsp; &lt;/span&gt;&lt;span class=&quot;s2&quot;&gt;return&lt;/span&gt;;&lt;/font&gt;&lt;/p&gt;&lt;p class=&quot;p2&quot; style=&quot;margin: 0px ; font-stretch: normal ; line-height: normal ; font-family: &amp;#34;menlo&amp;#34;&quot;&gt;&lt;font style=&quot;font-size: 12px ; background-color: rgb(255 , 255 , 255)&quot;&gt;&lt;span class=&quot;Apple-converted-space&quot;&gt;&amp;nbsp; &amp;nbsp; &amp;nbsp; &amp;nbsp; &amp;nbsp; &amp;nbsp; &lt;/span&gt;}&lt;/font&gt;&lt;/p&gt;&lt;p class=&quot;p2&quot; style=&quot;margin: 0px ; font-stretch: normal ; line-height: normal ; font-family: &amp;#34;menlo&amp;#34;&quot;&gt;&lt;font style=&quot;font-size: 12px ; background-color: rgb(255 , 255 , 255)&quot;&gt;&lt;span class=&quot;Apple-converted-space&quot;&gt;&amp;nbsp; &amp;nbsp; &amp;nbsp; &amp;nbsp; &amp;nbsp; &amp;nbsp; &lt;/span&gt;&lt;span class=&quot;s3&quot;&gt;// 5. 删除数据&lt;/span&gt;&lt;/font&gt;&lt;/p&gt;&lt;p class=&quot;p2&quot; style=&quot;margin: 0px ; font-stretch: normal ; line-height: normal ; font-family: &amp;#34;menlo&amp;#34;&quot;&gt;&lt;font style=&quot;font-size: 12px ; background-color: rgb(255 , 255 , 255)&quot;&gt;&lt;span class=&quot;Apple-converted-space&quot;&gt;&amp;nbsp; &amp;nbsp; &amp;nbsp; &amp;nbsp; &amp;nbsp; &amp;nbsp; &lt;/span&gt;&lt;span class=&quot;s2&quot;&gt;if&lt;/span&gt; ([strongSelf.&lt;span class=&quot;s4&quot;&gt;eventStore&lt;/span&gt; &lt;span class=&quot;s4&quot;&gt;deleteRecords&lt;/span&gt;:recordIDs]) {&lt;/font&gt;&lt;/p&gt;&lt;p class=&quot;p2&quot; style=&quot;margin: 0px ; font-stretch: normal ; line-height: normal ; font-family: &amp;#34;menlo&amp;#34;&quot;&gt;&lt;font style=&quot;font-size: 12px ; background-color: rgb(255 , 255 , 255)&quot;&gt;&lt;span class=&quot;Apple-converted-space&quot;&gt;&amp;nbsp; &amp;nbsp; &amp;nbsp; &amp;nbsp; &amp;nbsp; &amp;nbsp; &amp;nbsp; &amp;nbsp; &lt;/span&gt;[strongSelf &lt;span class=&quot;s4&quot;&gt;flushRecordsWithSize&lt;/span&gt;:size];&lt;/font&gt;&lt;/p&gt;&lt;p class=&quot;p2&quot; style=&quot;margin: 0px ; font-stretch: normal ; line-height: normal ; font-family: &amp;#34;menlo&amp;#34;&quot;&gt;&lt;font style=&quot;font-size: 12px ; background-color: rgb(255 , 255 , 255)&quot;&gt;&lt;span class=&quot;Apple-converted-space&quot;&gt;&amp;nbsp; &amp;nbsp; &amp;nbsp; &amp;nbsp; &amp;nbsp; &amp;nbsp; &lt;/span&gt;}&lt;/font&gt;&lt;/p&gt;&lt;p class=&quot;p2&quot; style=&quot;margin: 0px ; font-stretch: normal ; line-height: normal ; font-family: &amp;#34;menlo&amp;#34;&quot;&gt;&lt;font style=&quot;font-size: 12px ; background-color: rgb(255 , 255 , 255)&quot;&gt;&lt;span class=&quot;Apple-converted-space&quot;&gt;&amp;nbsp; &amp;nbsp; &amp;nbsp; &amp;nbsp; &lt;/span&gt;};&lt;/font&gt;&lt;/p&gt;&lt;p class=&quot;p1&quot; style=&quot;margin: 0px ; font-stretch: normal ; line-height: normal ; font-family: &amp;#34;menlo&amp;#34;&quot;&gt;&lt;font style=&quot;font-size: 12px ; background-color: rgb(255 , 255 , 255)&quot;&gt;&lt;span class=&quot;s1&quot;&gt;&amp;nbsp; &amp;nbsp; &amp;nbsp; &amp;nbsp; &lt;/span&gt;&lt;span class=&quot;s2&quot;&gt;if&lt;/span&gt;&lt;span class=&quot;s1&quot;&gt; (&lt;/span&gt;sensorsdata_is_same_queue&lt;span class=&quot;s1&quot;&gt;(strongSelf.&lt;/span&gt;queue&lt;span class=&quot;s1&quot;&gt;)) {&lt;/span&gt;&lt;/font&gt;&lt;/p&gt;&lt;p class=&quot;p2&quot; style=&quot;margin: 0px ; font-stretch: normal ; line-height: normal ; font-family: &amp;#34;menlo&amp;#34;&quot;&gt;&lt;font style=&quot;font-size: 12px ; background-color: rgb(255 , 255 , 255)&quot;&gt;&lt;span class=&quot;Apple-converted-space&quot;&gt;&amp;nbsp; &amp;nbsp; &amp;nbsp; &amp;nbsp; &amp;nbsp; &amp;nbsp; &lt;/span&gt;block();&lt;/font&gt;&lt;/p&gt;&lt;p class=&quot;p2&quot; style=&quot;margin: 0px ; font-stretch: normal ; line-height: normal ; font-family: &amp;#34;menlo&amp;#34;&quot;&gt;&lt;font style=&quot;font-size: 12px ; background-color: rgb(255 , 255 , 255)&quot;&gt;&lt;span class=&quot;Apple-converted-space&quot;&gt;&amp;nbsp; &amp;nbsp; &amp;nbsp; &amp;nbsp; &lt;/span&gt;} &lt;span class=&quot;s2&quot;&gt;else&lt;/span&gt; {&lt;/font&gt;&lt;/p&gt;&lt;p class=&quot;p2&quot; style=&quot;margin: 0px ; font-stretch: normal ; line-height: normal ; font-family: &amp;#34;menlo&amp;#34;&quot;&gt;&lt;font style=&quot;font-size: 12px ; background-color: rgb(255 , 255 , 255)&quot;&gt;&lt;span class=&quot;Apple-converted-space&quot;&gt;&amp;nbsp; &amp;nbsp; &amp;nbsp; &amp;nbsp; &amp;nbsp; &amp;nbsp; &lt;/span&gt;&lt;span class=&quot;s5&quot;&gt;dispatch_sync&lt;/span&gt;(strongSelf.&lt;span class=&quot;s4&quot;&gt;queue&lt;/span&gt;, block);&lt;/font&gt;&lt;/p&gt;&lt;p class=&quot;p2&quot; style=&quot;margin: 0px ; font-stretch: normal ; line-height: normal ; font-family: &amp;#34;menlo&amp;#34;&quot;&gt;&lt;font style=&quot;font-size: 12px ; background-color: rgb(255 , 255 , 255)&quot;&gt;&lt;span class=&quot;Apple-converted-space&quot;&gt;&amp;nbsp; &amp;nbsp; &amp;nbsp; &amp;nbsp; &lt;/span&gt;}&lt;/font&gt;&lt;/p&gt;&lt;p class=&quot;p1&quot; style=&quot;margin: 0px ; font-stretch: normal ; line-height: normal ; font-family: &amp;#34;menlo&amp;#34;&quot;&gt;&lt;font style=&quot;font-size: 12px&quot;&gt;&lt;span class=&quot;s1&quot; style=&quot;background-color: rgb(255 , 255 , 255)&quot;&gt;&lt;/span&gt;&lt;/font&gt;&lt;/p&gt;&lt;p class=&quot;p2&quot; style=&quot;margin: 0px ; font-stretch: normal ; line-height: normal ; font-family: &amp;#34;menlo&amp;#34;&quot;&gt;&lt;font style=&quot;font-size: 12px ; background-color: rgb(255 , 255 , 255)&quot;&gt;&lt;span class=&quot;Apple-converted-space&quot;&gt;&amp;nbsp; &amp;nbsp; &lt;/span&gt;}];&lt;/font&gt;&lt;/p&gt;&lt;p class=&quot;p2&quot; style=&quot;margin: 0px ; font-stretch: normal ; line-height: normal ; font-family: &amp;#34;menlo&amp;#34;&quot;&gt;&lt;font style=&quot;font-size: 12px ; background-color: rgb(255 , 255 , 255)&quot;&gt;…&lt;/font&gt;&lt;/p&gt;&lt;p class=&quot;p1&quot; style=&quot;margin: 0px ; font-stretch: normal ; line-height: normal ; font-family: &amp;#34;menlo&amp;#34;&quot;&gt;&lt;span class=&quot;s1&quot; style=&quot;background-color: rgb(255 , 255 , 255)&quot;&gt;&lt;font style=&quot;font-size: 12px&quot;&gt;}&lt;/font&gt;&lt;/span&gt;&lt;/p&gt;&lt;p class=&quot;p1&quot; style=&quot;margin: 0px ; font-stretch: normal ; line-height: normal ; font-family: &amp;#34;menlo&amp;#34;&quot;&gt;&lt;font style=&quot;font-size: 12px ; background-color: rgb(255 , 255 , 255)&quot;&gt;&lt;br&gt;&lt;/font&gt;&lt;/p&gt;&lt;p class=&quot;p1&quot; style=&quot;margin: 0px ; font-stretch: normal ; line-height: normal ; font-family: &amp;#34;menlo&amp;#34;&quot;&gt;&lt;font style=&quot;font-size: 12px ; background-color: rgb(255 , 255 , 255)&quot;&gt;&lt;br&gt;&lt;/font&gt;&lt;/p&gt;&lt;p class=&quot;p1&quot; style=&quot;margin: 0px ; font-stretch: normal ; line-height: normal ; font-family: &amp;#34;menlo&amp;#34;&quot;&gt;&lt;span style=&quot;background-color: rgb(30 , 32 , 40) ; color: rgb(255 , 255 , 255)&quot;&gt;&lt;br&gt;&lt;/span&gt;&lt;/p&gt;" style="verticalAlign=top;align=left;overflow=fill;fontSize=12;fontFamily=Helvetica;html=1;" vertex="1" parent="1">
          <mxGeometry x="540" y="550" width="880" height="650" as="geometry" />
        </mxCell>
        <mxCell id="KgD3_RwGLiOMR42IKv-A-15" value="&lt;p class=&quot;p1&quot; style=&quot;margin: 0px ; font-stretch: normal ; line-height: normal ; font-family: &amp;#34;menlo&amp;#34;&quot;&gt;&lt;font style=&quot;font-size: 12px ; background-color: rgb(255 , 255 , 255)&quot;&gt;SAEventFlush&lt;/font&gt;&lt;/p&gt;&lt;hr size=&quot;1&quot;&gt;&lt;p style=&quot;margin: 0px 0px 0px 4px&quot;&gt;&lt;font style=&quot;font-size: 12px ; background-color: rgb(255 , 255 , 255)&quot;&gt;&lt;br&gt;&lt;/font&gt;&lt;/p&gt;&lt;hr size=&quot;1&quot;&gt;&lt;p class=&quot;p1&quot; style=&quot;margin: 0px ; font-stretch: normal ; line-height: normal ; font-family: &amp;#34;menlo&amp;#34;&quot;&gt;&lt;font style=&quot;font-size: 12px ; background-color: rgb(255 , 255 , 255)&quot;&gt;- (&lt;span class=&quot;s1&quot;&gt;void&lt;/span&gt;)&lt;span class=&quot;s2&quot;&gt;flushEventRecords&lt;/span&gt;:(&lt;span class=&quot;s3&quot;&gt;NSArray&lt;/span&gt;&amp;lt;&lt;span class=&quot;s4&quot;&gt;SAEventRecord&lt;/span&gt; *&amp;gt; *)records &lt;span class=&quot;s2&quot;&gt;completion&lt;/span&gt;:(&lt;span class=&quot;s1&quot;&gt;void&lt;/span&gt; (^)(&lt;span class=&quot;s1&quot;&gt;BOOL&lt;/span&gt; success))completion {&lt;/font&gt;&lt;/p&gt;&lt;p class=&quot;p1&quot; style=&quot;margin: 0px ; font-stretch: normal ; line-height: normal ; font-family: &amp;#34;menlo&amp;#34;&quot;&gt;&lt;font style=&quot;font-size: 12px ; background-color: rgb(255 , 255 , 255)&quot;&gt;&lt;span class=&quot;Apple-converted-space&quot;&gt;&amp;nbsp; &amp;nbsp; &lt;/span&gt;&lt;span class=&quot;s1&quot;&gt;__block&lt;/span&gt; &lt;span class=&quot;s1&quot;&gt;BOOL&lt;/span&gt; flushSuccess = &lt;span class=&quot;s1&quot;&gt;NO&lt;/span&gt;;&lt;/font&gt;&lt;/p&gt;&lt;p class=&quot;p2&quot; style=&quot;margin: 0px ; font-stretch: normal ; line-height: normal ; font-family: &amp;#34;menlo&amp;#34;&quot;&gt;&lt;font style=&quot;font-size: 12px ; background-color: rgb(255 , 255 , 255)&quot;&gt;&lt;span class=&quot;s5&quot;&gt;&amp;nbsp; &amp;nbsp; &lt;/span&gt;// 当在程序终止或 debug 模式下，使用线程锁&lt;/font&gt;&lt;/p&gt;&lt;p class=&quot;p3&quot; style=&quot;margin: 0px ; font-stretch: normal ; line-height: normal ; font-family: &amp;#34;menlo&amp;#34;&quot;&gt;&lt;font style=&quot;font-size: 12px ; background-color: rgb(255 , 255 , 255)&quot;&gt;&lt;span class=&quot;s5&quot;&gt;&amp;nbsp; &amp;nbsp; &lt;/span&gt;&lt;span class=&quot;s1&quot;&gt;BOOL&lt;/span&gt;&lt;span class=&quot;s5&quot;&gt; isWait = &lt;/span&gt;&lt;span class=&quot;s1&quot;&gt;self&lt;/span&gt;&lt;span class=&quot;s5&quot;&gt;.&lt;/span&gt;flushBeforeEnterBackground&lt;span class=&quot;s5&quot;&gt; || &lt;/span&gt;&lt;span class=&quot;s1&quot;&gt;self&lt;/span&gt;&lt;span class=&quot;s5&quot;&gt;.&lt;/span&gt;isDebugMode&lt;span class=&quot;s5&quot;&gt;;&lt;/span&gt;&lt;/font&gt;&lt;/p&gt;&lt;p class=&quot;p1&quot; style=&quot;margin: 0px ; font-stretch: normal ; line-height: normal ; font-family: &amp;#34;menlo&amp;#34;&quot;&gt;&lt;font style=&quot;font-size: 12px ; background-color: rgb(255 , 255 , 255)&quot;&gt;&lt;span class=&quot;Apple-converted-space&quot;&gt;&amp;nbsp; &amp;nbsp; &lt;/span&gt;[&lt;span class=&quot;s1&quot;&gt;self&lt;/span&gt; &lt;span class=&quot;s4&quot;&gt;requestWithRecords&lt;/span&gt;:records &lt;span class=&quot;s4&quot;&gt;completion&lt;/span&gt;:^(&lt;span class=&quot;s1&quot;&gt;BOOL&lt;/span&gt; success) {&lt;/font&gt;&lt;/p&gt;&lt;p class=&quot;p1&quot; style=&quot;margin: 0px ; font-stretch: normal ; line-height: normal ; font-family: &amp;#34;menlo&amp;#34;&quot;&gt;&lt;font style=&quot;font-size: 12px ; background-color: rgb(255 , 255 , 255)&quot;&gt;&lt;span class=&quot;Apple-converted-space&quot;&gt;&amp;nbsp; &amp;nbsp; &amp;nbsp; &amp;nbsp; &lt;/span&gt;&lt;span class=&quot;s1&quot;&gt;if&lt;/span&gt; (isWait) {&lt;/font&gt;&lt;/p&gt;&lt;p class=&quot;p1&quot; style=&quot;margin: 0px ; font-stretch: normal ; line-height: normal ; font-family: &amp;#34;menlo&amp;#34;&quot;&gt;&lt;font style=&quot;font-size: 12px ; background-color: rgb(255 , 255 , 255)&quot;&gt;&lt;span class=&quot;Apple-converted-space&quot;&gt;&amp;nbsp; &amp;nbsp; &amp;nbsp; &amp;nbsp; &amp;nbsp; &amp;nbsp; &lt;/span&gt;flushSuccess = success;&lt;/font&gt;&lt;/p&gt;&lt;p class=&quot;p4&quot; style=&quot;margin: 0px ; font-stretch: normal ; line-height: normal ; font-family: &amp;#34;menlo&amp;#34;&quot;&gt;&lt;font style=&quot;font-size: 12px ; background-color: rgb(255 , 255 , 255)&quot;&gt;&lt;span class=&quot;s5&quot;&gt;&amp;nbsp; &amp;nbsp; &amp;nbsp; &amp;nbsp; &amp;nbsp; &amp;nbsp; &lt;/span&gt;dispatch_semaphore_signal&lt;span class=&quot;s5&quot;&gt;(&lt;/span&gt;&lt;span class=&quot;s1&quot;&gt;self&lt;/span&gt;&lt;span class=&quot;s5&quot;&gt;.&lt;/span&gt;&lt;span class=&quot;s4&quot;&gt;flushSemaphore&lt;/span&gt;&lt;span class=&quot;s5&quot;&gt;);&lt;/span&gt;&lt;/font&gt;&lt;/p&gt;&lt;p class=&quot;p1&quot; style=&quot;margin: 0px ; font-stretch: normal ; line-height: normal ; font-family: &amp;#34;menlo&amp;#34;&quot;&gt;&lt;font style=&quot;font-size: 12px ; background-color: rgb(255 , 255 , 255)&quot;&gt;&lt;span class=&quot;Apple-converted-space&quot;&gt;&amp;nbsp; &amp;nbsp; &amp;nbsp; &amp;nbsp; &lt;/span&gt;} &lt;span class=&quot;s1&quot;&gt;else&lt;/span&gt; {&lt;/font&gt;&lt;/p&gt;&lt;p class=&quot;p1&quot; style=&quot;margin: 0px ; font-stretch: normal ; line-height: normal ; font-family: &amp;#34;menlo&amp;#34;&quot;&gt;&lt;font style=&quot;font-size: 12px ; background-color: rgb(255 , 255 , 255)&quot;&gt;&lt;span class=&quot;Apple-converted-space&quot;&gt;&amp;nbsp; &amp;nbsp; &amp;nbsp; &amp;nbsp; &amp;nbsp; &amp;nbsp; &lt;/span&gt;completion(success);&lt;/font&gt;&lt;/p&gt;&lt;p class=&quot;p1&quot; style=&quot;margin: 0px ; font-stretch: normal ; line-height: normal ; font-family: &amp;#34;menlo&amp;#34;&quot;&gt;&lt;font style=&quot;font-size: 12px ; background-color: rgb(255 , 255 , 255)&quot;&gt;&lt;span class=&quot;Apple-converted-space&quot;&gt;&amp;nbsp; &amp;nbsp; &amp;nbsp; &amp;nbsp; &lt;/span&gt;}&lt;/font&gt;&lt;/p&gt;&lt;p class=&quot;p1&quot; style=&quot;margin: 0px ; font-stretch: normal ; line-height: normal ; font-family: &amp;#34;menlo&amp;#34;&quot;&gt;&lt;font style=&quot;font-size: 12px ; background-color: rgb(255 , 255 , 255)&quot;&gt;&lt;span class=&quot;Apple-converted-space&quot;&gt;&amp;nbsp; &amp;nbsp; &lt;/span&gt;}];&lt;/font&gt;&lt;/p&gt;&lt;p class=&quot;p1&quot; style=&quot;margin: 0px ; font-stretch: normal ; line-height: normal ; font-family: &amp;#34;menlo&amp;#34;&quot;&gt;&lt;font style=&quot;font-size: 12px ; background-color: rgb(255 , 255 , 255)&quot;&gt;&lt;span class=&quot;Apple-converted-space&quot;&gt;&amp;nbsp; &amp;nbsp; &lt;/span&gt;&lt;span class=&quot;s1&quot;&gt;if&lt;/span&gt; (isWait) {&lt;/font&gt;&lt;/p&gt;&lt;p class=&quot;p4&quot; style=&quot;margin: 0px ; font-stretch: normal ; line-height: normal ; font-family: &amp;#34;menlo&amp;#34;&quot;&gt;&lt;font style=&quot;font-size: 12px ; background-color: rgb(255 , 255 , 255)&quot;&gt;&lt;span class=&quot;s5&quot;&gt;&amp;nbsp; &amp;nbsp; &amp;nbsp; &amp;nbsp; &lt;/span&gt;dispatch_semaphore_wait&lt;span class=&quot;s5&quot;&gt;(&lt;/span&gt;&lt;span class=&quot;s1&quot;&gt;self&lt;/span&gt;&lt;span class=&quot;s5&quot;&gt;.&lt;/span&gt;&lt;span class=&quot;s4&quot;&gt;flushSemaphore&lt;/span&gt;&lt;span class=&quot;s5&quot;&gt;, &lt;/span&gt;&lt;span class=&quot;s6&quot;&gt;DISPATCH_TIME_FOREVER&lt;/span&gt;&lt;span class=&quot;s5&quot;&gt;);&lt;/span&gt;&lt;/font&gt;&lt;/p&gt;&lt;p class=&quot;p1&quot; style=&quot;margin: 0px ; font-stretch: normal ; line-height: normal ; font-family: &amp;#34;menlo&amp;#34;&quot;&gt;&lt;font style=&quot;font-size: 12px ; background-color: rgb(255 , 255 , 255)&quot;&gt;&lt;span class=&quot;Apple-converted-space&quot;&gt;&amp;nbsp; &amp;nbsp; &amp;nbsp; &amp;nbsp; &lt;/span&gt;completion(flushSuccess);&lt;/font&gt;&lt;/p&gt;&lt;p class=&quot;p1&quot; style=&quot;margin: 0px ; font-stretch: normal ; line-height: normal ; font-family: &amp;#34;menlo&amp;#34;&quot;&gt;&lt;font style=&quot;font-size: 12px ; background-color: rgb(255 , 255 , 255)&quot;&gt;&lt;span class=&quot;Apple-converted-space&quot;&gt;&amp;nbsp; &amp;nbsp; &lt;/span&gt;}&lt;/font&gt;&lt;/p&gt;&lt;p class=&quot;p1&quot; style=&quot;margin: 0px ; font-stretch: normal ; line-height: normal ; font-family: &amp;#34;menlo&amp;#34;&quot;&gt;&lt;font style=&quot;font-size: 12px ; background-color: rgb(255 , 255 , 255)&quot;&gt;}&lt;/font&gt;&lt;/p&gt;&lt;p class=&quot;p1&quot; style=&quot;margin: 0px ; font-stretch: normal ; line-height: normal ; font-family: &amp;#34;menlo&amp;#34;&quot;&gt;&lt;font style=&quot;font-size: 12px ; background-color: rgb(255 , 255 , 255)&quot;&gt;&lt;br&gt;&lt;/font&gt;&lt;/p&gt;&lt;p class=&quot;p1&quot; style=&quot;margin: 0px ; font-stretch: normal ; line-height: normal ; font-family: &amp;#34;menlo&amp;#34;&quot;&gt;&lt;font style=&quot;font-size: 12px ; background-color: rgb(255 , 255 , 255)&quot;&gt;- (&lt;span class=&quot;s1&quot;&gt;void&lt;/span&gt;)&lt;span class=&quot;s2&quot;&gt;requestWithRecords&lt;/span&gt;:(&lt;span class=&quot;s3&quot;&gt;NSArray&lt;/span&gt;&amp;lt;&lt;span class=&quot;s4&quot;&gt;SAEventRecord&lt;/span&gt; *&amp;gt; *)records &lt;span class=&quot;s2&quot;&gt;completion&lt;/span&gt;:(&lt;span class=&quot;s1&quot;&gt;void&lt;/span&gt; (^)(&lt;span class=&quot;s1&quot;&gt;BOOL&lt;/span&gt; success))completion {&lt;/font&gt;&lt;/p&gt;&lt;p class=&quot;p2&quot; style=&quot;margin: 0px ; font-stretch: normal ; line-height: normal ; font-family: &amp;#34;menlo&amp;#34;&quot;&gt;&lt;font style=&quot;font-size: 12px ; background-color: rgb(255 , 255 , 255)&quot;&gt;&lt;span class=&quot;s5&quot;&gt;&lt;span class=&quot;Apple-converted-space&quot;&gt;&amp;nbsp; &amp;nbsp; &lt;/span&gt;[&lt;/span&gt;SAHTTPSession&lt;span class=&quot;s5&quot;&gt;.&lt;/span&gt;sharedInstance&lt;span class=&quot;s5&quot;&gt;.&lt;/span&gt;delegateQueue&lt;span class=&quot;s5&quot;&gt; &lt;/span&gt;&lt;span class=&quot;s3&quot;&gt;addOperationWithBlock&lt;/span&gt;&lt;span class=&quot;s5&quot;&gt;:^{&lt;/span&gt;&lt;/font&gt;&lt;/p&gt;&lt;p class=&quot;p2&quot; style=&quot;margin: 0px ; font-stretch: normal ; line-height: normal ; font-family: &amp;#34;menlo&amp;#34;&quot;&gt;&lt;span class=&quot;s5&quot; style=&quot;background-color: rgb(255 , 255 , 255)&quot;&gt;&lt;font style=&quot;font-size: 12px&quot;&gt;&lt;br&gt;&lt;/font&gt;&lt;/span&gt;&lt;/p&gt;&lt;p class=&quot;p2&quot; style=&quot;margin: 0px ; font-stretch: normal ; line-height: normal ; font-family: &amp;#34;menlo&amp;#34;&quot;&gt;&lt;span class=&quot;s5&quot; style=&quot;background-color: rgb(255 , 255 , 255)&quot;&gt;&lt;font style=&quot;font-size: 12px&quot;&gt;}&lt;/font&gt;&lt;/span&gt;&lt;/p&gt;&lt;p class=&quot;p2&quot; style=&quot;margin: 0px ; font-stretch: normal ; line-height: normal ; font-family: &amp;#34;menlo&amp;#34;&quot;&gt;&lt;span class=&quot;s5&quot; style=&quot;background-color: rgb(255 , 255 , 255)&quot;&gt;&lt;font style=&quot;font-size: 12px&quot;&gt;}&lt;/font&gt;&lt;/span&gt;&lt;/p&gt;&lt;p class=&quot;p1&quot; style=&quot;margin: 0px ; font-stretch: normal ; line-height: normal ; font-family: &amp;#34;menlo&amp;#34;&quot;&gt;&lt;span style=&quot;background-color: rgb(30 , 32 , 40) ; color: rgb(255 , 255 , 255) ; font-size: 14px&quot;&gt;&lt;br&gt;&lt;/span&gt;&lt;/p&gt;&lt;p class=&quot;p1&quot; style=&quot;margin: 0px ; font-stretch: normal ; line-height: normal ; font-family: &amp;#34;menlo&amp;#34;&quot;&gt;&lt;span style=&quot;background-color: rgb(30 , 32 , 40) ; color: rgb(255 , 255 , 255) ; font-size: 14px&quot;&gt;&lt;br&gt;&lt;/span&gt;&lt;/p&gt;" style="verticalAlign=top;align=left;overflow=fill;fontSize=12;fontFamily=Helvetica;html=1;" vertex="1" parent="1">
          <mxGeometry x="1400" y="90" width="900" height="380" as="geometry" />
        </mxCell>
        <mxCell id="KgD3_RwGLiOMR42IKv-A-16" value="" style="edgeStyle=segmentEdgeStyle;endArrow=classic;html=1;entryX=0.944;entryY=0;entryDx=0;entryDy=0;entryPerimeter=0;exitX=1.005;exitY=0.681;exitDx=0;exitDy=0;exitPerimeter=0;" edge="1" parent="1" source="KgD3_RwGLiOMR42IKv-A-5" target="KgD3_RwGLiOMR42IKv-A-13">
          <mxGeometry width="50" height="50" relative="1" as="geometry">
            <mxPoint x="1210" y="260" as="sourcePoint" />
            <mxPoint x="1260" y="210" as="targetPoint" />
          </mxGeometry>
        </mxCell>
        <mxCell id="KgD3_RwGLiOMR42IKv-A-17" value="" style="edgeStyle=segmentEdgeStyle;endArrow=classic;html=1;exitX=1.005;exitY=0.681;exitDx=0;exitDy=0;exitPerimeter=0;" edge="1" parent="1">
          <mxGeometry width="50" height="50" relative="1" as="geometry">
            <mxPoint x="1293.6000000000001" y="480.0200000000001" as="sourcePoint" />
            <mxPoint x="1370" y="550" as="targetPoint" />
          </mxGeometry>
        </mxCell>
        <mxCell id="KgD3_RwGLiOMR42IKv-A-18" value="" style="edgeStyle=segmentEdgeStyle;endArrow=classic;html=1;entryX=0.25;entryY=1;entryDx=0;entryDy=0;exitX=1.002;exitY=0.441;exitDx=0;exitDy=0;exitPerimeter=0;" edge="1" parent="1" source="KgD3_RwGLiOMR42IKv-A-14" target="KgD3_RwGLiOMR42IKv-A-15">
          <mxGeometry width="50" height="50" relative="1" as="geometry">
            <mxPoint x="1550" y="770.02" as="sourcePoint" />
            <mxPoint x="1626.3599999999997" y="892.0999999999999" as="targetPoint" />
          </mxGeometry>
        </mxCell>
        <mxCell id="KgD3_RwGLiOMR42IKv-A-20" value="&lt;p class=&quot;p1&quot; style=&quot;margin: 0px ; font-stretch: normal ; line-height: normal ; font-family: &amp;#34;menlo&amp;#34;&quot;&gt;&lt;font style=&quot;font-size: 12px ; background-color: rgb(255 , 255 , 255)&quot;&gt;SAEventStore&lt;/font&gt;&lt;/p&gt;&lt;hr size=&quot;1&quot;&gt;&lt;p style=&quot;margin: 0px 0px 0px 4px&quot;&gt;&lt;font style=&quot;font-size: 12px ; background-color: rgb(255 , 255 , 255)&quot;&gt;&lt;br&gt;&lt;/font&gt;&lt;/p&gt;&lt;hr size=&quot;1&quot;&gt;&lt;p class=&quot;p1&quot; style=&quot;margin: 0px ; font-stretch: normal ; line-height: normal ; font-family: &amp;#34;menlo&amp;#34;&quot;&gt;&lt;font style=&quot;font-size: 12px ; background-color: rgb(255 , 255 , 255)&quot;&gt;- (&lt;span class=&quot;s1&quot;&gt;BOOL&lt;/span&gt;)&lt;span class=&quot;s2&quot;&gt;insertRecord&lt;/span&gt;:(&lt;span class=&quot;s3&quot;&gt;SAEventRecord&lt;/span&gt; *)record {&lt;/font&gt;&lt;/p&gt;&lt;p class=&quot;p1&quot; style=&quot;margin: 0px ; font-stretch: normal ; line-height: normal ; font-family: &amp;#34;menlo&amp;#34;&quot;&gt;&lt;font style=&quot;font-size: 12px ; background-color: rgb(255 , 255 , 255)&quot;&gt;&lt;span class=&quot;Apple-converted-space&quot;&gt;&amp;nbsp; &amp;nbsp; &lt;/span&gt;&lt;span class=&quot;s1&quot;&gt;BOOL&lt;/span&gt; success = [&lt;span class=&quot;s1&quot;&gt;self&lt;/span&gt;.&lt;span class=&quot;s3&quot;&gt;database&lt;/span&gt; &lt;span class=&quot;s3&quot;&gt;insertRecord&lt;/span&gt;:record];&lt;/font&gt;&lt;/p&gt;&lt;p class=&quot;p1&quot; style=&quot;margin: 0px ; font-stretch: normal ; line-height: normal ; font-family: &amp;#34;menlo&amp;#34;&quot;&gt;&lt;font style=&quot;font-size: 12px ; background-color: rgb(255 , 255 , 255)&quot;&gt;&lt;span class=&quot;Apple-converted-space&quot;&gt;&amp;nbsp; &amp;nbsp; &lt;/span&gt;&lt;span class=&quot;s1&quot;&gt;if&lt;/span&gt; (!success) {&lt;/font&gt;&lt;/p&gt;&lt;p class=&quot;p1&quot; style=&quot;margin: 0px ; font-stretch: normal ; line-height: normal ; font-family: &amp;#34;menlo&amp;#34;&quot;&gt;&lt;font style=&quot;font-size: 12px ; background-color: rgb(255 , 255 , 255)&quot;&gt;&lt;span class=&quot;Apple-converted-space&quot;&gt;&amp;nbsp; &amp;nbsp; &amp;nbsp; &amp;nbsp; &lt;/span&gt;[&lt;span class=&quot;s1&quot;&gt;self&lt;/span&gt;.&lt;span class=&quot;s3&quot;&gt;recordCaches&lt;/span&gt; &lt;span class=&quot;s4&quot;&gt;addObject&lt;/span&gt;:record];&lt;/font&gt;&lt;/p&gt;&lt;p class=&quot;p1&quot; style=&quot;margin: 0px ; font-stretch: normal ; line-height: normal ; font-family: &amp;#34;menlo&amp;#34;&quot;&gt;&lt;font style=&quot;font-size: 12px ; background-color: rgb(255 , 255 , 255)&quot;&gt;&lt;span class=&quot;Apple-converted-space&quot;&gt;&amp;nbsp; &amp;nbsp; &lt;/span&gt;}&lt;/font&gt;&lt;/p&gt;&lt;p class=&quot;p1&quot; style=&quot;margin: 0px ; font-stretch: normal ; line-height: normal ; font-family: &amp;#34;menlo&amp;#34;&quot;&gt;&lt;font style=&quot;font-size: 12px ; background-color: rgb(255 , 255 , 255)&quot;&gt;&lt;span class=&quot;Apple-converted-space&quot;&gt;&amp;nbsp; &amp;nbsp; &lt;/span&gt;&lt;span class=&quot;s1&quot;&gt;return&lt;/span&gt; success;&lt;/font&gt;&lt;/p&gt;&lt;p class=&quot;p1&quot; style=&quot;margin: 0px ; font-stretch: normal ; line-height: normal ; font-family: &amp;#34;menlo&amp;#34;&quot;&gt;&lt;font style=&quot;font-size: 12px ; background-color: rgb(255 , 255 , 255)&quot;&gt;}&lt;/font&gt;&lt;/p&gt;&lt;p class=&quot;p1&quot; style=&quot;margin: 0px ; font-stretch: normal ; line-height: normal ; font-family: &amp;#34;menlo&amp;#34;&quot;&gt;&lt;br&gt;&lt;/p&gt;" style="verticalAlign=top;align=left;overflow=fill;fontSize=12;fontFamily=Helvetica;html=1;" vertex="1" parent="1">
          <mxGeometry x="-370" y="640" width="880" height="160" as="geometry" />
        </mxCell>
        <mxCell id="KgD3_RwGLiOMR42IKv-A-21" value="" style="edgeStyle=elbowEdgeStyle;elbow=vertical;endArrow=classic;html=1;" edge="1" parent="1" source="KgD3_RwGLiOMR42IKv-A-14" target="KgD3_RwGLiOMR42IKv-A-20">
          <mxGeometry width="50" height="50" relative="1" as="geometry">
            <mxPoint x="440" y="610" as="sourcePoint" />
            <mxPoint x="490" y="560" as="targetPoint" />
          </mxGeometry>
        </mxCell>
      </root>
    </mxGraphModel>
  </diagram>
</mxfile>
